<svg width="71" height="71" viewBox="0 0 71 71" fill="none" xmlns="http://www.w3.org/2000/svg">
<circle cx="35.5" cy="35.4995" r="32.6216" fill="#101010"/>
<path d="M41.5394 30.3716C43.0905 29.7608 44.6561 29.1777 46.2348 28.6237C46.2515 28.6174 46.2633 28.6022 46.2647 28.5849C46.3742 27.1635 46.5288 25.4862 46.7285 23.5511C46.7923 22.9319 46.8644 22.3578 46.9448 21.8302C46.9663 21.6894 47.0128 21.5577 47.0842 21.4342C47.0932 21.4183 47.1092 21.4072 47.1272 21.4037L47.3435 21.3601C47.3532 21.3587 47.3622 21.3587 47.3713 21.3608C47.4815 21.392 47.598 21.4363 47.72 21.4946C47.7249 21.4973 47.7304 21.4994 47.736 21.5008L48.4799 21.713C48.5243 21.7255 48.5652 21.7476 48.6006 21.7768C48.6873 21.8482 48.7954 21.9016 48.9251 21.9355C48.9459 21.9411 48.9667 21.9369 48.9868 21.9238C48.9979 21.9154 49.0131 21.9154 49.0242 21.9217L49.2385 22.0451C49.2468 22.0499 49.2572 22.0534 49.2669 22.0534C49.391 22.0562 49.4694 22.1422 49.5755 22.1845C49.6559 22.2157 49.78 22.2732 49.9485 22.3564C49.9568 22.3606 49.963 22.3689 49.9637 22.3793C49.9644 22.389 49.9596 22.398 49.9519 22.4043C49.8285 22.4909 49.8299 22.726 49.8098 22.9257C49.7356 23.6488 49.6337 24.9246 49.504 26.7516C49.4909 26.9374 49.4617 27.1142 49.4714 27.2709C49.4721 27.2924 49.4701 27.3146 49.4645 27.3354L49.4319 27.4484C49.4271 27.4644 49.4319 27.4817 49.4437 27.4935C49.4562 27.5053 49.4735 27.5095 49.4895 27.5039C50.5323 27.1628 51.0662 26.9881 51.0904 26.9804C52.1478 26.649 53.2073 26.3217 54.2688 25.9972C54.5891 25.8995 55.0523 25.7511 55.6576 25.5521C56.5742 25.2519 57.036 25.1007 57.0436 25.0987C57.0658 25.0938 57.2204 25.0383 57.5061 24.9316C57.6579 24.8754 57.8126 24.8809 57.9713 24.9496C58.2542 25.0709 58.5662 25.1507 58.8637 25.2325C58.9462 25.2554 59.0731 25.299 59.245 25.3649C59.2513 25.367 59.2582 25.3739 59.2658 25.3836C59.2721 25.3919 59.2804 25.3982 59.2901 25.4016C59.5813 25.5057 59.7658 25.5771 59.842 25.6173C60.0764 25.7379 60.3357 25.8364 60.5603 25.9771C60.5707 25.9834 60.577 25.9952 60.5763 26.0076C60.5763 26.0201 60.5694 26.0312 60.5583 26.0361C60.36 26.1387 60.1422 26.2288 59.9044 26.3072C59.3227 26.4978 58.3125 26.8431 57.5574 27.0726C56.3121 27.4526 55.5903 27.6731 55.392 27.7341C53.3446 28.3602 51.4454 28.9988 49.3598 29.7268C49.3245 29.7393 49.2995 29.7726 49.2981 29.81C49.2419 31.1087 49.1518 32.4587 49.0277 33.8599C48.923 35.0442 48.7774 36.4219 48.5923 37.9917C48.5791 38.0984 48.5077 38.7738 48.3766 40.0184C48.3073 40.6805 48.2407 41.3565 48.1783 42.0464C47.9773 44.2472 47.8379 45.8301 47.7589 46.7932C47.7062 47.4408 47.6763 48.1029 47.6687 48.7803C47.6687 48.8171 47.6424 48.849 47.6063 48.8566C47.4087 48.901 47.2056 48.8337 46.9393 48.7762C46.9019 48.7686 46.8679 48.7692 46.8388 48.7796C46.8145 48.7887 46.7937 48.7838 46.7771 48.7658C46.7653 48.7533 46.7452 48.7443 46.7167 48.738C46.2425 48.6333 45.8112 48.53 45.4236 48.4281C45.4195 48.4274 45.4153 48.426 45.4118 48.424L45.3217 48.381C45.3044 48.3726 45.2849 48.3678 45.2655 48.3678C45.1962 48.3664 45.1303 48.3518 45.0679 48.3241C45.0284 48.3068 45.0076 48.3116 44.9771 48.329C44.9625 48.3373 44.9452 48.3373 44.9306 48.329C44.7095 48.1972 44.4446 48.0918 44.4536 47.7861C44.4758 47.0941 44.5035 46.434 44.5645 45.7608C44.7559 43.6308 44.9202 41.887 45.0568 40.5294C45.1941 39.1697 45.4326 37.1208 45.6268 35.5101C45.8168 33.9314 45.9735 32.4067 46.0962 30.9353C46.0969 30.9291 46.0941 30.9229 46.0892 30.9194C46.0844 30.9152 46.0775 30.9145 46.0719 30.9166C44.584 31.4866 43.0953 32.0669 41.606 32.657C41.5477 32.6798 41.502 32.7069 41.4701 32.7367C41.459 32.7471 41.4521 32.7617 41.4514 32.7769C41.4333 33.0633 41.4229 33.3233 41.4209 33.5562C41.4174 33.853 41.3903 34.1435 41.3945 34.3793C41.3973 34.5068 41.3931 34.6427 41.382 34.7877C41.3675 34.9832 41.3612 35.1198 41.364 35.1974C41.373 35.4671 41.3467 35.6696 41.3383 35.9816C41.3085 37.0938 41.2877 37.8821 41.2773 38.346C41.2586 39.1766 41.235 40.0066 41.208 40.8358C41.1719 41.9528 41.1761 43.1378 41.217 44.1917C41.2309 44.5508 41.2392 44.901 41.2427 45.2414C41.2427 45.2782 41.2468 45.3156 41.2551 45.3517C41.3106 45.5937 41.3543 45.8488 41.3876 46.1171C41.3966 46.1879 41.4209 46.2579 41.3293 46.2815C41.2454 46.3023 41.1699 46.3113 41.1012 46.3092C41.0964 46.3092 41.0922 46.3085 41.0873 46.3078L40.593 46.2052C40.5791 46.2024 40.5646 46.2059 40.5535 46.2142C40.5389 46.226 40.5271 46.2246 40.5174 46.2107C40.5119 46.2024 40.498 46.1962 40.4751 46.1906C40.1368 46.1095 39.6819 46.0048 39.1127 45.8759C39.0932 45.8717 39.0676 45.8599 39.0357 45.8405C39.0191 45.8308 39.0017 45.8239 38.983 45.8211L38.6772 45.7691C38.6488 45.7642 38.6218 45.7545 38.5961 45.7407L38.3465 45.6013C38.3416 45.5992 38.3375 45.5957 38.334 45.5923C38.2016 45.4682 38.126 45.3011 38.1073 45.0903C38.0615 44.5807 38.0345 44.0454 38.0262 43.4831C38.0033 41.9008 38.0144 40.4302 38.0581 39.0705C38.1232 37.0612 38.1843 35.3923 38.2411 34.0652C38.2411 34.0589 38.2383 34.0527 38.2335 34.0492C38.2286 34.0458 38.2217 34.0451 38.2161 34.0471L32.6492 36.365C32.6263 36.3741 32.6124 36.3983 32.6159 36.4233C32.6187 36.4406 32.62 36.4815 32.6207 36.5467C32.6415 37.914 32.6623 38.8286 32.6824 39.291C32.7864 41.7414 32.8523 43.1627 32.8801 43.5566C32.9716 44.849 33.0555 46.1359 33.131 47.4179C33.1449 47.6515 33.1518 47.7992 33.1512 47.8603C33.1498 48.0544 33.1768 48.2153 33.1837 48.4489C33.1962 48.894 33.2136 49.3149 33.2364 49.7108C33.251 49.9618 33.2572 50.1241 33.2559 50.1983C33.2559 50.2059 33.2517 50.2142 33.2455 50.2191C33.2385 50.2239 33.2302 50.2253 33.2226 50.2232C33.181 50.2107 33.1456 50.2135 33.1165 50.2315C33.0971 50.2426 33.0735 50.2468 33.0506 50.2412C32.9161 50.2094 32.776 50.1816 32.6304 50.158C32.5015 50.1379 32.36 50.1088 32.2068 50.0707C31.6916 49.9445 31.2271 49.8481 30.7091 49.6942C30.6738 49.6831 30.644 49.6824 30.6197 49.6914C30.6044 49.697 30.5878 49.6935 30.576 49.6824C30.558 49.6644 30.4977 49.6283 30.3951 49.5749C30.0789 49.4099 30.0879 49.1208 30.0636 48.8136C30.0428 48.5536 30.0193 48.035 29.9936 47.2591C29.977 46.7474 29.9152 45.6512 29.8092 43.9698C29.7301 42.7232 29.6733 41.6894 29.64 40.8691C29.5928 39.7105 29.5547 38.676 29.5263 37.7649C29.5263 37.7538 29.5193 37.7434 29.5089 37.7386C29.4985 37.733 29.4861 37.7344 29.477 37.7414C29.3807 37.8135 29.2815 37.8391 29.1546 37.8946C28.2651 38.2843 27.4393 38.649 26.6766 38.988C26.3944 39.1135 25.5499 39.5018 24.143 40.1543C24.0834 40.182 24.0272 40.2125 23.9745 40.2465C23.9572 40.2576 23.9468 40.2763 23.9468 40.2964L23.9738 49.1832C23.9738 49.2047 23.9586 49.222 23.9385 49.2248L23.7645 49.2484C23.7312 49.2532 23.6972 49.2518 23.6646 49.2449L21.7572 48.8219C21.7433 48.8192 21.7308 48.8115 21.7204 48.8018C21.6317 48.7103 21.5318 48.7776 21.4597 48.7297C21.4251 48.7075 21.3828 48.6985 21.3328 48.7034C21.3051 48.7061 21.2774 48.7006 21.2524 48.6874C21.0382 48.58 20.8711 48.5155 20.8253 48.2777C20.7941 48.1196 20.7809 47.8547 20.7865 47.4838C20.808 45.9896 20.8149 44.0925 20.8066 41.7927C20.8066 41.7864 20.8031 41.7802 20.7976 41.7767C20.792 41.7733 20.7851 41.7733 20.7795 41.776C20.4772 41.9216 20.0217 42.1504 19.4122 42.4618C18.9997 42.6718 17.7426 43.3382 15.6397 44.46C15.4199 44.5772 15.1723 44.7055 14.8957 44.8441C14.5067 45.0397 14.255 45.1603 14.1413 45.2061C13.9832 45.2692 13.7087 45.1957 13.5963 45.1617C13.5811 45.1575 13.5651 45.1555 13.5492 45.1575C13.4029 45.1714 13.2892 45.1007 13.1609 45.0723C12.6416 44.9585 12.2075 44.8594 11.7423 44.7131C11.5045 44.6389 11.4005 44.555 11.2355 44.3824C11.2181 44.3643 11.2098 44.3408 11.2105 44.3165C11.2119 44.2922 11.223 44.2693 11.2417 44.2534C11.4074 44.1113 11.6334 43.9677 11.8525 43.9171C11.926 43.9005 12.0772 43.8478 12.1618 43.8048C12.5452 43.6072 12.7754 43.4858 12.8531 43.4415C15.4712 41.9431 18.1212 40.5564 20.8017 39.282C20.8135 39.2765 20.8205 39.2654 20.8205 39.2529C20.8419 37.5854 20.912 35.6918 20.955 33.8502C20.9855 32.5342 21.007 31.7431 21.0194 31.4769C21.111 29.4821 21.1768 27.9477 21.2171 26.8737C21.2469 26.0784 21.2725 24.8678 21.294 23.2411C21.3016 22.6497 21.3446 21.6624 21.3481 20.9038C21.3488 20.786 21.3675 20.6889 21.4063 20.6126C21.414 20.5974 21.4278 20.5863 21.4445 20.5821C21.6719 20.5294 21.7419 20.5481 21.952 20.6341C22.2252 20.745 22.5296 20.8116 22.8256 20.9004C22.8298 20.9017 22.834 20.9031 22.8381 20.9052L23.1779 21.0917C23.1952 21.1014 23.2167 21.1042 23.2368 21.0987C23.286 21.0855 23.3429 21.0959 23.4074 21.1312C23.4649 21.1625 23.4961 21.1791 23.4996 21.1805C23.7034 21.2637 23.9378 21.3705 24.2034 21.5008C24.2581 21.5279 24.3039 21.5681 24.3406 21.6221C24.3448 21.6284 24.3455 21.6374 24.3427 21.6443C24.3393 21.6513 24.3323 21.6561 24.3247 21.6575C24.1333 21.6818 24.2228 21.8787 24.2165 21.9813C24.2027 22.2254 24.2235 22.4188 24.2228 22.6095C24.2165 23.4297 24.2158 24.017 24.2193 24.372C24.2297 25.3566 24.2394 26.4334 24.211 27.4942C24.2034 27.7826 24.2082 28.1675 24.1936 28.553C24.1826 28.8303 24.152 29.801 24.1014 31.4637C24.073 32.3824 24.0543 33.2935 24.0446 34.1976C24.0272 35.7743 24.0141 36.6861 24.0057 36.9329C23.9988 37.1388 23.9919 37.4044 23.9849 37.7296C23.9843 37.74 23.9898 37.7504 23.9988 37.7566C24.0078 37.7629 24.0196 37.7636 24.03 37.7594L29.4916 35.3347C29.5041 35.3299 29.5117 35.3174 29.5117 35.3042C29.5131 33.844 29.5311 32.1938 29.6254 30.5762C29.7468 28.5079 29.8418 26.9596 29.9111 25.93C29.9742 24.9849 30.0789 23.8513 30.2203 22.7294C30.3008 22.0909 30.3666 21.5251 30.4179 21.0328C30.4242 20.9732 30.4498 20.9031 30.4949 20.822C30.5039 20.8047 30.5219 20.795 30.5407 20.7964C30.594 20.7991 30.6481 20.7908 30.7022 20.7714C30.7272 20.7631 30.7542 20.761 30.7799 20.7672C30.8846 20.7929 31.0024 20.8352 31.1342 20.8955C31.1529 20.9038 31.173 20.9108 31.1931 20.9156C31.4871 20.9912 31.7374 21.0709 31.9447 21.1562C32.0952 21.2179 32.2595 21.2831 32.4384 21.351C32.7102 21.455 33.0139 21.5868 33.3488 21.7463C33.3612 21.7518 33.3689 21.765 33.3689 21.7788C33.3682 21.7927 33.3599 21.8052 33.3474 21.81C33.3023 21.8281 33.278 21.8586 33.276 21.9037C33.2593 22.2288 33.2323 22.5603 33.1948 22.8965C33.0894 23.8527 32.9986 24.8601 32.9223 25.9189C32.8794 26.5256 32.8246 27.6883 32.7594 29.4065C32.7594 29.4079 32.7511 29.5105 32.7344 29.7143C32.7247 29.8378 32.7358 29.9688 32.7282 30.1269C32.6616 31.5254 32.6228 32.8067 32.6124 33.9709C32.6124 33.9813 32.6173 33.991 32.6263 33.9965C32.6346 34.0021 32.645 34.0035 32.6547 33.9993L38.3271 31.6377C38.3403 31.6329 38.3493 31.6204 38.3493 31.6058C38.4151 29.9723 38.4678 28.8074 38.5094 28.112C38.5684 27.117 38.6731 25.9577 38.7937 24.7943C38.9137 23.6412 39.0038 22.6095 39.0641 21.6991C39.0683 21.6436 39.1092 21.5986 39.1633 21.5889C39.3449 21.5584 39.5314 21.5896 39.7221 21.6845C39.7395 21.6936 39.7582 21.7005 39.7769 21.7054C40.5486 21.9106 41.3064 22.206 42.0483 22.5901C42.0608 22.5963 42.0698 22.6081 42.0726 22.622C42.0747 22.6351 42.0712 22.6497 42.0622 22.6601L42.0262 22.7024C42.013 22.717 42.0054 22.7357 42.004 22.7551C41.9887 22.9513 41.9742 23.1857 41.961 23.4575C41.9492 23.7015 41.9346 23.9338 41.9159 24.1536C41.7412 26.2482 41.6323 27.741 41.5893 28.6306C41.5595 29.2442 41.5353 29.8197 41.5172 30.3564C41.5172 30.3619 41.52 30.3668 41.5242 30.3703C41.5283 30.373 41.5339 30.3737 41.5394 30.3716Z" fill="white"/>
</svg>
