<svg width="1226" height="1226" viewBox="0 0 1226 1226" fill="none" xmlns="http://www.w3.org/2000/svg">
<path d="M728.531 510.254C760.171 497.787 792.095 485.9 824.301 474.594C824.468 474.534 824.614 474.427 824.72 474.287C824.827 474.147 824.89 473.979 824.901 473.804C827.135 444.824 830.288 410.607 834.361 371.154C835.668 358.52 837.141 346.817 838.781 336.044C839.221 333.177 840.168 330.487 841.621 327.974C841.712 327.814 841.837 327.676 841.988 327.569C842.138 327.462 842.31 327.388 842.491 327.354L846.911 326.464C847.102 326.431 847.297 326.438 847.481 326.484C849.728 327.11 852.095 328.017 854.581 329.204C854.688 329.257 854.798 329.301 854.911 329.334L870.081 333.664C870.985 333.921 871.823 334.364 872.541 334.964C874.315 336.424 876.521 337.504 879.161 338.204C879.595 338.317 880.015 338.234 880.421 337.954C880.534 337.876 880.667 337.831 880.804 337.826C880.94 337.821 881.075 337.855 881.191 337.924L885.551 340.434C885.729 340.539 885.932 340.597 886.141 340.604C888.661 340.664 890.271 342.414 892.431 343.274C894.065 343.914 896.598 345.084 900.031 346.784C900.119 346.826 900.194 346.891 900.249 346.971C900.303 347.052 900.336 347.146 900.343 347.244C900.35 347.342 900.331 347.44 900.289 347.53C900.247 347.619 900.182 347.696 900.101 347.754C897.591 349.524 897.611 354.314 897.201 358.394C895.695 373.147 893.618 399.157 890.971 436.424C890.701 440.214 890.111 443.814 890.301 447.014C890.328 447.457 890.281 447.9 890.161 448.324L889.501 450.634C889.455 450.795 889.453 450.965 889.496 451.127C889.539 451.288 889.626 451.435 889.746 451.551C889.866 451.667 890.016 451.749 890.179 451.786C890.342 451.824 890.512 451.816 890.671 451.764C911.945 444.804 922.828 441.247 923.321 441.094C944.888 434.334 966.498 427.647 988.151 421.034C994.685 419.04 1004.12 416.017 1016.47 411.964C1035.16 405.83 1044.58 402.747 1044.73 402.714C1045.19 402.614 1048.34 401.477 1054.17 399.304C1057.26 398.15 1060.42 398.27 1063.65 399.664C1069.43 402.144 1075.79 403.764 1081.85 405.434C1083.54 405.9 1086.13 406.8 1089.63 408.134C1089.76 408.187 1089.9 408.317 1090.06 408.524C1090.19 408.687 1090.36 408.812 1090.55 408.884C1096.5 411.004 1100.25 412.47 1101.81 413.284C1106.59 415.754 1111.87 417.754 1116.46 420.624C1116.57 420.69 1116.65 420.783 1116.71 420.893C1116.77 421.003 1116.79 421.125 1116.79 421.248C1116.78 421.372 1116.75 421.491 1116.68 421.594C1116.61 421.696 1116.52 421.779 1116.41 421.834C1112.38 423.92 1107.93 425.76 1103.08 427.354C1091.22 431.244 1070.61 438.284 1055.22 442.974C1029.82 450.72 1015.1 455.214 1011.05 456.454C969.301 469.224 930.571 482.244 888.031 497.104C887.677 497.227 887.367 497.454 887.142 497.756C886.918 498.057 886.788 498.418 886.771 498.794C885.631 525.28 883.795 552.814 881.261 581.394C879.121 605.547 876.158 633.634 872.371 665.654C872.111 667.827 870.648 681.604 867.981 706.984C866.561 720.497 865.211 734.284 863.931 748.344C859.838 793.237 856.988 825.507 855.381 845.154C854.308 858.36 853.695 871.871 853.541 885.684C853.538 886.048 853.411 886.401 853.18 886.684C852.95 886.967 852.629 887.165 852.271 887.244C848.241 888.144 844.101 886.774 838.671 885.604C837.898 885.437 837.215 885.46 836.621 885.674C836.121 885.847 835.701 885.75 835.361 885.384C835.121 885.13 834.711 884.94 834.131 884.814C824.458 882.68 815.665 880.577 807.751 878.504C807.672 878.484 807.591 878.454 807.511 878.414L805.671 877.534C805.316 877.363 804.927 877.27 804.531 877.264C803.118 877.237 801.775 876.944 800.501 876.384C799.691 876.024 799.271 876.124 798.641 876.484C798.499 876.565 798.336 876.607 798.171 876.606C798.006 876.604 797.844 876.558 797.701 876.474C793.191 873.784 787.781 871.644 787.971 865.404C788.421 851.294 788.991 837.824 790.231 824.094C794.138 780.654 797.485 745.094 800.271 717.414C803.071 689.674 807.941 647.894 811.901 615.044C815.775 582.85 818.965 551.751 821.471 521.744C821.477 521.681 821.467 521.618 821.442 521.561C821.416 521.503 821.377 521.453 821.327 521.415C821.277 521.377 821.218 521.352 821.156 521.343C821.094 521.334 821.03 521.341 820.971 521.364C790.625 532.99 760.265 544.82 729.891 556.854C728.705 557.327 727.781 557.87 727.121 558.484C726.897 558.696 726.761 558.989 726.741 559.304C726.375 565.144 726.168 570.44 726.121 575.194C726.051 581.254 725.491 587.174 725.581 591.984C725.635 594.577 725.551 597.35 725.331 600.304C725.025 604.297 724.901 607.084 724.961 608.664C725.141 614.174 724.611 618.304 724.441 624.654C723.828 647.34 723.411 663.417 723.191 672.884C722.805 689.817 722.335 706.74 721.781 723.654C721.041 746.444 721.121 770.604 721.961 792.094C722.248 799.427 722.421 806.564 722.481 813.504C722.481 814.261 722.569 815.02 722.741 815.764C723.868 820.697 724.768 825.9 725.441 831.374C725.621 832.804 726.121 834.244 724.251 834.714C722.545 835.14 720.995 835.33 719.601 835.284C719.508 835.284 719.414 835.274 719.321 835.254L709.231 833.164C709.093 833.135 708.95 833.138 708.812 833.17C708.674 833.203 708.544 833.266 708.431 833.354C708.138 833.587 707.895 833.56 707.701 833.274C707.588 833.114 707.298 832.977 706.831 832.864C699.925 831.217 690.661 829.08 679.041 826.454C678.648 826.36 678.125 826.117 677.471 825.724C677.141 825.526 676.778 825.39 676.401 825.324L670.171 824.264C669.589 824.165 669.028 823.968 668.511 823.684L663.421 820.854C663.328 820.801 663.241 820.737 663.161 820.664C660.461 818.137 658.921 814.724 658.541 810.424C657.608 800.037 657.058 789.114 656.891 777.654C656.425 745.38 656.641 715.384 657.541 687.664C658.868 646.677 660.111 612.647 661.271 585.574C661.274 585.512 661.262 585.45 661.234 585.394C661.207 585.338 661.166 585.29 661.115 585.254C661.064 585.218 661.005 585.195 660.943 585.188C660.882 585.181 660.819 585.19 660.761 585.214L547.231 632.474C547.002 632.569 546.811 632.737 546.688 632.953C546.565 633.168 546.517 633.418 546.551 633.664C546.598 634.017 546.631 634.857 546.651 636.184C547.078 664.071 547.495 682.727 547.901 692.154C550.028 742.12 551.375 771.12 551.941 779.154C553.808 805.507 555.511 831.754 557.051 857.894C557.338 862.667 557.475 865.677 557.461 866.924C557.431 870.884 557.991 874.164 558.131 878.924C558.385 888.004 558.741 896.584 559.201 904.664C559.495 909.777 559.628 913.087 559.601 914.594C559.6 914.677 559.579 914.758 559.542 914.832C559.504 914.906 559.45 914.97 559.384 915.019C559.319 915.069 559.243 915.102 559.162 915.117C559.082 915.131 558.999 915.127 558.921 915.104C558.068 914.857 557.348 914.914 556.761 915.274C556.357 915.511 555.877 915.583 555.421 915.474C552.675 914.82 549.815 914.257 546.841 913.784C544.215 913.364 541.335 912.77 538.201 912.004C527.701 909.424 518.231 907.454 507.661 904.314C506.941 904.1 506.331 904.084 505.831 904.264C505.682 904.318 505.52 904.328 505.364 904.295C505.209 904.261 505.066 904.185 504.951 904.074C504.585 903.707 503.351 902.977 501.251 901.884C494.811 898.524 494.991 892.624 494.491 886.364C494.071 881.057 493.598 870.487 493.071 854.654C492.725 844.227 491.468 821.867 489.301 787.574C487.688 762.147 486.541 741.067 485.861 724.334C484.895 700.707 484.121 679.607 483.541 661.034C483.537 660.919 483.502 660.807 483.438 660.71C483.375 660.614 483.286 660.537 483.182 660.487C483.078 660.437 482.962 660.418 482.847 660.429C482.733 660.441 482.623 660.484 482.531 660.554C480.571 662.024 478.551 662.544 475.961 663.674C457.821 671.627 440.975 679.06 425.421 685.974C419.668 688.527 402.445 696.454 373.751 709.754C372.538 710.32 371.391 710.95 370.311 711.644C370.14 711.751 369.999 711.9 369.901 712.076C369.803 712.253 369.751 712.452 369.751 712.654L370.301 893.904C370.301 894.11 370.227 894.308 370.093 894.463C369.958 894.617 369.773 894.717 369.571 894.744L366.031 895.234C365.35 895.326 364.659 895.299 363.991 895.154L325.091 886.534C324.81 886.468 324.55 886.323 324.341 886.114C322.531 884.254 320.491 885.624 319.021 884.654C318.321 884.2 317.461 884.02 316.441 884.114C315.873 884.166 315.304 884.055 314.801 883.794C310.431 881.594 307.021 880.274 306.081 875.434C305.448 872.207 305.185 866.811 305.291 859.244C305.731 828.764 305.868 790.074 305.701 743.174C305.701 743.109 305.685 743.045 305.653 742.989C305.622 742.932 305.576 742.885 305.521 742.85C305.466 742.816 305.403 742.797 305.338 742.794C305.274 742.791 305.209 742.805 305.151 742.834C298.985 745.807 289.691 750.467 277.271 756.814C268.858 761.107 243.211 774.694 200.331 797.574C195.851 799.967 190.795 802.577 185.161 805.404C177.221 809.39 172.091 811.85 169.771 812.784C166.551 814.074 160.941 812.574 158.661 811.884C158.344 811.791 158.015 811.761 157.691 811.794C154.711 812.074 152.391 810.634 149.771 810.064C139.181 807.734 130.331 805.714 120.851 802.734C116.001 801.214 113.871 799.514 110.501 795.984C110.332 795.806 110.2 795.595 110.114 795.364C110.028 795.133 109.99 794.888 110.002 794.643C110.014 794.397 110.076 794.158 110.185 793.938C110.293 793.718 110.445 793.522 110.631 793.364C114.011 790.464 118.621 787.534 123.091 786.504C124.591 786.154 127.681 785.084 129.401 784.204C137.215 780.177 141.915 777.707 143.501 776.794C196.895 746.24 250.931 717.964 305.611 691.964C305.723 691.909 305.818 691.825 305.885 691.721C305.952 691.617 305.989 691.497 305.991 691.374C306.421 657.364 307.851 618.744 308.731 581.194C309.351 554.36 309.788 538.224 310.041 532.784C311.915 492.104 313.258 460.81 314.071 438.904C314.678 422.69 315.201 397.997 315.641 364.824C315.801 352.764 316.681 332.624 316.751 317.164C316.758 314.757 317.151 312.777 317.931 311.224C318.01 311.068 318.121 310.931 318.258 310.824C318.395 310.716 318.553 310.641 318.721 310.604C323.351 309.524 324.781 309.904 329.061 311.654C334.631 313.924 340.841 315.274 346.881 317.084C346.968 317.11 347.051 317.144 347.131 317.184L354.061 320.984C354.426 321.189 354.857 321.243 355.261 321.134C356.275 320.86 357.435 321.08 358.741 321.794C359.921 322.434 360.551 322.77 360.631 322.804C364.778 324.497 369.561 326.674 374.981 329.334C376.095 329.88 377.028 330.704 377.781 331.804C377.825 331.871 377.851 331.948 377.857 332.028C377.863 332.108 377.849 332.188 377.816 332.26C377.783 332.333 377.732 332.395 377.668 332.441C377.604 332.487 377.53 332.515 377.451 332.524C373.551 333.024 375.371 337.044 375.251 339.134C374.961 344.114 375.391 348.054 375.371 351.944C375.251 368.67 375.228 380.654 375.301 387.894C375.521 407.974 375.721 429.934 375.141 451.564C374.981 457.454 375.081 465.294 374.781 473.154C374.561 478.82 373.935 498.61 372.901 532.524C372.328 551.257 371.941 569.844 371.741 588.284C371.381 620.43 371.118 639.024 370.951 644.064C370.811 648.264 370.668 653.677 370.521 660.304C370.518 660.414 370.543 660.524 370.594 660.622C370.645 660.72 370.72 660.803 370.812 660.864C370.904 660.925 371.01 660.962 371.12 660.971C371.23 660.979 371.341 660.96 371.441 660.914L482.831 611.474C482.953 611.42 483.057 611.331 483.13 611.22C483.202 611.108 483.241 610.977 483.241 610.844C483.271 581.064 483.631 547.404 485.561 514.414C488.035 472.24 489.975 440.657 491.381 419.664C492.671 400.394 494.811 377.264 497.691 354.394C499.331 341.36 500.675 329.824 501.721 319.784C501.848 318.577 502.371 317.144 503.291 315.484C503.381 315.317 503.517 315.179 503.684 315.087C503.85 314.995 504.04 314.952 504.231 314.964C505.318 315.024 506.415 314.857 507.521 314.464C508.03 314.281 508.579 314.25 509.101 314.374C511.235 314.894 513.645 315.764 516.331 316.984C516.717 317.163 517.119 317.304 517.531 317.404C523.525 318.937 528.635 320.57 532.861 322.304C535.928 323.564 539.285 324.89 542.931 326.284C548.471 328.404 554.661 331.087 561.501 334.334C561.625 334.395 561.729 334.49 561.8 334.609C561.871 334.727 561.907 334.864 561.903 335.002C561.899 335.14 561.855 335.274 561.776 335.388C561.698 335.501 561.589 335.59 561.461 335.644C560.541 336.004 560.058 336.637 560.011 337.544C559.671 344.184 559.121 350.934 558.361 357.794C556.208 377.3 554.355 397.847 552.801 419.434C551.915 431.814 550.808 455.524 549.481 490.564C549.475 490.597 549.305 492.69 548.971 496.844C548.771 499.354 548.991 502.034 548.841 505.264C547.481 533.784 546.695 559.914 546.481 583.654C546.48 583.757 546.504 583.858 546.552 583.95C546.6 584.041 546.669 584.119 546.755 584.176C546.84 584.234 546.938 584.269 547.041 584.279C547.143 584.289 547.246 584.274 547.341 584.234L663.031 536.074C663.162 536.021 663.274 535.932 663.354 535.816C663.433 535.701 663.478 535.564 663.481 535.424C664.815 502.104 665.901 478.35 666.741 464.164C667.951 443.874 670.081 420.234 672.541 396.504C674.981 372.984 676.821 351.94 678.061 333.374C678.098 332.827 678.318 332.308 678.684 331.902C679.051 331.495 679.543 331.225 680.081 331.134C683.788 330.5 687.585 331.15 691.471 333.084C691.83 333.263 692.206 333.404 692.591 333.504C708.338 337.697 723.781 343.714 738.921 351.554C739.046 351.617 739.154 351.708 739.238 351.819C739.322 351.93 739.38 352.059 739.407 352.196C739.434 352.332 739.429 352.474 739.394 352.608C739.358 352.743 739.292 352.868 739.201 352.974L738.461 353.834C738.196 354.131 738.037 354.512 738.011 354.914C737.698 358.914 737.408 363.69 737.141 369.244C736.901 374.217 736.595 378.947 736.221 383.434C732.655 426.16 730.431 456.597 729.551 474.744C728.945 487.257 728.458 498.99 728.091 509.944C728.089 509.997 728.1 510.051 728.124 510.099C728.148 510.147 728.183 510.188 728.227 510.219C728.271 510.25 728.321 510.269 728.375 510.275C728.428 510.281 728.482 510.274 728.531 510.254Z" fill="black"/>
</svg>
