<?xml version="1.0" encoding="UTF-8"?>
<svg id="Layer_1_copy" data-name="Layer 1 copy" xmlns="http://www.w3.org/2000/svg" viewBox="0 0 138.99 138.27">
  <g id="gm5Svp.tif">
    <path d="M46.8,82.24l-23.77,18.68V9.41C23.03,4.22,27.24.02,32.43.02h4.98c5.19,0,9.4,4.21,9.4,9.4v72.83Z"/>
    <path d="M92.61,47.35l-23.19,17.72V9.4c0-5.19,4.21-9.4,9.4-9.4h4.4c5.19,0,9.4,4.21,9.4,9.4v37.95Z"/>
  </g>
  <path d="M0,118.8l23.19-17.9v27.98c0,5.19-4.21,9.4-9.4,9.4h-4.4c-5.19,0-9.4-4.21-9.4-9.4v-10.08Z"/>
  <path d="M92.61,47.33l23.19-18.14v99.69c0,5.19-4.21,9.4-9.4,9.4h-4.4c-5.19,0-9.4-4.21-9.4-9.4V47.33Z"/>
  <path d="M46.8,82.24l22.69-17.17v63.8c0,5.19-4.21,9.4-9.4,9.4h-3.9c-5.19,0-9.4-4.21-9.4-9.4v-46.63Z"/>
  <path d="M138.99,10.81l-23.19,18.37V9.4c0-5.19,4.21-9.4,9.4-9.4h4.4c5.19,0,9.4,4.21,9.4,9.4v1.42Z"/>
</svg>