<svg width="956" height="646" viewBox="0 0 956 646" fill="none" xmlns="http://www.w3.org/2000/svg">
<g clip-path="url(#clip0_2209_53)">
<path d="M533.16 612.131C533.11 613.141 533.07 613.771 533.07 613.771C533.07 613.771 533.16 614.051 533.36 614.501C533.59 614.321 533.84 614.151 534.04 613.971C533.53 613.101 533.27 612.431 533.17 612.141L533.16 612.131Z" fill="black"/>
<path d="M602.742 634.061C602.742 634.331 602.762 634.581 602.782 634.811C602.892 634.771 603.002 634.741 603.112 634.711C603.112 634.711 602.982 634.471 602.742 634.071V634.061Z" fill="black"/>
<path d="M648.253 614.92H604.773C604.773 614.92 643.173 615.48 648.253 614.92Z" fill="black"/>
<path d="M557.633 615.341C557.633 615.341 557.643 615.381 557.653 615.391C565.943 612.481 573.763 609.131 573.763 609.131C573.763 609.131 565.943 612.461 557.633 615.341Z" fill="black"/>
<path d="M569.347 595.439L565.438 583.359C565.697 585.249 565.847 586.549 565.847 587.109C565.847 590.449 567.487 593.139 569.347 595.439Z" fill="black"/>
<path d="M573.77 609.1L573.75 609.14C573.75 614.08 576.17 616.51 578.19 617.69C576.66 615.73 575.49 614.43 575.49 614.43L573.77 609.1Z" fill="black"/>
<path d="M929.061 0.119141C929.061 0.119141 919.381 4.56914 918.081 10.0591L923.311 17.1191L930.901 14.3191C930.901 14.3191 936.231 16.0491 930.631 25.4891L936.961 35.7391C936.961 35.7391 937.251 35.5991 937.871 35.5091C937.571 35.5691 937.271 35.6391 936.961 35.7391L928.191 26.8491C928.191 26.8491 934.541 16.7391 930.901 14.3191L919.181 23.2091C919.181 23.2091 917.971 26.0391 925.041 34.9291C932.111 43.8191 904.631 118.599 904.631 118.599L894.931 126.679H888.871L860.171 146.079C860.171 146.079 849.261 145.679 846.831 148.509C844.401 151.339 840.361 146.489 840.361 146.489V140.019L848.851 132.339L855.721 118.189C855.721 118.189 863.801 117.789 866.631 110.909C869.461 104.029 867.031 94.3391 867.031 94.3391L872.691 76.9591C872.691 76.9591 873.501 70.4891 863.801 67.6591L860.571 55.5291C860.571 55.5291 837.131 11.8791 796.711 36.1291C796.711 36.1291 791.461 40.5791 799.141 58.7691C799.141 58.7691 789.031 55.9391 789.441 70.4891C789.441 70.4891 781.361 76.0291 793.891 92.6591C793.891 92.6591 784.191 104.439 799.951 115.759L801.571 127.079C801.571 127.079 803.191 132.739 818.551 141.229L817.341 146.079C817.341 146.079 812.091 147.039 812.491 149.389C812.891 151.739 779.751 156.589 779.751 156.589L768.031 161.839C768.031 161.839 765.621 165.379 762.341 169.959L759.621 180.319L754.361 200.379C754.361 200.379 752.451 209.079 748.031 217.579C744.601 224.189 739.651 230.669 732.911 232.829C722.001 236.339 713.711 232.689 709.791 230.249C708.661 230.949 707.481 231.649 706.231 232.349L705.951 233.379C705.951 233.379 705.481 236.709 696.871 237.219C691.531 239.019 683.091 240.969 669.891 242.279L671.291 264.489C671.421 266.479 710.981 264.239 739.881 237.639C742.141 239.419 744.751 241.119 747.821 242.679C747.821 242.679 771.671 226.109 772.071 222.869C772.071 222.869 758.731 291.989 764.391 310.989C764.391 310.989 757.521 326.749 758.331 330.389C758.331 330.389 748.551 376.259 746.691 410.759C744.831 445.259 740.161 441.989 740.161 441.989C728.041 453.179 744.361 460.639 748.081 461.569C751.811 462.499 747.611 476.949 747.611 476.949C743.881 479.279 736.891 525.429 736.891 525.429C736.891 525.429 732.691 597.219 731.301 609.799C729.901 622.389 722.441 620.519 722.441 620.519C694.471 621.919 691.671 639.169 691.671 639.169C691.671 639.169 730.831 646.629 745.281 645.699C759.731 644.769 750.411 619.129 750.411 619.129C750.411 619.129 775.581 539.879 777.451 514.709C779.311 489.539 785.371 471.819 785.371 471.819C804.481 469.489 799.351 457.839 799.351 457.839C799.351 457.839 794.691 455.039 797.491 452.709C800.291 450.379 811.471 402.829 811.471 402.829L818.931 455.499C818.931 455.499 817.531 460.159 816.131 465.289C814.731 470.419 829.651 471.819 829.651 471.819C829.651 471.819 835.241 485.799 827.791 503.979C820.331 522.159 832.451 611.189 832.451 611.189L827.791 613.989V635.899C861.821 643.819 884.191 638.699 884.191 638.699C890.721 627.049 862.281 618.659 862.281 618.659C862.281 618.659 852.021 612.129 856.691 610.739C861.361 609.349 869.281 467.629 869.281 467.629L881.871 462.499C891.191 452.239 882.341 448.519 880.631 447.579C878.921 446.639 881.871 442.919 881.871 442.919V342.379L879.381 336.369C881.941 334.759 883.701 332.789 884.441 330.389L880.321 318.669V252.549L883.631 192.959C883.631 192.959 905.861 172.349 909.501 163.049C913.141 153.749 913.541 154.559 913.141 150.119C912.741 145.669 924.051 140.419 930.931 115.759C937.801 91.0991 943.861 47.0491 941.841 44.6191C941.841 44.6191 947.091 45.0191 947.091 41.7891C947.091 38.5591 946.691 37.7491 946.691 37.7491L955.771 29.3991V25.4791L932.201 0.119141H929.061Z" fill="#E0E0E0"/>
<path d="M936.901 2.21084L952.851 18.9408C955.371 18.2108 952.851 13.7208 952.851 13.7208L943.431 5.35084V2.21084C940.031 -2.75916 936.891 2.21084 936.891 2.21084H936.901Z" fill="#E0E0E0"/>
<path d="M355.148 241.88L355.618 246.55L355.958 241.48L355.148 241.88Z" fill="#999999"/>
<path d="M502.214 45.5802C502.214 45.5802 505.194 33.3202 497.844 33.4502C502.694 33.9402 502.214 45.5802 502.214 45.5802Z" fill="#DDDDDD"/>
<path d="M490.172 56.8399L492.912 57.3499C492.912 57.3499 491.092 56.4399 490.172 56.8399Z" fill="#DDDDDD"/>
<path d="M684.562 47.3106L687.302 47.8206C687.302 47.8206 685.483 46.9106 684.562 47.3106Z" fill="black"/>
<path d="M458.523 172.751C458.613 172.711 458.683 172.681 458.773 172.641C458.623 172.701 458.523 172.751 458.523 172.751Z" fill="#C33F3F"/>
<path d="M517.961 176.251C517.821 176.021 517.681 175.791 517.531 175.551C517.531 176.101 517.681 176.321 517.961 176.251Z" fill="#C33F3F"/>
<path d="M490.784 298.259C490.234 297.469 489.754 296.779 489.344 296.189C489.804 296.849 490.304 297.559 490.784 298.259Z" fill="#C33F3F"/>
<path d="M493.533 302.201C493.263 301.821 492.893 301.271 492.453 300.641C492.793 301.131 493.163 301.661 493.533 302.201Z" fill="#C33F3F"/>
<path d="M410.719 302.189C429.139 310.709 493.949 302.819 493.949 302.819C493.949 302.819 436.419 307.069 410.719 302.189Z" fill="#DDDDDD"/>
<path d="M153.152 126.221L153.302 125.811C153.172 125.891 153.102 125.921 153.102 125.921L153.152 126.221Z" fill="#999999"/>
<path d="M372.386 617.049C368.646 613.479 372.496 642.499 380.826 639.369C380.826 639.369 398.136 643.619 429.916 634.799H403.676C403.676 634.799 411.176 623.599 424.886 619.509C421.816 617.519 418.296 616.279 414.526 616.799C414.526 616.799 407.396 615.669 407.396 607.199C407.396 607.199 376.126 620.619 372.386 617.049Z" fill="#CBCBCB"/>
<path d="M251.197 84.0198C251.197 84.0198 252.298 95.5698 259.448 103.27L256.147 109.32C256.147 109.32 255.047 115.92 256.147 118.12C257.247 120.32 259.448 126.37 264.948 125.82C264.948 125.82 265.497 139.57 271.277 143.97C274.957 146.78 278.088 150.02 282.438 152.44C282.438 152.44 284.207 157.17 277.607 159.37C271.007 161.57 256.158 162.12 256.158 162.12C256.158 162.12 241.857 162.67 188.507 196.22L189.417 199.63L180.257 201.72C180.257 201.72 176.987 198.58 171.617 187.96C169.517 191.5 166.688 193.66 166.688 193.66C172.188 194.33 186.147 215.8 186.147 215.8C211.427 222.51 206.677 230.75 206.677 230.75L223.068 237.93C226.678 237.32 230.807 236.46 235.577 235.28L234.037 259.82V267.96C233.877 268 233.698 268.02 233.518 268.04L233.057 275.43L231.408 294.68L235.577 330.98C235.577 330.98 230.307 337.58 230.307 341.98C230.307 346.38 235.577 349.13 235.577 349.13C235.577 349.13 241.948 372.84 240.818 380.18C239.688 387.52 240.947 447.38 240.947 447.38C240.947 447.38 250.978 560.89 256.628 578.96C256.628 578.96 261.148 588 256.628 595.9C256.628 595.9 261.208 598.16 258.638 601.55C258.638 601.55 251.548 616.23 256.628 616.8C256.628 616.8 234.768 625.8 226.238 635.32C226.458 635.86 226.638 636.4 226.738 636.95C227.108 638.89 225.837 640.39 223.507 641.58C224.987 642.69 230.647 643.96 250.917 642.16C282.177 639.38 298.857 640.42 299.897 639.73C300.937 639.04 302.678 638.69 301.978 633.82C301.288 628.96 300.107 616.81 300.107 616.81V603.26C300.107 603.26 294.457 595.92 296.717 594.22C298.977 592.53 300.107 593.66 300.107 588.01C300.107 582.36 297.288 581.8 297.288 575.02C297.288 568.24 302.938 402.22 302.938 402.22L345.448 541.39L362.668 589.62L367.688 612.04C368.507 613.44 369.957 615.36 372.397 617.06C376.917 620.2 407.408 607.21 407.408 607.21C407.408 607.21 409.668 602.13 407.408 598.74C405.148 595.35 399.497 591.4 399.497 585.19C399.497 582.44 396.058 562.13 392.228 540.36L367.217 413.15L367.158 413.49L352.008 342.14H351.978C356.278 340.78 360.637 339.27 365.047 337.59C365.047 337.59 371.647 335.94 360.647 296.34L355.827 248.65L354.758 249.17C354.758 249.17 355.107 248.65 355.617 246.56L355.147 241.89L355.957 241.48L355.617 246.56L412.408 254.29L411.077 239.31C410.167 231.66 408.757 223.38 406.707 220.46L405.128 219.35C399.788 219.35 368.848 193.88 368.848 193.88L367.438 184.14L359.158 193.52C359.158 193.52 362.367 189.57 367.438 184.14C362.247 178.81 355.818 172.74 349.098 167.64C349.098 167.64 310.258 162.4 304.378 153.47H304.348C310.478 151.08 315.667 147.49 316.647 146.19C318.297 143.99 322.698 128.59 322.698 128.59L328.198 126.94C328.198 126.94 332.597 123.64 333.147 119.79C333.697 115.94 334.247 111.54 333.147 107.69C332.047 103.84 329.298 102.74 329.848 99.9898C330.398 97.2398 333.788 90.6398 333.788 90.6398C333.788 90.6398 335.358 74.6898 327.098 63.1398C322.858 57.2098 322.837 55.3398 323.807 54.9298L291.348 48.8398C291.348 48.8398 257.247 52.1398 251.197 84.0398V84.0198Z" fill="#CBCBCB"/>
<path d="M524.053 36.8491C524.053 36.8491 528.903 31.9991 524.053 28.5991C519.203 25.1991 509.673 25.1991 508.613 20.3491C507.553 15.4991 504.153 16.9491 502.703 15.9791C501.253 15.0091 500.273 20.3491 500.273 20.3491L524.053 36.8491Z" fill="#DDDDDD"/>
<path d="M573.761 609.131C573.761 609.131 565.941 612.491 557.651 615.391C557.891 616.011 558.021 616.361 558.021 616.361C550.741 617.331 555.591 634.801 555.591 634.801H584.231C587.661 631.031 581.881 622.411 578.191 617.681C576.171 616.501 573.751 614.071 573.751 609.131H573.761Z" fill="#DDDDDD"/>
<path d="M569.353 595.44C567.493 593.14 565.853 590.46 565.853 587.11C565.853 586.55 565.703 585.25 565.443 583.36L555.723 553.32L554.463 557.43C554.463 557.43 545.713 573.95 544.453 581.75C550.503 596.99 556.113 611.46 557.613 615.34C565.923 612.46 573.743 609.13 573.743 609.13C573.743 609.13 573.743 609.11 573.763 609.09L569.343 595.43L569.353 595.44Z" fill="#DDDDDD"/>
<path d="M528.219 457.981C526.129 453.651 524.279 450.491 524.049 451.821C524.029 451.911 524.009 451.961 523.969 451.971C523.969 451.971 523.949 451.951 523.939 451.951C523.869 451.931 523.769 451.811 523.649 451.551C523.529 451.301 523.369 450.931 523.199 450.481C523.169 450.411 523.149 450.351 523.119 450.271C522.919 449.751 522.699 449.111 522.459 448.391C522.449 448.351 522.439 448.321 522.419 448.281C522.309 447.961 522.199 447.611 522.079 447.251C522.059 447.181 522.039 447.121 522.009 447.051C521.619 445.841 521.179 444.451 520.729 442.951C520.699 442.841 520.659 442.731 520.629 442.621C520.529 442.311 520.439 441.981 520.339 441.651C520.269 441.411 520.199 441.181 520.129 440.941C520.079 440.761 520.019 440.571 519.969 440.391C519.359 438.361 518.729 436.211 518.099 434.021C517.909 433.351 517.719 432.691 517.519 432.021C517.499 431.961 517.479 431.891 517.459 431.831C517.359 431.501 517.269 431.171 517.179 430.841C517.099 430.541 517.009 430.251 516.929 429.951C516.899 429.841 516.869 429.731 516.839 429.621C516.699 429.111 516.549 428.611 516.409 428.111C516.389 428.051 516.379 428.001 516.359 427.941C516.029 426.781 515.709 425.651 515.409 424.561C515.399 424.511 515.379 424.471 515.369 424.421C514.969 422.981 514.589 421.621 514.239 420.381C514.089 419.861 513.959 419.361 513.819 418.881C513.369 417.261 512.999 415.911 512.739 414.961C512.639 414.591 512.549 414.291 512.489 414.041C512.449 413.901 512.419 413.791 512.399 413.701C512.349 413.511 512.309 413.381 512.309 413.381C511.129 415.791 507.469 417.711 502.909 419.231C502.259 419.451 501.589 419.661 500.899 419.861C501.429 419.681 501.949 419.481 502.459 419.291C502.619 419.231 502.779 419.161 502.939 419.101C503.289 418.961 503.649 418.821 503.989 418.671C504.169 418.591 504.349 418.511 504.539 418.431C504.859 418.291 505.169 418.141 505.479 418.001C505.669 417.911 505.849 417.821 506.029 417.731C506.329 417.581 506.629 417.421 506.919 417.271C507.099 417.171 507.269 417.081 507.439 416.981C507.729 416.811 508.019 416.641 508.299 416.471C508.459 416.371 508.619 416.271 508.779 416.171C509.069 415.981 509.349 415.791 509.629 415.601C509.769 415.501 509.909 415.411 510.039 415.311C510.339 415.091 510.629 414.861 510.909 414.631C511.009 414.551 511.119 414.471 511.209 414.391C511.589 414.071 511.949 413.751 512.289 413.411C512.399 413.311 512.489 413.191 512.589 413.091C512.779 412.891 512.969 412.701 513.139 412.491C513.259 412.351 513.359 412.211 513.479 412.071C513.629 411.881 513.779 411.701 513.919 411.511C514.029 411.361 514.119 411.211 514.219 411.061C514.349 410.871 514.479 410.671 514.589 410.471C514.679 410.321 514.769 410.161 514.849 410.001C514.959 409.791 515.059 409.591 515.159 409.381C515.229 409.221 515.309 409.061 515.369 408.901C515.459 408.681 515.549 408.451 515.629 408.211C515.679 408.051 515.739 407.901 515.789 407.741C515.869 407.481 515.929 407.211 515.989 406.941C516.019 406.801 516.059 406.671 516.089 406.531C516.169 406.121 516.229 405.691 516.259 405.261C517.719 387.301 509.469 325.181 493.929 302.851C493.929 302.851 429.119 310.741 410.699 302.221C410.699 302.221 392.539 370.801 405.619 410.111C405.619 410.111 411.299 417.431 426.229 420.501C421.799 419.891 417.759 418.781 415.089 416.871L436.169 601.341C436.169 601.341 439.839 615.421 425.629 619.301C425.369 619.371 425.119 619.471 424.859 619.541C411.149 623.631 403.649 634.831 403.649 634.831H438.109L446.849 629.011V634.831H458.649L451.699 614.451L451.379 420.391C453.149 419.991 455.039 419.491 457.039 418.851C457.039 418.851 474.029 420.311 475.969 424.191L493.929 460.111L516.919 515.901C520.159 497.811 522.819 483.301 522.819 483.301L528.189 458.021L528.219 457.981Z" fill="#DDDDDD"/>
<path d="M523.967 451.969C523.967 451.969 523.947 451.949 523.938 451.949C523.938 451.949 523.957 451.979 523.967 451.969Z" fill="#DDDDDD"/>
<path d="M514.232 420.381C514.082 419.861 513.953 419.361 513.812 418.881C513.942 419.361 514.082 419.861 514.232 420.381Z" fill="#DDDDDD"/>
<path d="M512.727 414.959C512.627 414.589 512.537 414.279 512.477 414.039C512.547 414.279 512.627 414.589 512.727 414.959Z" fill="#DDDDDD"/>
<path d="M522.007 447.049C521.617 445.839 521.177 444.449 520.727 442.949C521.187 444.449 521.617 445.839 522.007 447.049Z" fill="#DDDDDD"/>
<path d="M520.618 442.62C520.518 442.31 520.428 441.98 520.328 441.65C520.428 441.97 520.528 442.3 520.618 442.62Z" fill="#DDDDDD"/>
<path d="M517.46 431.84C517.36 431.51 517.27 431.18 517.18 430.85C517.27 431.18 517.37 431.51 517.46 431.84Z" fill="#DDDDDD"/>
<path d="M518.088 434.029C517.898 433.359 517.708 432.699 517.508 432.029C517.698 432.699 517.888 433.359 518.088 434.029Z" fill="#DDDDDD"/>
<path d="M523.121 450.28C522.921 449.76 522.701 449.12 522.461 448.4C522.701 449.12 522.931 449.76 523.121 450.28Z" fill="#DDDDDD"/>
<path d="M515.392 424.57C515.392 424.57 515.362 424.48 515.352 424.43C515.362 424.48 515.382 424.52 515.392 424.57Z" fill="#DDDDDD"/>
<path d="M514.867 409.979C514.977 409.769 515.077 409.569 515.177 409.359C515.077 409.569 514.977 409.779 514.867 409.979Z" fill="#DDDDDD"/>
<path d="M514.227 411.039C514.357 410.849 514.477 410.649 514.597 410.449C514.477 410.649 514.357 410.839 514.227 411.039Z" fill="#DDDDDD"/>
<path d="M515.391 408.879C515.481 408.659 515.571 408.429 515.651 408.189C515.571 408.419 515.491 408.649 515.391 408.879Z" fill="#DDDDDD"/>
<path d="M513.492 412.04C513.642 411.85 513.792 411.67 513.932 411.48C513.792 411.67 513.642 411.86 513.492 412.04Z" fill="#DDDDDD"/>
<path d="M512.602 413.061C512.792 412.861 512.982 412.671 513.152 412.461C512.972 412.661 512.782 412.861 512.602 413.061Z" fill="#DDDDDD"/>
<path d="M516.109 406.5C516.189 406.09 516.249 405.66 516.279 405.23C516.239 405.66 516.179 406.09 516.109 406.5Z" fill="#DDDDDD"/>
<path d="M503.977 418.66C504.157 418.58 504.337 418.5 504.527 418.42C504.347 418.5 504.167 418.58 503.977 418.66Z" fill="#DDDDDD"/>
<path d="M506.906 417.251C507.086 417.151 507.256 417.061 507.426 416.961C507.256 417.061 507.076 417.151 506.906 417.251Z" fill="#DDDDDD"/>
<path d="M509.617 415.579C509.757 415.479 509.897 415.389 510.027 415.289C509.887 415.389 509.747 415.479 509.617 415.579Z" fill="#DDDDDD"/>
<path d="M510.906 414.609C511.006 414.529 511.116 414.449 511.206 414.369C511.106 414.449 511.006 414.529 510.906 414.609Z" fill="#DDDDDD"/>
<path d="M502.212 45.5798L521.533 56.4498L529.672 43.3098L527.653 40.1398L494.573 17.2598H491.622L482.562 31.3098V33.4498L493.663 39.2398L497.842 33.4498C505.192 33.3298 502.212 45.5798 502.212 45.5798Z" fill="#DDDDDD"/>
<path d="M405.138 219.339C405.698 219.339 406.228 219.749 406.718 220.449C408.768 223.369 410.178 231.649 411.088 239.299C412.018 247.129 412.418 254.279 412.418 254.279C410.958 253.789 416.298 276.609 409.018 281.459C401.738 286.309 406.108 297.919 406.108 297.919C406.668 299.659 408.298 301.059 410.728 302.189C436.428 307.069 493.958 302.819 493.958 302.819C493.958 302.819 493.918 302.759 493.858 302.679C493.738 302.509 493.638 302.369 493.528 302.209C493.148 301.669 492.778 301.139 492.448 300.649C492.288 300.419 492.148 300.219 491.998 300.009C491.618 299.459 491.208 298.869 490.788 298.269C490.298 297.569 489.808 296.859 489.348 296.199C488.828 295.449 488.358 294.769 487.968 294.219C487.858 294.059 487.748 293.899 487.658 293.779C487.578 293.669 487.508 293.569 487.448 293.469C487.368 293.349 487.308 293.259 487.248 293.179C487.298 293.259 487.368 293.349 487.448 293.469C487.508 293.559 487.588 293.659 487.658 293.779C487.748 293.909 487.858 294.059 487.968 294.219C488.308 294.719 488.768 295.359 489.348 296.199C489.758 296.789 490.248 297.489 490.788 298.269C491.208 298.869 491.618 299.459 491.998 300.009C492.148 300.219 492.288 300.429 492.448 300.649C492.888 301.279 493.268 301.819 493.528 302.209C493.638 302.369 493.738 302.519 493.858 302.679C493.898 302.729 493.918 302.769 493.958 302.819C499.778 295.539 495.898 283.409 495.898 283.409C491.048 263.999 491.528 256.229 491.528 256.229C491.528 256.229 492.758 250.909 494.668 244.609C496.828 237.469 497.548 230.429 495.848 224.479C500.958 217.519 505.068 211.209 509.058 206.209C520.878 187.259 519.678 180.019 519.678 180.019C519.288 178.729 518.688 177.469 517.958 176.239C517.678 176.309 517.518 176.099 517.528 175.539C515.518 172.429 512.628 169.589 509.698 167.179C513.848 170.269 517.548 173.569 517.528 175.529C517.678 175.759 517.818 175.989 517.958 176.229C519.938 175.719 528.108 160.729 529.378 147.969C530.838 133.409 526.468 79.0495 517.728 62.5495C517.728 62.5495 520.158 63.5195 522.578 58.6695L508.598 50.4195L502.198 45.5695C502.198 45.5695 502.688 33.9195 497.828 33.4395C497.828 33.4395 496.768 39.7495 489.288 45.5695C481.808 51.3895 500.738 58.6695 500.738 58.6695C500.738 58.6695 505.108 97.9795 503.168 104.289C501.228 110.599 503.168 143.119 506.078 141.659C506.078 141.659 503.648 159.129 498.308 159.619C488.118 175.639 475.498 183.289 475.498 183.289C460.448 171.519 459.968 180.009 458.508 178.069C457.048 176.129 458.508 172.729 458.508 172.729C458.508 172.729 463.848 164.959 472.588 167.389C472.588 167.389 475.018 166.899 476.958 163.989C476.958 163.989 478.898 165.449 483.748 163.019C488.598 160.589 489.088 154.769 489.088 154.769C489.088 154.769 491.518 141.669 479.378 124.189C479.378 124.189 485.688 118.369 481.808 107.689C477.928 97.0095 467.728 97.9795 467.728 97.9795C467.728 97.9795 465.938 87.7895 444.268 86.8195C444.268 86.8195 396.378 94.0995 411.918 134.379C411.918 134.379 412.408 141.169 406.578 151.849C406.578 151.849 396.868 174.659 439.578 172.719C439.578 172.719 439.598 172.719 439.638 172.719C439.698 172.719 439.748 172.719 439.808 172.719C439.868 172.719 439.938 172.719 440.028 172.719C440.138 172.719 440.248 172.719 440.358 172.709C440.708 172.689 441.158 172.669 441.698 172.649C441.738 172.649 441.778 172.649 441.818 172.649C442.388 172.619 443.048 172.589 443.768 172.559C443.838 172.559 443.918 172.559 443.988 172.549C444.598 172.519 445.258 172.489 445.928 172.459C446.838 172.419 447.688 172.379 448.478 172.339C448.968 172.319 449.468 172.299 449.958 172.269C450.418 172.249 450.868 172.229 451.288 172.209C452.508 172.149 453.548 172.109 454.438 172.069C454.478 172.069 454.518 172.069 454.558 172.069C455.078 172.049 455.568 172.019 456.008 171.999C456.038 171.999 456.068 171.999 456.088 171.999C456.268 171.999 456.438 171.979 456.598 171.979C456.878 171.969 457.128 171.959 457.338 171.949C457.538 171.949 457.718 171.929 457.868 171.929C458.078 171.929 458.248 171.909 458.358 171.909C458.448 171.909 458.518 171.909 458.548 171.909C458.518 171.909 458.458 171.909 458.358 171.909C458.248 171.909 458.088 171.919 457.868 171.929C457.718 171.929 457.538 171.949 457.338 171.949C457.118 171.949 456.878 171.969 456.598 171.979C456.438 171.979 456.268 171.999 456.088 171.999C456.058 171.999 456.038 171.999 456.008 171.999C455.588 172.019 455.108 172.039 454.558 172.069C454.518 172.069 454.478 172.069 454.438 172.069C453.478 172.109 452.408 172.159 451.288 172.209C450.868 172.229 450.418 172.249 449.958 172.269C449.468 172.289 448.968 172.309 448.478 172.339C447.688 172.379 446.828 172.409 445.928 172.459C445.248 172.489 444.598 172.519 443.988 172.549C443.918 172.549 443.838 172.549 443.768 172.559C443.138 172.589 442.498 172.619 441.818 172.649C441.778 172.649 441.738 172.649 441.698 172.649C441.268 172.669 440.808 172.689 440.358 172.709C440.248 172.709 440.138 172.709 440.028 172.719C439.938 172.719 439.868 172.719 439.808 172.719C439.748 172.719 439.698 172.719 439.638 172.719C439.608 172.719 439.578 172.719 439.578 172.719V178.059C436.178 177.569 430.838 180.489 430.838 180.489C430.838 180.489 427.428 185.759 427.428 184.749C427.428 183.739 407.228 181.719 400.148 184.749C393.078 187.779 368.828 193.839 368.828 193.839C368.828 193.839 399.768 219.309 405.108 219.309L405.138 219.339Z" fill="#DDDDDD"/>
<path d="M440.367 172.71C440.817 172.69 441.277 172.67 441.707 172.65C441.167 172.67 440.717 172.7 440.367 172.71Z" fill="#DDDDDD"/>
<path d="M454.578 172.07C455.118 172.05 455.598 172.02 456.028 172C455.588 172.02 455.098 172.04 454.578 172.07Z" fill="#DDDDDD"/>
<path d="M441.828 172.641C442.498 172.611 443.148 172.581 443.778 172.551C443.058 172.581 442.398 172.611 441.828 172.641Z" fill="#DDDDDD"/>
<path d="M489.341 296.179C488.761 295.349 488.311 294.699 487.961 294.199C488.341 294.749 488.821 295.429 489.341 296.179Z" fill="#DDDDDD"/>
<path d="M493.959 302.82C493.919 302.77 493.889 302.73 493.859 302.68C493.919 302.77 493.959 302.82 493.959 302.82Z" fill="#DDDDDD"/>
<path d="M604.771 614.92C604.771 614.92 603.591 627.07 602.901 631.93C602.781 632.77 602.741 633.46 602.751 634.06C602.991 634.47 603.121 634.7 603.121 634.7C603.011 634.74 602.901 634.77 602.791 634.8C603.031 636.98 604.211 637.31 604.991 637.83C606.031 638.52 622.711 637.48 653.971 640.26C685.231 643.04 681.761 638.52 681.761 638.52C678.631 627.4 648.261 614.91 648.261 614.91C643.181 615.47 604.781 614.91 604.781 614.91L604.771 614.92Z" fill="#A3A2A2"/>
<path d="M497.469 605.32C497.469 613.79 490.339 614.92 490.339 614.92C477.829 613.19 468.109 630.89 468.109 630.89C504.239 642.35 524.039 637.49 524.039 637.49C532.379 640.62 536.229 611.6 532.479 615.17C528.739 618.74 497.469 605.32 497.469 605.32Z" fill="#A3A2A2"/>
<path d="M787.338 111.289L781.838 100.839L777.987 94.7891L771.938 96.4391L786.787 120.089C792.287 118.439 787.338 111.289 787.338 111.289Z" fill="#A3A2A2"/>
<path d="M669.867 242.29L669.307 233.39C682.927 236.77 691.477 237.55 696.847 237.23C703.907 234.85 705.547 232.74 705.547 232.74C705.777 232.61 705.987 232.49 706.207 232.36L707.247 228.46C707.247 228.46 708.137 229.26 709.757 230.26C721.197 223.19 726.457 216.67 727.147 217.02C726.037 210.62 727.167 205.9 727.167 205.9L744.947 190.54C747.547 190.02 756.357 178.27 762.297 169.96L769.177 143.73L774.127 142.63L777.427 136.58H770.277C770.277 136.58 788.697 127.21 789.367 126.94C788.607 127.23 766.877 88.8997 766.877 88.8997H762.577L748.927 100.38L754.907 110.18H762.577C762.577 110.18 764.777 111.83 762.577 122.28V110.18C762.577 110.18 753.777 112.38 751.027 112.93C748.277 113.48 749.377 117.88 749.377 117.88L753.777 129.98C751.627 137.51 749.547 144.24 747.547 150.29C743.027 163.96 738.937 174.05 735.517 181.42C728.827 195.8 724.637 199.83 724.637 199.83H716.387L707.257 228.45L716.387 194.33C663.037 160.78 648.737 160.23 648.737 160.23C648.737 160.23 633.887 159.68 627.287 157.48C620.687 155.28 622.457 150.55 622.457 150.55C626.807 148.13 629.937 144.88 633.617 142.08C639.397 137.68 639.947 123.93 639.947 123.93C645.447 124.48 647.647 118.43 648.747 116.23C649.847 114.03 648.747 107.43 648.747 107.43L645.447 101.38C652.597 93.6797 653.697 82.1297 653.697 82.1297C647.647 50.2297 613.547 46.9297 613.547 46.9297L581.087 53.0197C582.057 53.4297 582.037 55.2997 577.797 61.2297C569.547 72.7797 571.107 88.7297 571.107 88.7297C571.107 88.7297 574.497 95.3297 575.047 98.0797C575.597 100.83 572.847 101.93 571.747 105.78C570.647 109.63 571.197 114.03 571.747 117.88C572.297 121.73 576.697 125.03 576.697 125.03L582.197 126.68C582.197 126.68 586.597 142.08 588.247 144.28C589.217 145.58 594.417 149.17 600.547 151.56H600.517C594.637 160.49 555.797 165.73 555.797 165.73C547.397 172.1 539.457 180 533.817 186.05C528.747 191.49 525.537 195.43 525.537 195.43L509.077 206.19C505.887 211.31 501.767 217.27 496.397 224.18C498.717 229.63 497.317 238.03 495.447 244.87C493.707 251.22 491.547 256.21 491.547 256.21C491.547 256.21 513.267 251.17 521.357 250.61C521.607 250.66 521.827 250.66 522.037 250.65L522.207 250.57L523.277 250.05L532.887 245.38L533.787 244.94L544.237 237.24L547.347 238.8L549.737 239.99L548.747 249.8C549.517 254.01 550.127 254.91 550.127 254.91L548.327 254.03L544.247 294.44C533.247 334.04 539.847 335.69 539.847 335.69C544.257 337.36 548.617 338.87 552.917 340.23H552.887L535.237 423.39L536.457 429.15L535.197 425.2L528.237 457.98L522.867 483.26C522.867 483.26 520.207 497.78 516.967 515.86C515.367 524.77 513.627 534.55 511.997 543.89L511.817 543.31C508.347 563.17 505.397 580.75 505.397 583.29C505.397 589.5 499.747 593.45 497.487 596.84C495.227 600.23 497.487 605.31 497.487 605.31C497.487 605.31 527.977 618.3 532.497 615.16C532.817 614.94 533.077 614.71 533.357 614.49C533.167 614.04 533.067 613.76 533.067 613.76C533.067 613.76 533.117 613.13 533.157 612.12C533.117 612.01 533.097 611.95 533.097 611.95C533.097 611.95 533.187 610.81 533.237 609.15C533.227 610.3 533.187 611.32 533.157 612.12C533.257 612.42 533.527 613.08 534.027 613.95C533.817 614.13 533.567 614.31 533.347 614.48C533.497 614.82 533.697 615.24 533.997 615.76C537.237 612.92 538.097 609.94 538.097 609.94C538.097 609.94 536.967 595.26 540.357 594.13C543.747 593 544.307 590.18 544.307 583.4C544.307 582.91 544.367 582.35 544.467 581.74C545.727 573.94 554.477 557.42 554.477 557.42L555.737 553.31L558.557 544.08C557.827 539.91 557.187 535.54 556.627 531.12C557.287 534.83 557.947 538.57 558.597 542.27L601.957 400.32C601.957 400.32 607.607 566.35 607.607 573.12C607.607 579.89 604.787 580.46 604.787 586.11C604.787 591.76 605.917 590.63 608.177 592.32C610.437 594.01 604.787 601.36 604.787 601.36V614.91H648.267C653.347 614.35 646.257 599.66 646.257 599.66C643.687 596.27 648.267 594.01 648.267 594.01C643.747 586.1 648.267 577.07 648.267 577.07C653.917 559 663.947 445.49 663.947 445.49C663.947 445.49 665.207 385.63 664.077 378.29C662.947 370.95 669.317 347.24 669.317 347.24C669.317 347.24 674.587 344.49 674.587 340.09C674.587 335.69 669.317 329.09 669.317 329.09L673.487 292.79L671.837 273.54L671.267 264.5C671.127 262.19 668.407 242.43 669.867 242.29Z" fill="#A3A2A2"/>
<path d="M696.852 237.239C705.462 236.729 705.932 233.399 705.932 233.399L706.212 232.369C705.992 232.499 705.782 232.619 705.552 232.749C705.552 232.749 703.912 234.859 696.852 237.239Z" fill="#A3A2A2"/>
<path d="M744.963 190.55L727.183 205.91C727.183 205.91 726.053 210.63 727.163 217.03C726.473 216.68 721.213 223.21 709.773 230.27C713.693 232.7 721.983 236.35 732.893 232.85C739.633 230.68 744.583 224.2 748.013 217.6C752.433 209.1 754.343 200.4 754.343 200.4L759.603 180.34L762.323 169.98C756.383 178.28 747.573 190.04 744.973 190.56L744.963 190.55Z" fill="#A3A2A2"/>
<path d="M669.872 242.289C668.402 242.429 671.122 262.199 671.272 264.499L669.872 242.289Z" fill="#A3A2A2"/>
<path d="M496.38 240.209C495.79 241.589 495.68 243.049 495.43 244.879C497.31 238.039 498.7 229.639 496.38 224.189C496.38 224.189 497.84 236.809 496.38 240.209Z" fill="#A3A2A2"/>
<path d="M523.263 250.049C522.933 250.359 522.583 250.559 522.193 250.569L522.023 250.649C522.873 250.579 523.273 250.039 523.273 250.039L523.263 250.049Z" fill="#A3A2A2"/>
<path d="M550.107 254.911C550.107 254.911 549.497 254.011 548.727 249.801L548.297 254.031L550.097 254.911H550.107Z" fill="#A3A2A2"/>
<path d="M522.188 250.581C522.577 250.571 522.928 250.371 523.258 250.061L522.188 250.581Z" fill="#A3A2A2"/>
<path d="M509.063 206.211L496.383 224.191C501.743 217.281 505.873 211.321 509.063 206.211Z" fill="#A3A2A2"/>
<path d="M494.671 244.611C492.761 250.911 491.531 256.231 491.531 256.231C491.531 256.231 493.691 251.231 495.431 244.891C495.681 243.061 495.791 241.601 496.381 240.221C497.841 236.821 496.381 224.201 496.381 224.201L509.061 206.221C505.071 211.221 500.961 217.531 495.851 224.491C497.551 230.441 496.841 237.481 494.671 244.621V244.611Z" fill="#A3A2A2"/>
<path d="M171.614 187.961C174.474 183.141 175.954 175.771 167.004 167.841C167.004 167.841 176.054 152.411 156.984 149.391L153.154 126.211L151.094 131.861C159.214 160.291 166.404 177.641 171.614 187.951V187.961Z" fill="#999999"/>
<path d="M234.028 267.97V259.83L233.508 268.05C233.688 268.03 233.868 268.01 234.028 267.97Z" fill="#CBCBCB"/>
<path d="M226.734 636.95C226.624 636.4 226.454 635.86 226.234 635.32C224.714 637.02 223.604 638.73 223.134 640.42C223.134 640.42 222.714 640.98 223.514 641.58C225.844 640.4 227.114 638.89 226.744 636.95H226.734Z" fill="#CBCBCB"/>
<path d="M153.84 114.819C151.09 114.269 142.29 112.069 142.29 112.069H149.96L155.94 102.269L142.29 90.7891H137.99C137.99 90.7891 116.27 129.119 115.5 128.829C116.17 129.099 134.59 138.469 134.59 138.469H127.44L130.74 144.519L135.69 145.619L150.54 202.269C150.54 202.269 156.59 229.769 171.99 234.719C187.39 239.669 197.62 230.339 197.62 230.339L198.94 235.269C198.94 235.269 199.85 241.849 223.06 237.919L206.67 230.739C206.67 230.739 211.42 222.499 186.14 215.789C186.14 215.789 172.18 194.329 166.68 193.649C166.68 193.649 169.51 191.479 171.61 187.949C166.4 177.639 159.22 160.289 151.09 131.859L153.15 126.209L153.1 125.909C153.1 125.909 153.17 125.869 153.3 125.799L155.49 119.769C155.49 119.769 156.59 115.369 153.84 114.819Z" fill="#999999"/>
<path d="M122.541 76.8691C122.541 76.8691 74.8408 77.1991 80.4908 115.289C80.9708 118.519 81.3808 121.229 81.7208 123.519L77.9808 142.639C77.9808 142.639 73.2708 143.289 71.0808 144.919C68.8808 146.549 65.1208 148.829 71.0808 161.519C71.0808 161.519 54.4508 173.239 72.9608 187.889L40.9508 220.449L30.2808 152.079C30.2808 152.079 37.5008 144.269 37.8108 139.709C38.1208 135.149 36.2408 134.649 34.6708 133.199C32.8808 131.539 27.1408 129.619 27.1408 129.619C27.1408 129.619 24.0008 126.689 27.1408 139.389L13.3308 153.389L7.05079 151.109C7.05079 151.109 6.11079 157.619 13.9508 158.919C13.9508 158.919 13.9508 237.049 17.0908 239.979C20.2308 242.909 23.0508 260.159 50.3508 248.119C50.3508 248.119 54.7408 246.799 57.8808 252.339C57.8808 252.339 67.2108 243.889 68.0408 246.159C68.8708 248.429 68.0408 269.929 68.0408 269.929C68.0408 269.929 67.6108 278.389 60.7108 293.699C60.7108 293.699 56.9408 301.509 69.8108 311.609C69.8108 311.609 48.5808 368.269 77.1608 498.199C77.1608 498.199 92.3608 574.519 91.1408 601.009C91.1408 601.009 93.5708 606.059 97.2208 607.949L96.6108 621.199C96.6108 621.199 82.0208 623.719 84.4508 638.229C84.4508 638.229 83.8408 648.319 128.231 638.229L123.371 630.029C123.371 630.029 114.861 614.259 117.291 609.849C119.721 605.429 123.371 605.429 123.371 605.429C123.371 605.429 129.451 595.969 119.111 587.769C119.111 587.769 123.971 580.829 123.371 577.049C122.761 573.269 117.901 549.929 117.901 549.929C117.901 549.929 125.201 491.899 122.761 413.059L144.651 500.099C144.651 500.099 161.671 583.989 162.281 592.189L167.141 598.499C167.141 598.499 176.261 632.559 173.831 635.709C173.831 635.709 164.711 636.969 167.751 639.489C170.791 642.009 169.571 645.799 180.521 645.799C189.231 645.799 214.461 646.189 223.501 641.589C222.701 640.989 223.121 640.429 223.121 640.429C223.591 638.749 224.701 637.029 226.221 635.329C222.611 626.579 204.451 619.339 198.151 619.929C191.461 620.559 190.851 595.329 190.851 595.329C190.851 595.329 195.711 594.699 195.111 590.279C194.501 585.859 186.131 496.929 186.131 496.929L182.951 411.149C182.951 411.149 173.221 312.119 164.101 312.119C164.101 312.119 170.791 310.229 172.001 305.809C173.221 301.389 167.741 290.039 165.921 290.039C164.101 290.039 158.621 247.149 165.921 246.519C173.221 245.889 177.151 257.869 186.121 257.239C195.101 256.609 196.921 253.459 196.921 253.459C196.921 253.459 224.931 269.189 233.491 268.049L234.011 259.829V242.739L223.041 237.939C199.841 241.869 198.921 235.289 198.921 235.289L197.601 230.359C197.601 230.359 187.371 239.689 171.971 234.739C156.571 229.789 150.521 202.289 150.521 202.289L135.671 145.639L130.721 144.539L127.421 138.489H134.571C134.571 138.489 116.151 129.119 115.481 128.849C116.241 129.139 137.971 90.8091 137.971 90.8091H142.271L155.921 102.289L149.941 112.089H142.271C142.271 112.089 151.071 114.289 153.821 114.839C156.571 115.389 155.471 119.789 155.471 119.789L153.281 125.819C154.161 125.299 157.651 122.949 157.931 118.549C158.251 113.519 164.401 86.8491 135.301 76.8791L129.061 78.9791L122.521 76.8791L122.541 76.8691Z" fill="#999999"/>
<path d="M25.89 139.288C23.26 127.838 26.55 126.608 26.55 126.608L33.65 131.448L41.27 123.608L29.7 111.068H26.81L0 139.428V140.928C1.97 146.108 12.88 151.838 12.88 151.838L25.89 139.298V139.288Z" fill="#999999"/>
<path d="M19.1981 112.569C19.1981 112.569 15.9181 110.959 14.3181 117.699C14.3181 117.699 4.96813 123.539 1.57812 132.289L2.38813 134.919L23.1281 113.849L19.1981 112.569Z" fill="#999999"/>
<path d="M516.953 515.87L528.223 457.98L554.473 557.43L544.463 581.75L516.953 515.87Z" fill="#DDDDDD"/>
</g>
<defs>
<clipPath id="clip0_2209_53">
<rect width="955.73" height="645.79" fill="white"/>
</clipPath>
</defs>
</svg>
