<?xml version="1.0" encoding="UTF-8"?>
<svg id="_3" data-name="3" xmlns="http://www.w3.org/2000/svg" viewBox="0 0 1007.21 680.5">
  <defs>
    <style>
      .cls-1 {
        fill: none;
      }

      .cls-2 {
        fill: #eae6f3;
      }

      .cls-3 {
        fill: #ee3e92;
      }

      .cls-4 {
        fill: #cdc6e3;
      }

      .cls-5 {
        fill: #e5cbe2;
      }

      .cls-6 {
        fill: #becbe8;
      }

      .cls-7 {
        fill: #b2a6d1;
      }
    </style>
  </defs>
  <path class="cls-1" d="M550.14,264.06c-.21.02-.45,0-.72-.05-.14.37-.22.49-.22.49l.94-.46v.02Z"/>
  <path class="cls-1" d="M537.52,437.55c.32-.24.62-.48.92-.72-.3.24-.61.48-.92.72Z"/>
  <path class="cls-1" d="M538.75,436.58c.4-.33.78-.69,1.13-1.04-.37.35-.73.7-1.13,1.04Z"/>
  <path class="cls-1" d="M551.38,474.64s-.05-.13-.08-.22c.03.08.06.14.08.22Z"/>
  <path class="cls-1" d="M544.17,450.89c-.35-1.21-.69-2.41-1-3.57.32,1.15.65,2.34,1,3.57Z"/>
  <path class="cls-1" d="M550.2,471.23s-.05-.14-.06-.21c.03.08.05.14.06.21Z"/>
  <path class="cls-1" d="M550.6,472.44s-.03-.08-.05-.11c0,.05.03.08.05.11Z"/>
  <path class="cls-1" d="M246.64,273.71l1.63-25.86c-5.02,1.24-9.38,2.15-13.19,2.79l11.56,5.05v18.02Z"/>
  <path class="cls-1" d="M552.29,476.06c-.02.1-.05.14-.08.16.03,0,.06-.06.08-.16Z"/>
  <path class="cls-1" d="M207.55,267s-1.93,3.32-11.39,3.99c-9.46.67-13.6-11.96-21.29-11.31-7.69.65-1.93,45.86,0,45.86s7.69,11.96,6.41,16.62-8.32,6.65-8.32,6.65c9.62,0,19.87,104.37,19.87,104.37l3.35,90.4s8.82,93.73,9.46,98.39c.64,4.66-4.48,5.31-4.48,5.31,0,0,.64,26.58,7.69,25.93,6.63-.62,25.78,7,29.58,16.23,8.99-10.03,32.04-19.52,32.04-19.52-5.36-.59,2.12-16.07,2.12-16.07,2.71-3.57-2.12-5.95-2.12-5.95,4.77-8.34,0-17.86,0-17.86-5.95-19.04-16.52-138.67-16.52-138.67,0,0-1.34-63.08-.14-70.82s-5.52-32.72-5.52-32.72c0,0-5.57-2.9-5.57-7.54s5.57-11.59,5.57-11.59l-4.4-38.25,1.74-20.28.49-7.78c-9.03,1.21-38.54-15.37-38.54-15.37h-.02Z"/>
  <path class="cls-1" d="M543.12,447.19c-.43-1.51-.83-2.95-1.2-4.26.37,1.31.77,2.74,1.2,4.26Z"/>
  <path class="cls-1" d="M536.18,438.46c.3-.19.61-.4.89-.61-.29.21-.59.41-.89.61Z"/>
  <path class="cls-1" d="M542.32,432.45c.1-.16.19-.33.27-.49-.1.16-.18.33-.27.49Z"/>
  <path class="cls-1" d="M542.93,431.3c.08-.16.16-.33.22-.51-.06.18-.14.33-.22.51Z"/>
  <path class="cls-1" d="M545.03,453.95c-.1-.32-.18-.62-.27-.92.1.3.18.62.27.92Z"/>
  <path class="cls-1" d="M534.76,439.31c.3-.18.61-.35.91-.54-.3.18-.61.37-.91.54Z"/>
  <path class="cls-1" d="M547.97,464.01c-.64-2.14-1.31-4.4-1.96-6.71.67,2.3,1.32,4.58,1.96,6.71Z"/>
  <path class="cls-1" d="M543.82,428.74c.03-.14.08-.29.1-.43-.03.14-.06.29-.1.43Z"/>
  <path class="cls-1" d="M545.4,455.19s-.03-.13-.06-.21c.02.06.03.13.06.21Z"/>
  <path class="cls-1" d="M540.22,435.19c-.11.11-.21.22-.32.33.11-.11.21-.22.32-.33Z"/>
  <path class="cls-1" d="M544.67,452.66c-.16-.53-.3-1.07-.45-1.59.14.53.3,1.05.45,1.59Z"/>
  <path class="cls-1" d="M551.86,475.76c.13.27.24.4.3.41-.08-.02-.18-.16-.3-.41Z"/>
  <path class="cls-1" d="M541.62,433.54c.11-.16.22-.32.32-.46-.11.16-.21.32-.32.46Z"/>
  <path class="cls-1" d="M548.78,466.7c-.03-.11-.06-.22-.11-.35.03.13.06.22.11.35Z"/>
  <path class="cls-1" d="M548.37,465.33c-.08-.26-.14-.49-.22-.75.08.26.14.49.22.75Z"/>
  <path class="cls-1" d="M540.81,434.57c.13-.14.24-.29.35-.43-.11.14-.22.29-.35.43Z"/>
  <path class="cls-1" d="M530.03,441.56c.37-.14.75-.3,1.1-.46-.37.16-.73.3-1.1.46Z"/>
  <path class="cls-1" d="M540.09,436.23c-.03-.14-.06-.26-.1-.35.03.1.06.22.1.35Z"/>
  <path class="cls-1" d="M600.03,627.41l-4.11-12.72c.27,1.99.43,3.36.43,3.95,0,3.52,1.72,6.35,3.68,8.77Z"/>
  <path class="cls-1" d="M588.68,571.39c-.69-3.91-1.39-7.85-2.07-11.75.59,4.66,1.26,9.26,2.04,13.65l-2.97,9.73,10.24,31.65c-1.07-7.75-4.02-25.04-7.22-43.29l-.02.02Z"/>
  <path class="cls-1" d="M604.67,632.91c-1.1-1.64-2.95-3.43-4.64-5.5l4.66,14.4c.16-.38,2.26-5.45-.02-8.88v-.02Z"/>
  <path class="cls-1" d="M529.98,441.7c-.69.22-1.39.45-2.12.65.72-.21,1.44-.43,2.12-.65Z"/>
  <path class="cls-1" d="M527.88,442.37c.56-.19,1.1-.4,1.64-.61-.54.21-1.08.41-1.64.61Z"/>
  <path class="cls-1" d="M541.49,441.33c-.48-1.71-.86-3.13-1.15-4.13.27,1,.67,2.42,1.15,4.13Z"/>
  <path class="cls-1" d="M531.7,440.86c.33-.14.67-.3.99-.46-.33.16-.65.3-.99.46Z"/>
  <path class="cls-1" d="M533.28,440.11c.32-.16.64-.32.94-.49-.3.16-.62.33-.94.49Z"/>
  <path class="cls-1" d="M543.44,430.08c.06-.16.11-.33.18-.49-.05.18-.11.33-.18.49Z"/>
  <path class="cls-1" d="M434.64,267.87s-.41-7.54-1.4-15.79l1.4,15.79Z"/>
  <path class="cls-1" d="M426.97,231.05h0l1.66,1.16c-.51-.73-1.07-1.16-1.66-1.16Z"/>
  <polygon class="cls-4" points="374.28 254.8 374.78 259.73 375.14 254.37 374.28 254.8"/>
  <path class="cls-1" d="M387.23,193.93c-5.34,5.72-8.72,9.89-8.72,9.89l8.72-9.89Z"/>
  <path class="cls-1" d="M427.99,313.86s-4.61-12.23,3.06-17.35c7.67-5.12,2.04-29.15,3.59-28.64l-59.85-8.15c-.53,2.2-.91,2.76-.91,2.76l1.13-.54,5.07,50.26c11.59,41.73,4.64,43.47,4.64,43.47-4.64,1.77-9.23,3.35-13.78,4.78h.03l15.96,75.2.06-.37,26.36,134.07c4.03,22.95,7.65,44.35,7.65,47.25,0,6.55,5.95,10.72,8.34,14.29,2.38,3.57,0,8.93,0,8.93,0,8.93,7.51,10.11,7.51,10.11,3.97-.54,7.67.77,10.91,2.85.27-.08.53-.18.81-.26,14.97-4.1,11.11-18.93,11.11-18.93l-22.21-194.41c2.81,2.01,7.06,3.17,11.74,3.83-15.72-3.22-21.72-10.94-21.72-10.94-13.79-41.43,5.36-113.71,5.36-113.71-2.55-1.18-4.27-2.66-4.86-4.5l-.02-.02Z"/>
  <path class="cls-1" d="M539.9,435.55h0c-.37.35-.73.7-1.13,1.04-.11.1-.21.18-.32.26-.3.24-.61.48-.92.72-.14.11-.29.21-.43.3-.29.21-.59.41-.89.61-.16.11-.33.21-.51.32-.3.18-.61.37-.91.54-.18.1-.37.21-.56.3-.3.16-.62.33-.94.49l-.57.29c-.33.16-.65.3-.99.46-.19.08-.38.18-.57.26-.37.16-.73.3-1.1.46-.18.06-.33.14-.51.21-.54.21-1.08.41-1.64.61.72-.21,1.44-.43,2.12-.65,4.82-1.59,8.66-3.64,9.9-6.17l-.02-.03Z"/>
  <path class="cls-1" d="M537.16,176.09c3.09,2.54,6.14,5.53,8.24,8.8h0c.02-2.07-3.87-5.55-8.24-8.8Z"/>
  <path class="cls-1" d="M475.62,181.38c1.18-.05,2.3-.11,3.32-.14-.92.05-2.03.1-3.32.14Z"/>
  <path class="cls-1" d="M637.36,647.93v-14.29s5.95-7.73,3.57-9.52c-2.38-1.79-3.57-.59-3.57-6.55s2.98-6.55,2.98-13.68-5.95-182.12-5.95-182.12l-45.7,149.61c3.21,18.26,6.16,35.54,7.22,43.29l4.11,12.72c1.69,2.07,3.54,3.86,4.64,5.5,2.28,3.43.19,8.5.02,8.88l1.82,5.61s1.23,1.37,2.84,3.44c1.53.89,2.84,1.1,2.84,1.1,11.67-1.61,21.05,12.84,23.04,16.15,0-.62.03-1.36.16-2.25.73-5.12,1.98-17.92,1.98-17.92v.02Z"/>
  <path class="cls-6" d="M537.75,34.34l3,.56s-1.99-1-3-.56Z"/>
  <path class="cls-3" d="M483.23,181.94c.1-.05.18-.08.27-.11-.16.06-.27.11-.27.11Z"/>
  <path class="cls-3" d="M545.86,185.64c-.14-.24-.3-.49-.46-.73,0,.57.16.81.46.73Z"/>
  <path class="cls-3" d="M517.22,314.21c-.57-.83-1.08-1.56-1.51-2.18.49.7,1,1.45,1.51,2.18Z"/>
  <path class="cls-3" d="M520.11,318.37c-.29-.4-.69-.97-1.15-1.64.35.51.75,1.07,1.15,1.64Z"/>
  <path class="cls-4" d="M161.41,132.91l.16-.43c-.13.08-.21.11-.21.11l.05.32h0Z"/>
  <g>
    <path class="cls-2" d="M392.45,650.19c-3.94-3.76.11,26.82,8.9,23.52,0,0,18.24,4.48,51.73-4.82h-27.65s7.89-11.8,22.34-16.11c-3.24-2.1-6.94-3.41-10.91-2.85,0,0-7.51-1.2-7.51-10.11,0,0-32.96,14.14-36.9,10.38v-.02Z"/>
    <path class="cls-2" d="M264.73,88.43s1.16,12.17,8.69,20.28l-3.48,6.38s-1.16,6.95,0,9.28c1.16,2.31,3.48,8.69,9.28,8.12,0,0,.57,14.49,6.67,19.14,3.87,2.95,7.18,6.38,11.75,8.93,0,0,1.87,4.99-5.09,7.3-6.95,2.31-22.61,2.9-22.61,2.9,0,0-15.07.57-71.29,35.94l.96,3.59-9.66,2.2s-3.44-3.3-9.11-14.51c-2.22,3.73-5.2,6.01-5.2,6.01,5.79.7,20.51,23.33,20.51,23.33,26.65,7.06,21.64,15.75,21.64,15.75l17.29,7.57c3.81-.64,8.15-1.55,13.19-2.79l-1.63,25.86v8.58c-.18.05-.37.06-.54.08l-.49,7.78-1.74,20.28,4.4,38.25s-5.57,6.95-5.57,11.59,5.57,7.54,5.57,7.54c0,0,6.71,24.99,5.52,32.72s.14,70.82.14,70.82c0,0,10.57,119.63,16.52,138.67,0,0,4.77,9.52,0,17.86,0,0,4.83,2.38,2.12,5.95,0,0-7.48,15.47-2.12,16.07,0,0-23.04,9.49-32.04,19.52.24.57.41,1.15.53,1.72.4,2.04-.96,3.64-3.4,4.88,1.56,1.18,7.53,2.5,28.89.61,32.94-2.93,50.52-1.83,51.62-2.57s2.93-1.1,2.2-6.22c-.73-5.12-1.98-17.92-1.98-17.92v-14.29s-5.95-7.73-3.57-9.52c2.38-1.79,3.57-.59,3.57-6.55s-2.98-6.55-2.98-13.68,5.95-182.12,5.95-182.12l44.81,146.67,18.15,50.82,5.29,23.63c.86,1.48,2.39,3.51,4.98,5.29,4.77,3.3,36.9-10.38,36.9-10.38,0,0,2.38-5.36,0-8.93-2.38-3.57-8.34-7.73-8.34-14.29,0-2.9-3.62-24.3-7.65-47.25l-26.36-134.07-.06.37-15.96-75.2h-.03c4.53-1.44,9.12-3.03,13.78-4.78,0,0,6.95-1.74-4.64-43.47l-5.07-50.26-1.13.54s.37-.56.91-2.76l-.49-4.93.86-.43-.35,5.36,59.85,8.15-1.4-15.79c-.96-8.07-2.46-16.79-4.61-19.87l-1.66-1.16c-5.63,0-38.24-26.85-38.24-26.85l-1.48-10.27-8.72,9.89s3.38-4.16,8.72-9.89c-5.47-5.61-12.25-12.02-19.33-17.4,0,0-40.93-5.53-47.14-14.94h-.03c6.46-2.52,11.93-6.3,12.96-7.67,1.74-2.31,6.38-18.55,6.38-18.55l5.8-1.74s4.64-3.48,5.21-7.54,1.16-8.69,0-12.76c-1.16-4.05-4.05-5.21-3.48-8.12s4.15-9.85,4.15-9.85c0,0,1.64-16.81-7.05-28.99-4.46-6.25-4.5-8.21-3.46-8.66l-34.2-6.41s-35.94,3.48-42.32,37.11l-.03.03Z"/>
  </g>
  <path class="cls-6" d="M552.21,476.21s-.03-.02-.03-.03l.03.03Z"/>
  <path class="cls-6" d="M541.92,442.91c-.16-.56-.3-1.08-.45-1.58.14.51.29,1.04.45,1.58Z"/>
  <path class="cls-6" d="M540.35,437.2c-.11-.38-.19-.72-.27-.97.06.26.16.57.27.97Z"/>
  <path class="cls-6" d="M548.14,464.6c-.06-.19-.11-.38-.18-.57.06.19.11.38.18.57Z"/>
  <path class="cls-6" d="M544.22,451.08s-.03-.13-.05-.18c.02.06.03.13.05.18Z"/>
  <path class="cls-6" d="M550.14,471.03c-.41-1.28-.88-2.74-1.36-4.32.48,1.58.94,3.05,1.36,4.32Z"/>
  <path class="cls-6" d="M548.67,466.35c-.1-.33-.21-.69-.3-1.02.1.33.21.69.3,1.02Z"/>
  <path class="cls-6" d="M544.76,453.01c-.03-.11-.06-.24-.1-.35.03.11.06.24.1.35Z"/>
  <path class="cls-6" d="M545.34,455c-.1-.35-.19-.7-.3-1.05.1.35.19.7.3,1.05Z"/>
  <path class="cls-6" d="M546.01,457.3c-.21-.7-.4-1.4-.61-2.1.21.7.4,1.4.61,2.1Z"/>
  <path class="cls-6" d="M551.86,475.76c-.13-.26-.29-.65-.48-1.13.18.46.33.86.48,1.13Z"/>
  <path class="cls-6" d="M551.3,474.42c-.21-.56-.45-1.23-.7-1.98.26.77.49,1.44.7,1.98Z"/>
  <path class="cls-6" d="M543.17,447.33s-.03-.1-.05-.14c0,.05.03.1.05.14Z"/>
  <path class="cls-6" d="M550.57,472.32c-.11-.33-.24-.7-.35-1.08.13.38.24.75.35,1.08Z"/>
  <path class="cls-6" d="M535.69,438.77c.18-.11.33-.21.51-.32-.16.11-.33.21-.51.32Z"/>
  <path class="cls-6" d="M542.61,431.96c.11-.22.22-.43.33-.65-.11.22-.21.45-.33.65Z"/>
  <path class="cls-6" d="M541.94,433.07c.14-.21.27-.41.4-.62-.13.21-.26.41-.4.62Z"/>
  <path class="cls-6" d="M543.17,430.79c.1-.24.19-.48.27-.72-.08.24-.18.48-.27.72Z"/>
  <path class="cls-6" d="M541.16,434.13c.16-.19.32-.4.46-.59-.14.21-.3.4-.46.59Z"/>
  <path class="cls-6" d="M543.6,429.58c.08-.27.14-.56.21-.85-.06.29-.13.57-.21.85Z"/>
  <path class="cls-6" d="M539.9,435.55h0s.03.13.1.33c-.05-.21-.1-.33-.1-.33h0Z"/>
  <path class="cls-6" d="M540.22,435.19c.19-.21.4-.41.59-.64-.19.21-.38.43-.59.64Z"/>
  <path class="cls-6" d="M543.92,428.29c.08-.43.14-.88.19-1.34-.03.46-.1.91-.19,1.34Z"/>
  <path class="cls-6" d="M532.71,440.39l.57-.29-.57.29Z"/>
  <path class="cls-6" d="M531.13,441.11c.19-.08.38-.18.57-.26-.19.08-.38.18-.57.26Z"/>
  <path class="cls-6" d="M534.22,439.61c.19-.1.37-.21.56-.3-.18.1-.37.21-.56.3Z"/>
  <path class="cls-6" d="M529.52,441.76c.18-.06.33-.14.51-.21-.18.06-.33.14-.51.21Z"/>
  <path class="cls-6" d="M539.9,435.55c-1.24,2.54-5.1,4.56-9.9,6.17,4.82-1.59,8.66-3.64,9.9-6.17h0Z"/>
  <path class="cls-6" d="M537.08,437.86c.14-.1.29-.21.43-.3-.14.11-.29.21-.43.3Z"/>
  <path class="cls-6" d="M538.43,436.84c.11-.08.22-.18.32-.26-.11.1-.21.18-.32.26Z"/>
  <path class="cls-6" d="M464.09,181.91c.48-.02.96-.05,1.42-.06-.57.03-1.05.05-1.42.06Z"/>
  <path class="cls-6" d="M479.06,181.22c.57-.03,1.08-.05,1.53-.06-.46.02-.97.05-1.53.06Z"/>
  <path class="cls-6" d="M465.64,181.83c.72-.03,1.39-.06,2.06-.1-.77.03-1.45.06-2.06.1Z"/>
  <path class="cls-6" d="M515.71,312.03c-.61-.88-1.08-1.56-1.45-2.09.4.57.91,1.29,1.45,2.09Z"/>
  <path class="cls-6" d="M520.57,319.03s-.06-.1-.11-.16c.06.1.11.16.11.16Z"/>
  <path class="cls-5" d="M523.12,253.04c-.62,1.45-.75,3-1,4.93,1.98-7.21,3.44-16.06,1-21.8,0,0,1.53,13.3,0,16.89v-.02Z"/>
  <path class="cls-5" d="M551.46,263.41c-.35.33-.72.54-1.13.56l-.18.1c.89-.08,1.31-.64,1.31-.64v-.02Z"/>
  <path class="cls-5" d="M536.49,217.21l-13.36,18.94c5.64-7.29,10-13.55,13.36-18.94Z"/>
  <path class="cls-5" d="M521.32,257.68c-2.01,6.63-3.32,12.25-3.32,12.25,0,0,2.28-5.26,4.11-11.96.26-1.93.38-3.48,1-4.93,1.53-3.59,0-16.89,0-16.89l13.36-18.94c-4.21,5.26-8.55,11.91-13.92,19.25,1.79,6.27,1.04,13.7-1.24,21.21v.02Z"/>
  <path class="cls-4" d="M180.86,197.98c3.01-5.09,4.58-12.85-4.86-21.21,0,0,9.54-16.26-10.56-19.44l-4.03-24.43-2.17,5.96c8.56,29.96,16.14,48.25,21.62,59.11Z"/>
  <path class="cls-2" d="M246.64,282.29v-8.58l-.54,8.66c.19-.03.38-.05.54-.08h0Z"/>
  <path class="cls-4" d="M162.12,120.9c-2.9-.57-12.17-2.9-12.17-2.9h8.08l6.31-10.33-14.38-12.1h-4.53s-22.9,40.39-23.7,40.09c.7.29,20.12,10.16,20.12,10.16h-7.54l3.48,6.38,5.21,1.16,15.66,59.7s6.38,28.99,22.61,34.2c16.23,5.21,27.01-4.61,27.01-4.61h0l1.39,5.2s.96,6.94,25.42,2.79l-17.29-7.57s5.01-8.69-21.64-15.75c0,0-14.72-22.63-20.51-23.33,0,0,2.98-2.28,5.2-6.01-5.49-10.86-13.06-29.15-21.62-59.11l2.17-5.96-.05-.32s.08-.05.21-.11l2.31-6.36s1.16-4.64-1.74-5.21l-.03.02Z"/>
  <g>
    <path class="cls-4" d="M129.15,80.91s-50.28.35-44.31,40.49c.51,3.4.94,6.27,1.29,8.67l-3.94,20.16s-4.96.69-7.27,2.41c-2.31,1.72-6.28,4.11,0,17.49,0,0-17.52,12.36,1.98,27.79l-33.74,34.32-11.24-72.04s7.61-8.23,7.94-13.04c.33-4.8-1.66-5.33-3.3-6.86-1.88-1.75-7.94-3.78-7.94-3.78,0,0-3.3-3.09,0,10.29l-14.56,14.75-6.62-2.41s-.99,6.86,7.27,8.23c0,0,0,82.34,3.3,85.44s6.28,21.27,35.05,8.58c0,0,4.62-1.39,7.94,4.45,0,0,9.82-8.91,10.7-6.51s0,25.05,0,25.05c0,0-.45,8.91-7.72,25.05,0,0-3.97,8.23,9.58,18.86,0,0-22.37,59.72,7.73,196.65,0,0,16.03,80.43,14.73,108.35,0,0,2.57,5.31,6.41,7.32l-.64,13.95s-15.37,2.66-12.82,17.96c0,0-.64,10.64,46.13,0l-5.12-8.64s-8.98-16.62-6.41-21.27c2.57-4.66,6.41-4.66,6.41-4.66,0,0,6.41-9.97-4.48-18.61,0,0,5.12-7.32,4.48-11.31s-5.77-28.59-5.77-28.59c0,0,7.69-61.15,5.12-144.25l23.07,91.74s17.94,88.4,18.58,97.05l5.12,6.65s9.62,35.89,7.05,39.21c0,0-9.62,1.32-6.41,3.99s1.93,6.65,13.46,6.65c9.17,0,35.77.41,45.3-4.43-.85-.64-.4-1.23-.4-1.23.49-1.77,1.66-3.59,3.27-5.37-3.81-9.22-22.95-16.85-29.58-16.23-7.05.67-7.69-25.93-7.69-25.93,0,0,5.12-.67,4.48-5.31-.64-4.66-9.46-98.39-9.46-98.39l-3.35-90.4s-10.25-104.37-19.87-104.37c0,0,7.05-1.99,8.32-6.65s-4.48-16.62-6.41-16.62-7.69-45.21,0-45.86c7.69-.65,11.83,11.96,21.29,11.31,9.46-.67,11.39-3.99,11.39-3.99,0,0,29.52,16.58,38.54,15.37l.54-8.66v-18l-11.56-5.05c-24.45,4.15-25.42-2.79-25.42-2.79l-1.39-5.2h0s-10.78,9.84-27.01,4.61c-16.23-5.21-22.61-34.2-22.61-34.2l-15.66-59.7-5.21-1.16-3.48-6.38h7.54s-19.41-9.87-20.12-10.16c.81.3,23.7-40.09,23.7-40.09h4.53l14.38,12.1-6.31,10.33h-8.08s9.28,2.31,12.17,2.9c2.9.57,1.74,5.21,1.74,5.21l-2.31,6.36c.92-.56,4.61-3.03,4.9-7.65.33-5.29,6.81-33.41-23.86-43.92l-6.59,2.22-6.89-2.22.11-.03Z"/>
    <path class="cls-4" d="M27.28,146.68c-2.77-12.07.69-13.36.69-13.36l7.48,5.1,8.04-8.26-12.18-13.22h-3.05L0,146.83v1.58c2.07,5.45,13.57,11.5,13.57,11.5l13.71-13.22h0Z"/>
    <path class="cls-4" d="M20.24,118.52s-3.46-1.69-5.15,5.41c0,0-9.85,6.16-13.43,15.37l.86,2.77,21.86-22.21-4.15-1.36v.02Z"/>
  </g>
  <g>
    <path class="cls-7" d="M527.22,21.33l25.07,17.4s5.12-5.12,0-8.69c-5.12-3.59-15.15-3.59-16.26-8.69s-4.7-3.59-6.23-4.61-2.55,4.61-2.55,4.61l-.02-.02Z"/>
    <path class="cls-7" d="M588.09,649.46c-7.67,1.02-2.55,19.44-2.55,19.44h30.19c3.62-3.97-2.47-13.06-6.36-18.05-2.14-1.24-4.67-3.81-4.67-9.01,0,0-8.24,3.54-16.98,6.6.26.65.4,1.02.4,1.02h-.02Z"/>
    <path class="cls-7" d="M518.1,18.08l-9.55,14.8v2.26l11.7,6.09,4.4-6.09c7.75-.13,4.61,12.79,4.61,12.79l20.36,11.45,8.58-13.86-2.12-3.35-34.86-24.11h-3.11l-.02.02Z"/>
    <path class="cls-7" d="M524.65,35.14s-1.12,6.65-8.99,12.79c-7.88,6.14,12.07,13.81,12.07,13.81,0,0,4.61,41.43,2.55,48.08-2.04,6.65,0,40.92,3.06,39.39,0,0-2.55,18.42-8.18,18.93-10.75,16.89-24.05,24.94-24.05,24.94-15.85-12.41-16.36-3.46-17.91-5.5-1.53-2.04,0-5.63,0-5.63,0,0,5.63-8.18,14.83-5.63,0,0,2.55-.51,4.61-3.59,0,0,2.04,1.53,7.16-1.02s5.63-8.69,5.63-8.69c0,0,2.55-13.81-10.24-32.23,0,0,6.65-6.14,2.55-17.4-4.1-11.26-14.83-10.24-14.83-10.24,0,0-1.88-10.75-24.73-11.77,0,0-50.47,7.67-34.09,50.13,0,0,.51,7.16-5.63,18.42,0,0-10.24,24.05,34.78,21.99v5.63c-3.59-.51-9.2,2.55-9.2,2.55,0,0-3.59,5.57-3.59,4.5s-21.29-3.19-28.75,0c-7.45,3.19-33.01,9.58-33.01,9.58,0,0,32.61,26.84,38.24,26.85h0c.59,0,1.15.43,1.66,1.16,2.15,3.08,3.65,11.8,4.61,19.87.97,8.26,1.4,15.79,1.4,15.79-1.53-.51,4.1,23.54-3.59,28.64-7.67,5.12-3.06,17.35-3.06,17.35.59,1.83,2.31,3.32,4.86,4.5,0,0-19.14,72.27-5.36,113.71,0,0,6,7.72,21.72,10.94-4.67-.65-8.93-1.82-11.74-3.83l22.21,194.41s3.87,14.83-11.11,18.93c-.27.08-.54.18-.81.26-14.45,4.31-22.34,16.11-22.34,16.11h36.31l9.2-6.14v6.14h12.44l-7.32-21.48-.33-204.51c1.87-.43,3.86-.96,5.96-1.63,0,0,17.91,1.53,19.95,5.63l18.93,37.86,24.24,58.79c3.41-19.06,6.22-34.36,6.22-34.36l5.66-26.65c-2.2-4.56-4.16-7.89-4.39-6.49-.02.1-.05.14-.08.16,0,0-.03-.02-.03-.03-.08-.02-.18-.16-.3-.41-.13-.26-.29-.65-.48-1.13-.03-.08-.05-.13-.08-.22-.21-.56-.45-1.23-.7-1.98,0-.05-.03-.08-.05-.11-.11-.33-.24-.7-.35-1.08-.03-.08-.05-.14-.06-.21-.41-1.28-.88-2.74-1.36-4.32-.03-.11-.06-.22-.11-.35-.1-.33-.21-.69-.3-1.02-.08-.26-.14-.49-.22-.75-.06-.19-.11-.38-.18-.57-.64-2.14-1.31-4.4-1.96-6.71-.21-.7-.4-1.4-.61-2.1-.02-.06-.03-.13-.06-.21-.1-.35-.19-.7-.3-1.05-.1-.32-.18-.62-.27-.92-.03-.11-.06-.24-.1-.35-.14-.53-.3-1.07-.45-1.59-.02-.06-.03-.13-.05-.18-.35-1.21-.69-2.41-1-3.57,0-.05-.03-.1-.05-.14-.43-1.51-.83-2.95-1.2-4.26-.16-.56-.3-1.08-.45-1.58-.48-1.71-.86-3.13-1.15-4.13-.11-.38-.19-.72-.27-.97-.03-.14-.06-.26-.1-.35-.05-.21-.1-.33-.1-.33h0c-1.24,2.54-5.1,4.56-9.9,6.17-.69.22-1.39.45-2.12.65.56-.19,1.1-.4,1.64-.61.18-.06.33-.14.51-.21.37-.14.75-.3,1.1-.46.19-.08.38-.18.57-.26.33-.14.67-.3.99-.46l.57-.29c.32-.16.64-.32.94-.49.19-.1.37-.21.56-.3.3-.18.61-.35.91-.54.18-.1.33-.21.51-.32.3-.19.61-.4.89-.61.14-.1.29-.21.43-.3.32-.24.62-.48.92-.72.11-.08.22-.18.32-.26.4-.33.78-.69,1.13-1.04h0c.11-.11.21-.22.32-.33.19-.21.4-.41.59-.64.13-.14.24-.29.35-.43.16-.19.32-.4.46-.59.11-.16.22-.32.32-.46.14-.21.27-.41.4-.62.1-.16.19-.33.27-.49.11-.22.22-.43.33-.65.08-.16.16-.33.22-.51.1-.24.19-.48.27-.72.06-.16.11-.33.18-.49.08-.27.14-.56.21-.85.03-.14.08-.29.1-.43.08-.43.14-.88.19-1.34,1.53-18.93-7.16-84.4-23.54-107.92,0,0-.05-.06-.11-.16.03.05.06.1.11.16,6.14-7.67,2.04-20.46,2.04-20.46-5.12-20.46-4.61-28.64-4.61-28.64,0,0,1.29-5.6,3.32-12.25,2.28-7.53,3.03-14.94,1.24-21.21,5.37-7.34,9.71-13.98,13.92-19.25,12.45-19.98,11.19-27.6,11.19-27.6-.41-1.36-1.04-2.69-1.8-3.99-.29.08-.46-.14-.46-.73-2.12-3.27-5.17-6.28-8.24-8.8,4.37,3.25,8.26,6.73,8.24,8.8h0c.16.24.3.49.46.73,2.09-.54,10.7-16.33,12.04-29.77,1.53-15.34-3.06-72.63-12.28-90.03,0,0,2.55,1.02,5.12-4.1l-14.73-8.69-6.75-5.12s.51-12.28-4.61-12.79l.05.02ZM480.6,181.16c-.45.02-.96.05-1.53.06.54-.03,1.05-.05,1.53-.06ZM478.94,181.22c-1.02.05-2.14.1-3.32.14,1.28-.06,2.39-.11,3.32-.14ZM467.7,181.75c-.65.03-1.34.06-2.06.1.61-.03,1.29-.06,2.06-.1ZM465.51,181.85c-.46.02-.94.05-1.42.06.37-.02.85-.03,1.42-.06ZM520.11,318.37c-.4-.57-.78-1.13-1.15-1.64.46.67.86,1.24,1.15,1.64ZM515.71,312.03c.43.62.94,1.36,1.51,2.18-.51-.73-1.04-1.48-1.51-2.18-.54-.78-1.05-1.5-1.45-2.09.37.53.85,1.21,1.45,2.09Z"/>
    <path class="cls-7" d="M573.8,612.76c6.38,16.18,12.29,31.53,13.87,35.64,8.75-3.05,17-6.6,17-6.6,0,0,0-.02.02-.03l-4.66-14.5-4.11-12.81-10.24-31.86-28.99-101.15-11.88,61.42,29.01,69.91-.02-.02Z"/>
  </g>
</svg>