<?xml version="1.0" encoding="UTF-8"?>
<svg id="Layer_1" data-name="Layer 1" xmlns="http://www.w3.org/2000/svg" viewBox="0 0 955.73 645.79">
  <defs>
    <style>
      .cls-1 {
        fill: none;
      }

      .cls-2 {
        fill: #eae6f3;
      }

      .cls-3 {
        fill: #cdc6e3;
      }

      .cls-4 {
        fill: #ed3e91;
      }

      .cls-5 {
        fill: #652d90;
      }

      .cls-6 {
        fill: #e5cbe2;
      }

      .cls-7 {
        fill: #becbe8;
      }

      .cls-8 {
        fill: #ba3693;
      }

      .cls-9 {
        fill: #e3e8f5;
      }
    </style>
  </defs>
  <path class="cls-1" d="M573.76,600.66c-1.04-1.56-2.81-3.25-4.4-5.22l4.42,13.66c.16-.37,2.16-5.18-.02-8.43Z"/>
  <path class="cls-1" d="M533.16,612.13c.04-.8.07-1.82.08-2.97-.05,1.66-.14,2.8-.14,2.8,0,0,.02.06.06.17Z"/>
  <path class="cls-1" d="M555.73,553.32l9.72,30.04c-1.02-7.36-3.81-23.75-6.86-41.08-.65-3.7-1.31-7.44-1.97-11.15.56,4.41,1.2,8.79,1.93,12.96l-2.82,9.23Z"/>
  <path class="cls-1" d="M371.78,606.21l-4.1,5.82c3.24-2.84,4.1-5.82,4.1-5.82Z"/>
  <path class="cls-1" d="M407.4,607.2s-30.49,12.99-35.01,9.85c3.74,3.57,35.01-9.85,35.01-9.85Z"/>
  <path class="cls-1" d="M497.47,605.32s31.27,13.42,35.01,9.85c-4.52,3.14-35.01-9.85-35.01-9.85Z"/>
  <path class="cls-1" d="M538.74,618.98c1.87,1.78,10.62-.68,18.9-3.59,0-.02-.01-.04-.02-.05-8.1,2.81-16.65,5.19-18.88,3.64Z"/>
  <path class="cls-8" d="M533.16,612.13c-.05,1.01-.09,1.64-.09,1.64,0,0,.09.28.29.73.23-.18.48-.35.68-.53-.51-.87-.77-1.54-.87-1.83Z"/>
  <path class="cls-8" d="M602.74,634.06c0,.27.02.52.04.75.11-.04.22-.07.33-.1,0,0-.13-.24-.37-.64Z"/>
  <path class="cls-8" d="M648.25,614.92h-43.48s38.4.56,43.48,0Z"/>
  <path class="cls-7" d="M557.63,615.34s.01.04.02.05c8.29-2.91,16.11-6.26,16.11-6.26,0,0-7.82,3.33-16.13,6.21Z"/>
  <path class="cls-7" d="M569.35,595.44l-3.91-12.08c.26,1.89.41,3.19.41,3.75,0,3.34,1.64,6.03,3.5,8.33Z"/>
  <path class="cls-7" d="M573.77,609.1s-.02.04-.02.04c0,4.94,2.42,7.37,4.44,8.55-1.53-1.96-2.7-3.26-2.7-3.26l-1.72-5.33Z"/>
  <g>
    <path class="cls-1" d="M522.02,250.66c-.2.02-.42.01-.68-.04-.14.35-.22.47-.22.47l.9-.44Z"/>
    <path class="cls-1" d="M510.04,415.29c.3-.22.59-.45.87-.68-.28.23-.57.46-.87.68Z"/>
    <path class="cls-1" d="M511.21,414.37c.38-.32.74-.64,1.08-.98-.34.34-.7.66-1.08.98Z"/>
    <path class="cls-1" d="M523.2,450.48c-.03-.07-.05-.13-.08-.21.03.08.05.13.08.21Z"/>
    <path class="cls-1" d="M516.35,427.95c-.33-1.16-.65-2.29-.95-3.38.31,1.09.63,2.23.95,3.38Z"/>
    <path class="cls-1" d="M522.07,447.25c-.02-.07-.04-.13-.07-.2.02.07.04.13.07.2Z"/>
    <path class="cls-1" d="M522.45,448.39s-.02-.07-.04-.11c.01.04.02.07.04.11Z"/>
    <path class="cls-1" d="M234.03,259.82l1.54-24.54c-4.77,1.18-8.9,2.04-12.51,2.65l10.97,4.8v17.09Z"/>
    <path class="cls-1" d="M524.05,451.83c-.02.09-.04.14-.08.15.04,0,.06-.05.08-.15Z"/>
    <path class="cls-1" d="M196.94,253.46s-1.82,3.15-10.8,3.78c-8.98.63-12.91-11.35-20.2-10.72s-1.82,43.52,0,43.52,7.3,11.35,6.08,15.77c-1.22,4.42-7.9,6.31-7.9,6.31,9.12,0,18.85,99.03,18.85,99.03l3.18,85.78s8.37,88.93,8.98,93.35c.61,4.42-4.26,5.05-4.26,5.05,0,0,.61,25.23,7.3,24.6,6.3-.59,24.46,6.65,28.07,15.4,8.53-9.52,30.39-18.52,30.39-18.52-5.08-.56,2.01-15.25,2.01-15.25,2.57-3.39-2.01-5.65-2.01-5.65,4.52-7.91,0-16.94,0-16.94-5.65-18.07-15.68-131.58-15.68-131.58,0,0-1.26-59.86-.13-67.2s-5.24-31.05-5.24-31.05c0,0-5.27-2.75-5.27-7.15s5.27-11,5.27-11l-4.17-36.3,1.65-19.25.46-7.39c-8.56,1.15-36.57-14.59-36.57-14.59Z"/>
    <path class="cls-1" d="M515.36,424.42c-.4-1.44-.78-2.8-1.13-4.04.35,1.25.72,2.6,1.13,4.04Z"/>
    <path class="cls-1" d="M508.77,416.15c.29-.19.57-.38.85-.57-.28.19-.56.39-.85.57Z"/>
    <path class="cls-1" d="M514.6,410.45c.09-.15.18-.31.26-.47-.08.16-.17.31-.26.47Z"/>
    <path class="cls-1" d="M515.18,409.36c.07-.16.15-.32.21-.48-.07.16-.14.32-.21.48Z"/>
    <path class="cls-1" d="M517.17,430.84c-.08-.3-.17-.59-.25-.89.08.29.17.59.25.89Z"/>
    <path class="cls-1" d="M507.43,416.96c.29-.17.58-.34.86-.51-.28.17-.57.34-.86.51Z"/>
    <path class="cls-1" d="M519.95,440.4c-.6-2.03-1.24-4.18-1.87-6.37.63,2.19,1.26,4.34,1.87,6.37Z"/>
    <path class="cls-1" d="M516.01,406.92c.03-.14.07-.27.1-.41-.03.14-.06.27-.1.41Z"/>
    <path class="cls-1" d="M517.51,432.03c-.02-.06-.04-.13-.06-.19.02.06.04.13.06.19Z"/>
    <path class="cls-1" d="M512.6,413.06c-.1.11-.2.22-.3.32.11-.1.2-.22.3-.32Z"/>
    <path class="cls-1" d="M516.82,429.63c-.14-.51-.29-1.01-.43-1.51.14.5.28,1,.43,1.51Z"/>
    <path class="cls-1" d="M523.65,451.55c.13.25.22.38.29.4-.07-.02-.17-.15-.29-.4Z"/>
    <path class="cls-1" d="M513.93,411.48c.11-.15.2-.3.3-.45-.1.15-.2.3-.3.45Z"/>
    <path class="cls-1" d="M520.72,442.95c-.03-.11-.07-.22-.1-.33.03.11.07.22.1.33Z"/>
    <path class="cls-1" d="M520.33,441.65c-.07-.24-.14-.47-.21-.71.07.24.14.47.21.71Z"/>
    <path class="cls-1" d="M513.15,412.46c.12-.14.22-.28.34-.42-.11.14-.22.28-.34.42Z"/>
    <path class="cls-1" d="M497.47,605.32s31.27,13.42,35.01,9.85c-4.52,3.14-35.01-9.85-35.01-9.85Z"/>
    <path class="cls-1" d="M502.92,419.09c.35-.14.71-.28,1.05-.43-.35.15-.7.29-1.05.43Z"/>
    <path class="cls-1" d="M512.48,414.04c-.04-.14-.07-.25-.09-.34.03.09.06.2.09.34Z"/>
    <path class="cls-1" d="M569.35,595.44l-3.91-12.08c.26,1.89.41,3.19.41,3.75,0,3.34,1.64,6.03,3.5,8.33Z"/>
    <path class="cls-1" d="M558.59,542.28c-.65-3.7-1.31-7.44-1.97-11.15.56,4.41,1.2,8.79,1.93,12.96l-2.82,9.23,9.72,30.04c-1.02-7.36-3.81-23.75-6.86-41.08Z"/>
    <path class="cls-1" d="M573.77,609.1s-.02.04-.02.04c0,4.94,2.42,7.37,4.44,8.55-1.53-1.96-2.7-3.26-2.7-3.26l-1.72-5.33Z"/>
    <path class="cls-1" d="M573.76,600.66c-1.04-1.56-2.81-3.25-4.4-5.22l4.42,13.66c.16-.37,2.16-5.18-.02-8.43Z"/>
    <path class="cls-1" d="M648.25,614.92h-43.48s38.4.56,43.48,0Z"/>
    <path class="cls-1" d="M502.89,419.23c-.65.22-1.32.43-2.01.63.68-.2,1.35-.41,2.01-.63Z"/>
    <path class="cls-1" d="M500.88,419.86c.53-.18,1.05-.38,1.56-.57-.52.2-1.04.39-1.56.57Z"/>
    <path class="cls-1" d="M928.18,26.85l8.77,8.89-6.33-10.25c5.59-9.44.27-11.17.27-11.17,3.64,2.43-2.71,12.53-2.71,12.53Z"/>
    <path class="cls-1" d="M936.96,35.74c.31-.09.61-.17.91-.23-.62.08-.91.23-.91.23Z"/>
    <path class="cls-1" d="M513.81,418.88c-.45-1.62-.82-2.97-1.08-3.92.26.95.63,2.3,1.08,3.92Z"/>
    <path class="cls-1" d="M407.4,607.2s-30.49,12.99-35.01,9.85c3.74,3.57,35.01-9.85,35.01-9.85Z"/>
    <path class="cls-1" d="M504.52,418.42c.32-.14.63-.29.94-.43-.31.15-.63.29-.94.43Z"/>
    <path class="cls-1" d="M669.31,233.4l.56,8.9c13.2-1.3,21.64-3.25,26.98-5.06-5.38.32-13.93-.46-27.54-3.84Z"/>
    <path class="cls-1" d="M706.21,232.37c1.25-.7,2.43-1.4,3.56-2.1-1.62-1-2.51-1.8-2.51-1.8l-1.04,3.9Z"/>
    <path class="cls-1" d="M506.01,417.71c.3-.15.6-.31.89-.46-.29.16-.59.31-.89.46Z"/>
    <path class="cls-1" d="M762.59,110.19v12.1c2.2-10.45,0-12.1,0-12.1Z"/>
    <path class="cls-1" d="M533.1,611.95s.02.06.06.17c.04-.8.07-1.82.08-2.97-.05,1.66-.14,2.8-.14,2.8Z"/>
    <path class="cls-1" d="M533.16,612.13c-.05,1.01-.09,1.64-.09,1.64,0,0,.09.28.29.73.23-.18.48-.35.68-.53-.51-.87-.77-1.54-.87-1.83Z"/>
    <path class="cls-1" d="M515.65,408.19c.05-.16.11-.31.16-.47-.05.16-.1.32-.16.47Z"/>
    <path class="cls-9" d="M929.06.12s-9.68,4.45-10.98,9.94l5.23,7.06,7.59-2.8s5.33,1.73-.27,11.17l6.33,10.25s.29-.14.91-.23c-.3.06-.6.13-.91.23l-8.77-8.89s6.35-10.11,2.71-12.53l-11.72,8.89s-1.21,2.83,5.86,11.72c7.07,8.89-20.41,83.67-20.41,83.67l-9.7,8.08h-6.06l-28.7,19.4s-10.91-.4-13.34,2.43-6.47-2.02-6.47-2.02v-6.47l8.49-7.68,6.87-14.15s8.08-.4,10.91-7.28.4-16.57.4-16.57l5.66-17.38s.81-6.47-8.89-9.3l-3.23-12.13s-23.44-43.65-63.86-19.4c0,0-5.25,4.45,2.43,22.64,0,0-10.11-2.83-9.7,11.72,0,0-8.08,5.54,4.45,22.17,0,0-9.7,11.78,6.06,23.1l1.62,11.32s1.62,5.66,16.98,14.15l-1.21,4.85s-5.25.96-4.85,3.31-32.74,7.2-32.74,7.2l-11.72,5.25s-2.41,3.54-5.69,8.12l-2.72,10.36-5.26,20.06s-1.91,8.7-6.33,17.2c-3.43,6.61-8.38,13.09-15.12,15.25-10.91,3.51-19.2-.14-23.12-2.58-1.13.7-2.31,1.4-3.56,2.1l-.28,1.03s-.47,3.33-9.08,3.84c-5.34,1.8-13.78,3.75-26.98,5.06l1.4,22.21c.13,1.99,39.69-.25,68.59-26.85,2.26,1.78,4.87,3.48,7.94,5.04,0,0,23.85-16.57,24.25-19.81,0,0-13.34,69.12-7.68,88.12,0,0-6.87,15.76-6.06,19.4,0,0-9.78,45.87-11.64,80.37-1.86,34.5-6.53,31.23-6.53,31.23-12.12,11.19,4.2,18.65,7.92,19.58,3.73.93-.47,15.38-.47,15.38-3.73,2.33-10.72,48.48-10.72,48.48,0,0-4.2,71.79-5.59,84.37-1.4,12.59-8.86,10.72-8.86,10.72-27.97,1.4-30.77,18.65-30.77,18.65,0,0,39.16,7.46,53.61,6.53,14.45-.93,5.13-26.57,5.13-26.57,0,0,25.17-79.25,27.04-104.42,1.86-25.17,7.92-42.89,7.92-42.89,19.11-2.33,13.98-13.98,13.98-13.98,0,0-4.66-2.8-1.86-5.13s13.98-49.88,13.98-49.88l7.46,52.67s-1.4,4.66-2.8,9.79c-1.4,5.13,13.52,6.53,13.52,6.53,0,0,5.59,13.98-1.86,32.16-7.46,18.18,4.66,107.21,4.66,107.21l-4.66,2.8v21.91c34.03,7.92,56.4,2.8,56.4,2.8,6.53-11.65-21.91-20.04-21.91-20.04,0,0-10.26-6.53-5.59-7.92s12.59-143.11,12.59-143.11l12.59-5.13c9.32-10.26.47-13.98-1.24-14.92s1.24-4.66,1.24-4.66v-100.54l-2.49-6.01c2.56-1.61,4.32-3.58,5.06-5.98l-4.12-11.72v-66.12l3.31-59.59s22.23-20.61,25.87-29.91c3.64-9.3,4.04-8.49,3.64-12.93-.4-4.45,10.91-9.7,17.79-34.36,6.87-24.66,12.93-68.71,10.91-71.14,0,0,5.25.4,5.25-2.83s-.4-4.04-.4-4.04l9.08-8.35v-3.92L932.2.12h-3.14Z"/>
    <path class="cls-9" d="M936.9,2.21l15.95,16.73c2.52-.73,0-5.22,0-5.22l-9.42-8.37v-3.14c-3.4-4.97-6.54,0-6.54,0Z"/>
    <path class="cls-1" d="M412.42,254.29s-.4-7.15-1.33-14.98l1.33,14.98Z"/>
    <path class="cls-1" d="M405.14,219.34h0l1.58,1.11c-.49-.7-1.01-1.11-1.58-1.11Z"/>
    <polygon class="cls-3" points="355.15 241.88 355.62 246.55 355.96 241.48 355.15 241.88"/>
    <path class="cls-1" d="M367.44,184.13c-5.07,5.44-8.28,9.38-8.28,9.38l8.28-9.38Z"/>
    <path class="cls-1" d="M406.11,297.93s-4.37-11.61,2.91-16.46c7.28-4.85,1.94-27.67,3.4-27.18l-56.79-7.73c-.51,2.09-.86,2.61-.86,2.61l1.07-.52,4.82,47.69c11,39.6,4.4,41.25,4.4,41.25-4.41,1.67-8.77,3.18-13.07,4.55,0,0,.03,0,.03,0l15.15,71.35.06-.34,25.01,127.21c3.83,21.77,7.27,42.08,7.27,44.83,0,6.21,5.65,10.16,7.91,13.55,2.26,3.39,0,8.47,0,8.47,0,8.47,7.13,9.6,7.13,9.6,3.77-.52,7.28.72,10.36,2.71.26-.08.51-.17.77-.24,14.21-3.88,10.54-17.96,10.54-17.96l-21.08-184.47c2.67,1.9,6.71,3.01,11.14,3.63-14.93-3.06-20.61-10.39-20.61-10.39-13.08-39.31,5.08-107.89,5.08-107.89-2.42-1.12-4.05-2.52-4.62-4.27Z"/>
    <path class="cls-1" d="M512.29,413.38s0,0,0,0c-.34.34-.7.66-1.08.98-.1.08-.2.16-.3.24-.28.23-.57.46-.87.68-.14.1-.28.19-.41.29-.28.19-.56.39-.85.57-.16.1-.32.2-.48.3-.28.17-.57.34-.86.51-.17.1-.35.19-.52.29-.29.16-.59.31-.89.46-.18.09-.36.18-.55.27-.31.15-.63.29-.94.43-.18.08-.36.16-.55.24-.35.15-.7.29-1.05.43-.16.06-.32.13-.48.19-.52.2-1.04.39-1.56.57.68-.2,1.35-.41,2.01-.63,4.56-1.52,8.22-3.44,9.4-5.85Z"/>
    <path class="cls-1" d="M495.9,283.41s3.88,12.13-1.94,19.41c15.53,22.33,23.78,84.45,22.33,102.41-.04.43-.1.86-.17,1.27-.03.14-.06.27-.1.41-.06.27-.12.54-.2.8-.05.16-.1.32-.16.47-.08.23-.16.46-.26.69-.07.16-.14.32-.21.48-.1.21-.2.42-.31.62-.08.16-.17.31-.26.47-.12.2-.24.39-.37.59-.1.15-.2.3-.3.45-.14.19-.29.38-.44.56-.11.14-.22.28-.34.42-.18.2-.37.4-.55.6-.1.11-.2.22-.3.32h0s.04.13.09.32c.03.09.06.21.09.34.07.24.15.55.25.92.26.95.63,2.3,1.08,3.92.13.48.27.98.42,1.5.35,1.25.72,2.6,1.13,4.04.01.05.03.09.04.14.31,1.09.63,2.23.95,3.38.02.06.03.11.05.17.14.5.28,1,.43,1.51.03.11.06.22.09.33.08.29.17.59.25.89.09.33.19.66.28.99.02.06.04.13.06.19.19.67.38,1.33.58,2,.63,2.19,1.26,4.34,1.87,6.37.05.18.11.37.16.55.07.24.14.47.21.71.1.32.2.65.29.97.03.11.07.22.1.33.46,1.5.89,2.89,1.28,4.1.02.07.04.13.07.2.12.36.23.71.34,1.03.01.04.02.07.04.11.24.72.47,1.36.66,1.88.03.08.05.13.08.21.17.45.33.82.45,1.07.13.25.22.38.29.4,0,0,.02.03.03.02.04,0,.06-.05.08-.15.22-1.34,2.08,1.83,4.17,6.16l6.96-32.78,1.26,3.95-1.22-5.76,17.65-83.16s.02,0,.03,0c-4.3-1.36-8.66-2.87-13.07-4.54,0,0-6.6-1.65,4.4-41.25l4.08-40.41.43-4.23c-.44-2.42-.93-5.93-1.4-11l-3.11-1.56-10.45,7.7-.9.44-9.61,4.67s-.4.54-1.25.61l-.9.44s.08-.13.22-.47c-8.1.57-29.81,5.6-29.81,5.6,0,0-.49,7.77,4.37,27.18Z"/>
    <path class="cls-1" d="M509.7,167.2c2.93,2.4,5.82,5.25,7.83,8.36,0,0,0,0,0,0,.02-1.96-3.68-5.27-7.83-8.35Z"/>
    <path class="cls-1" d="M451.31,172.21c1.11-.05,2.18-.1,3.15-.14-.88.04-1.93.09-3.15.14Z"/>
    <path class="cls-7" d="M502.21,45.58s2.98-12.26-4.37-12.13c4.85.49,4.37,12.13,4.37,12.13Z"/>
    <path class="cls-1" d="M604.77,614.92v-13.55s5.65-7.34,3.39-9.04c-2.26-1.69-3.39-.56-3.39-6.21s2.82-6.21,2.82-12.99-5.65-172.8-5.65-172.8l-43.36,141.95c3.05,17.33,5.85,33.72,6.86,41.08l3.91,12.08c1.6,1.97,3.36,3.66,4.4,5.22,2.17,3.26.17,8.07.02,8.43l1.72,5.33s1.17,1.3,2.7,3.26c1.45.84,2.69,1.05,2.69,1.05,11.08-1.53,19.97,12.18,21.86,15.33,0-.59.03-1.29.15-2.13.69-4.86,1.87-17.01,1.87-17.01Z"/>
    <path class="cls-1" d="M549.72,240l-2.39-1.19c.46,5.08.95,8.58,1.4,11l.99-9.81Z"/>
    <path class="cls-7" d="M490.17,56.84l2.74.51s-1.82-.91-2.74-.51Z"/>
    <path class="cls-5" d="M684.56,47.31l2.74.51s-1.82-.91-2.74-.51Z"/>
    <path class="cls-4" d="M458.52,172.75c.09-.04.16-.07.25-.11-.15.06-.25.11-.25.11Z"/>
    <path class="cls-4" d="M517.96,176.25c-.14-.23-.28-.46-.43-.7,0,.55.15.77.43.7Z"/>
    <path class="cls-4" d="M490.78,298.26c-.55-.79-1.03-1.48-1.44-2.07.46.66.96,1.37,1.44,2.07Z"/>
    <path class="cls-4" d="M493.53,302.2c-.27-.38-.64-.93-1.08-1.56.34.49.71,1.02,1.08,1.56Z"/>
    <path class="cls-7" d="M410.72,302.19c18.42,8.52,83.23.63,83.23.63,0,0-57.53,4.25-83.23-.63Z"/>
    <path class="cls-3" d="M153.15,126.22l.15-.41c-.13.08-.2.11-.2.11l.05.3Z"/>
    <g>
      <path class="cls-2" d="M372.39,617.05c-3.74-3.57.11,25.45,8.44,22.32,0,0,17.31,4.25,49.09-4.57h-26.24s7.5-11.2,21.21-15.29c-3.07-1.99-6.59-3.23-10.36-2.71,0,0-7.13-1.13-7.13-9.6,0,0-31.27,13.42-35.01,9.85Z"/>
      <path class="cls-2" d="M251.2,84.02s1.1,11.55,8.25,19.25l-3.3,6.05s-1.1,6.6,0,8.8c1.1,2.2,3.3,8.25,8.8,7.7,0,0,.55,13.75,6.33,18.15,3.68,2.81,6.81,6.05,11.16,8.47,0,0,1.77,4.73-4.83,6.93-6.6,2.2-21.45,2.75-21.45,2.75,0,0-14.3.55-67.65,34.1l.91,3.41-9.16,2.09s-3.27-3.14-8.64-13.76c-2.1,3.54-4.93,5.7-4.93,5.7,5.5.67,19.46,22.14,19.46,22.14,25.28,6.71,20.53,14.95,20.53,14.95l16.39,7.18c3.61-.61,7.74-1.47,12.51-2.65l-1.54,24.54v8.14c-.16.04-.34.06-.52.08l-.46,7.39-1.65,19.25,4.17,36.3s-5.27,6.6-5.27,11,5.27,7.15,5.27,7.15c0,0,6.37,23.71,5.24,31.05s.13,67.2.13,67.2c0,0,10.03,113.51,15.68,131.58,0,0,4.52,9.04,0,16.94,0,0,4.58,2.26,2.01,5.65,0,0-7.09,14.68-2.01,15.25,0,0-21.86,9-30.39,18.52.22.54.4,1.08.5,1.63.37,1.94-.9,3.44-3.23,4.63,1.48,1.11,7.14,2.38,27.41.58,31.26-2.78,47.94-1.74,48.98-2.43,1.04-.69,2.78-1.04,2.08-5.91-.69-4.86-1.87-17.01-1.87-17.01v-13.55s-5.65-7.34-3.39-9.04c2.26-1.69,3.39-.56,3.39-6.21s-2.82-6.21-2.82-12.99,5.65-172.8,5.65-172.8l42.51,139.17,17.22,48.23,5.02,22.42c.82,1.4,2.27,3.32,4.71,5.02,4.52,3.14,35.01-9.85,35.01-9.85,0,0,2.26-5.08,0-8.47-2.26-3.39-7.91-7.34-7.91-13.55,0-2.75-3.44-23.06-7.27-44.83l-25.01-127.21-.06.34-15.15-71.35s-.03,0-.03,0c4.3-1.36,8.66-2.87,13.07-4.55,0,0,6.6-1.65-4.4-41.25l-4.82-47.69-1.07.52s.35-.52.86-2.61l-.47-4.67.81-.41-.34,5.08,56.79,7.73-1.33-14.98c-.91-7.65-2.32-15.93-4.37-18.85l-1.58-1.11c-5.34,0-36.28-25.47-36.28-25.47l-1.41-9.74-8.28,9.38s3.21-3.95,8.28-9.38c-5.19-5.33-11.62-11.4-18.34-16.5,0,0-38.84-5.24-44.72-14.17h-.03c6.13-2.39,11.32-5.98,12.3-7.28,1.65-2.2,6.05-17.6,6.05-17.6l5.5-1.65s4.4-3.3,4.95-7.15,1.1-8.25,0-12.1c-1.1-3.85-3.85-4.95-3.3-7.7.55-2.75,3.94-9.35,3.94-9.35,0,0,1.57-15.95-6.69-27.5-4.24-5.93-4.26-7.8-3.29-8.21l-32.46-6.09s-34.1,3.3-40.15,35.2Z"/>
    </g>
    <path class="cls-7" d="M524.05,36.85s4.85-4.85,0-8.25c-4.85-3.4-14.38-3.4-15.44-8.25-1.06-4.85-4.46-3.4-5.91-4.37s-2.43,4.37-2.43,4.37l23.78,16.5Z"/>
    <path class="cls-7" d="M573.76,609.13s-7.82,3.36-16.11,6.26c.24.62.37.97.37.97-7.28.97-2.43,18.44-2.43,18.44h28.64c3.43-3.77-2.35-12.39-6.04-17.12-2.02-1.18-4.44-3.61-4.44-8.55Z"/>
    <path class="cls-7" d="M569.35,595.44c-1.86-2.3-3.5-4.98-3.5-8.33,0-.56-.15-1.86-.41-3.75l-9.72-30.04-1.26,4.11s-8.75,16.52-10.01,24.32c6.05,15.24,11.66,29.71,13.16,33.59,8.31-2.88,16.13-6.21,16.13-6.21,0,0,0-.02.02-.04l-4.42-13.66Z"/>
    <path class="cls-7" d="M528.22,457.98c-2.09-4.33-3.94-7.49-4.17-6.16-.02.09-.04.14-.08.15,0,0-.02-.02-.03-.02-.07-.02-.17-.14-.29-.4-.12-.25-.28-.62-.45-1.07-.03-.07-.05-.13-.08-.21-.2-.52-.42-1.16-.66-1.88-.01-.04-.02-.07-.04-.11-.11-.32-.22-.67-.34-1.03-.02-.07-.04-.13-.07-.2-.39-1.21-.83-2.6-1.28-4.1-.03-.11-.07-.22-.1-.33-.1-.31-.19-.64-.29-.97-.07-.24-.14-.47-.21-.71-.05-.18-.11-.37-.16-.55-.61-2.03-1.24-4.18-1.87-6.37-.19-.67-.38-1.33-.58-2-.02-.06-.04-.13-.06-.19-.1-.33-.19-.66-.28-.99-.08-.3-.17-.59-.25-.89-.03-.11-.06-.22-.09-.33-.14-.51-.29-1.01-.43-1.51-.02-.06-.03-.11-.05-.17-.33-1.16-.65-2.29-.95-3.38-.01-.05-.03-.09-.04-.14-.4-1.44-.78-2.8-1.13-4.04-.15-.52-.28-1.02-.42-1.5-.45-1.62-.82-2.97-1.08-3.92-.1-.37-.19-.67-.25-.92-.04-.14-.07-.25-.09-.34-.05-.19-.09-.32-.09-.32,0,0,0,0,0,0-1.18,2.41-4.84,4.33-9.4,5.85-.65.22-1.32.43-2.01.63.53-.18,1.05-.38,1.56-.57.16-.06.32-.13.48-.19.35-.14.71-.28,1.05-.43.18-.08.36-.16.55-.24.32-.14.63-.29.94-.43.19-.09.37-.18.55-.27.3-.15.6-.31.89-.46.18-.1.35-.19.52-.29.29-.17.58-.34.86-.51.16-.1.32-.2.48-.3.29-.19.57-.38.85-.57.14-.1.28-.19.41-.29.3-.22.59-.45.87-.68.1-.08.21-.16.3-.24.38-.32.74-.64,1.08-.98,0,0,0,0,0,0,0,0,0,0,0,0h0s0,0,0,0c.11-.1.2-.22.3-.32.19-.2.38-.39.55-.6.12-.14.22-.28.34-.42.15-.19.3-.37.44-.56.11-.15.2-.3.3-.45.13-.19.26-.39.37-.59.09-.15.18-.31.26-.47.11-.21.21-.41.31-.62.07-.16.15-.32.21-.48.09-.22.18-.45.26-.69.05-.16.11-.31.16-.47.08-.26.14-.53.2-.8.03-.14.07-.27.1-.41.08-.41.14-.84.17-1.27,1.46-17.96-6.79-80.08-22.33-102.41,0,0-64.81,7.89-83.23-.63,0,0-18.16,68.58-5.08,107.89,0,0,5.68,7.32,20.61,10.39-4.43-.61-8.47-1.72-11.14-3.63l21.08,184.47s3.67,14.08-10.54,17.96c-.26.07-.51.17-.77.24-13.71,4.09-21.21,15.29-21.21,15.29h34.46l8.74-5.82v5.82h11.8l-6.95-20.38-.32-194.06c1.77-.4,3.66-.9,5.66-1.54,0,0,16.99,1.46,18.93,5.34l17.96,35.92,22.99,55.79c3.24-18.09,5.9-32.6,5.9-32.6l5.37-25.28Z"/>
    <path class="cls-7" d="M523.97,451.97s-.02-.02-.03-.02c0,0,.02.03.03.02Z"/>
    <path class="cls-7" d="M514.23,420.38c-.15-.52-.28-1.02-.42-1.5.13.48.27.98.42,1.5Z"/>
    <path class="cls-7" d="M512.73,414.96c-.1-.37-.19-.68-.25-.92.07.24.15.55.25.92Z"/>
    <path class="cls-7" d="M520.12,440.95c-.05-.18-.11-.37-.16-.55.05.18.11.37.16.55Z"/>
    <path class="cls-7" d="M516.4,428.12c-.02-.06-.03-.11-.05-.17.02.06.03.11.05.17Z"/>
    <path class="cls-7" d="M522.01,447.05c-.39-1.21-.83-2.6-1.28-4.1.46,1.5.89,2.89,1.28,4.1Z"/>
    <path class="cls-7" d="M520.62,442.62c-.1-.31-.19-.64-.29-.97.1.32.2.65.29.97Z"/>
    <path class="cls-7" d="M516.92,429.96c-.03-.11-.06-.22-.09-.33.03.11.06.22.09.33Z"/>
    <path class="cls-7" d="M517.46,431.84c-.1-.33-.19-.66-.28-.99.09.33.19.66.28.99Z"/>
    <path class="cls-7" d="M518.09,434.03c-.19-.67-.38-1.33-.58-2,.19.67.38,1.33.58,2Z"/>
    <path class="cls-7" d="M523.65,451.55c-.12-.25-.28-.62-.45-1.07.17.45.33.82.45,1.07Z"/>
    <path class="cls-7" d="M523.12,450.28c-.2-.52-.42-1.16-.66-1.88.24.72.47,1.36.66,1.88Z"/>
    <path class="cls-7" d="M515.39,424.57s-.03-.09-.04-.14c.01.05.03.09.04.14Z"/>
    <path class="cls-7" d="M522.41,448.28c-.11-.32-.22-.67-.34-1.03.12.36.23.71.34,1.03Z"/>
    <path class="cls-7" d="M508.3,416.45c.16-.1.32-.2.48-.3-.16.1-.32.2-.48.3Z"/>
    <path class="cls-7" d="M514.87,409.98c.11-.21.21-.41.31-.62-.1.21-.2.42-.31.62Z"/>
    <path class="cls-7" d="M514.23,411.04c.13-.19.25-.39.37-.59-.12.2-.24.39-.37.59Z"/>
    <path class="cls-7" d="M515.39,408.88c.09-.22.18-.45.26-.69-.08.23-.16.46-.26.69Z"/>
    <path class="cls-7" d="M513.49,412.04c.15-.19.3-.37.44-.56-.14.19-.29.38-.44.56Z"/>
    <path class="cls-7" d="M515.81,407.72c.08-.26.14-.53.2-.8-.06.27-.12.54-.2.8Z"/>
    <path class="cls-7" d="M512.3,413.38s0,0,0,0c0,0,.04.13.09.32-.05-.19-.09-.32-.09-.32h0Z"/>
    <path class="cls-7" d="M512.6,413.06c.19-.2.38-.39.55-.6-.18.2-.37.4-.55.6Z"/>
    <path class="cls-7" d="M516.11,406.5c.08-.41.14-.84.17-1.27-.04.43-.1.86-.17,1.27Z"/>
    <path class="cls-7" d="M505.47,417.98c.19-.09.37-.18.55-.27-.18.09-.36.18-.55.27Z"/>
    <polygon class="cls-7" points="512.29 413.38 512.3 413.38 512.29 413.38 512.29 413.38"/>
    <path class="cls-7" d="M503.98,418.66c.18-.08.36-.16.55-.24-.18.08-.36.16-.55.24Z"/>
    <path class="cls-7" d="M506.91,417.25c.18-.1.35-.19.52-.29-.17.1-.35.19-.52.29Z"/>
    <path class="cls-7" d="M502.44,419.28c.16-.06.32-.13.48-.19-.16.06-.32.13-.48.19Z"/>
    <path class="cls-7" d="M512.29,413.38c-1.18,2.41-4.84,4.33-9.4,5.85,4.56-1.52,8.22-3.44,9.4-5.85,0,0,0,0,0,0,0,0,0,0,0,0Z"/>
    <path class="cls-7" d="M509.62,415.58c.14-.1.28-.19.41-.29-.14.1-.28.19-.41.29Z"/>
    <path class="cls-7" d="M510.91,414.61c.1-.08.21-.16.3-.24-.1.08-.2.16-.3.24Z"/>
    <path class="cls-7" d="M502.21,45.58l19.32,10.87,8.14-13.14-2.02-3.17-33.08-22.88h-2.95l-9.06,14.05v2.14l11.1,5.79,4.18-5.79c7.35-.12,4.37,12.13,4.37,12.13Z"/>
    <path class="cls-7" d="M405.14,219.34c.56,0,1.09.41,1.58,1.11,2.05,2.92,3.46,11.2,4.37,18.85.93,7.83,1.33,14.98,1.33,14.98-1.46-.49,3.88,22.33-3.4,27.18-7.28,4.85-2.91,16.46-2.91,16.46.56,1.74,2.19,3.14,4.62,4.27,25.7,4.88,83.23.63,83.23.63,0,0-.04-.06-.1-.14-.12-.17-.22-.31-.33-.47-.38-.54-.75-1.07-1.08-1.56-.16-.23-.3-.43-.45-.64-.38-.55-.79-1.14-1.21-1.74-.49-.7-.98-1.41-1.44-2.07-.52-.75-.99-1.43-1.38-1.98-.11-.16-.22-.32-.31-.44-.08-.11-.15-.21-.21-.31-.08-.12-.14-.21-.2-.29-.04-.06-.08-.12-.11-.16-.05-.07-.07-.1-.07-.1,0,0,.02.03.07.1.03.04.07.1.11.16.05.08.12.17.2.29.06.09.14.19.21.31.09.13.2.28.31.44.34.5.8,1.14,1.38,1.98.41.59.9,1.29,1.44,2.07.42.6.83,1.19,1.21,1.74.15.21.29.42.45.64.44.63.82,1.17,1.08,1.56.11.16.21.31.33.47.04.05.06.09.1.14,5.82-7.28,1.94-19.41,1.94-19.41-4.85-19.41-4.37-27.18-4.37-27.18,0,0,1.23-5.32,3.14-11.62,2.16-7.14,2.88-14.18,1.18-20.13,5.11-6.96,9.22-13.27,13.21-18.27,11.82-18.95,10.62-26.19,10.62-26.19-.39-1.29-.99-2.55-1.72-3.78-.28.07-.44-.14-.43-.7-2.01-3.11-4.9-5.95-7.83-8.36,4.15,3.09,7.85,6.39,7.83,8.35,0,0,0,0,0,0,.15.23.29.46.43.7,1.98-.51,10.15-15.5,11.42-28.26,1.46-14.56-2.91-68.92-11.65-85.42,0,0,2.43.97,4.85-3.88l-13.98-8.25-6.4-4.85s.49-11.65-4.37-12.13c0,0-1.06,6.31-8.54,12.13-7.48,5.82,11.45,13.1,11.45,13.1,0,0,4.37,39.31,2.43,45.62-1.94,6.31,0,38.83,2.91,37.37,0,0-2.43,17.47-7.77,17.96-10.19,16.02-22.81,23.67-22.81,23.67-15.05-11.77-15.53-3.28-16.99-5.22-1.46-1.94,0-5.34,0-5.34,0,0,5.34-7.77,14.08-5.34,0,0,2.43-.49,4.37-3.4,0,0,1.94,1.46,6.79-.97,4.85-2.43,5.34-8.25,5.34-8.25,0,0,2.43-13.1-9.71-30.58,0,0,6.31-5.82,2.43-16.5-3.88-10.68-14.08-9.71-14.08-9.71,0,0-1.79-10.19-23.46-11.16,0,0-47.89,7.28-32.35,47.56,0,0,.49,6.79-5.34,17.47,0,0-9.71,22.81,33,20.87,0,0,.02,0,.06,0,.06,0,.11,0,.17,0,.06,0,.13,0,.22,0,.11,0,.22,0,.33-.01.35-.02.8-.04,1.34-.06.04,0,.08,0,.12,0,.57-.03,1.23-.06,1.95-.09.07,0,.15,0,.22-.01.61-.03,1.27-.06,1.94-.09.91-.04,1.76-.08,2.55-.12.49-.02.99-.04,1.48-.07.46-.02.91-.04,1.33-.06,1.22-.06,2.26-.1,3.15-.14.04,0,.08,0,.12,0,.52-.02,1.01-.05,1.45-.07.03,0,.06,0,.08,0,.18,0,.35-.02.51-.02.28-.01.53-.02.74-.03.2,0,.38-.02.53-.02.21,0,.38-.02.49-.02.09,0,.16,0,.19,0-.03,0-.09,0-.19,0-.11,0-.27.01-.49.02-.15,0-.33.02-.53.02-.22,0-.46.02-.74.03-.16,0-.33.02-.51.02-.03,0-.05,0-.08,0-.42.02-.9.04-1.45.07-.04,0-.08,0-.12,0-.96.04-2.03.09-3.15.14-.42.02-.87.04-1.33.06-.49.02-.99.04-1.48.07-.79.04-1.65.07-2.55.12-.68.03-1.33.06-1.94.09-.07,0-.15,0-.22.01-.63.03-1.27.06-1.95.09-.04,0-.08,0-.12,0-.43.02-.89.04-1.34.06-.11,0-.22,0-.33.01-.09,0-.16,0-.22,0-.06,0-.11,0-.17,0-.03,0-.06,0-.06,0v5.34c-3.4-.49-8.74,2.43-8.74,2.43,0,0-3.41,5.27-3.41,4.26s-20.2-3.03-27.28,0c-7.07,3.03-31.32,9.09-31.32,9.09,0,0,30.94,25.47,36.28,25.47h0Z"/>
    <path class="cls-7" d="M440.37,172.71c.45-.02.91-.04,1.34-.06-.54.02-.99.05-1.34.06Z"/>
    <path class="cls-7" d="M454.58,172.07c.54-.02,1.02-.05,1.45-.07-.44.02-.93.04-1.45.07Z"/>
    <path class="cls-7" d="M441.83,172.64c.67-.03,1.32-.06,1.95-.09-.72.03-1.38.06-1.95.09Z"/>
    <path class="cls-7" d="M489.34,296.18c-.58-.83-1.03-1.48-1.38-1.98.38.55.86,1.23,1.38,1.98Z"/>
    <path class="cls-7" d="M493.96,302.82c-.04-.05-.07-.09-.1-.14.06.09.1.14.1.14Z"/>
    <path class="cls-6" d="M604.77,614.92s-1.18,12.15-1.87,17.01c-.12.84-.16,1.53-.15,2.13.24.41.37.64.37.64-.11.04-.22.07-.33.1.24,2.18,1.42,2.51,2.2,3.03,1.04.69,17.72-.35,48.98,2.43,31.26,2.78,27.79-1.74,27.79-1.74-3.13-11.12-33.5-23.61-33.5-23.61-5.08.56-43.48,0-43.48,0Z"/>
    <path class="cls-6" d="M497.47,605.32c0,8.47-7.13,9.6-7.13,9.6-12.51-1.73-22.23,15.97-22.23,15.97,36.13,11.46,55.93,6.6,55.93,6.6,8.34,3.13,12.19-25.89,8.44-22.32-3.74,3.57-35.01-9.85-35.01-9.85Z"/>
    <path class="cls-6" d="M787.34,111.29l-5.5-10.45-3.85-6.05-6.05,1.65,14.85,23.65c5.5-1.65.55-8.8.55-8.8Z"/>
    <polygon class="cls-6" points="727.27 217.63 727.27 217.63 727.27 217.63 727.27 217.63"/>
    <path class="cls-6" d="M669.87,242.29h0l-.56-8.9c13.62,3.38,22.17,4.16,27.54,3.84,7.06-2.38,8.7-4.49,8.7-4.49.23-.13.44-.25.66-.38l1.04-3.9s.89.8,2.51,1.8c11.44-7.07,16.7-13.59,17.39-13.24-1.11-6.4.02-11.12.02-11.12l17.78-15.36c2.6-.52,11.41-12.27,17.35-20.58l6.88-26.23,4.95-1.1,3.3-6.05h-7.15s18.42-9.37,19.09-9.64c-.76.29-22.49-38.04-22.49-38.04h-4.3l-13.65,11.48,5.98,9.8h7.67s2.2,1.65,0,12.1v-12.1s-8.8,2.2-11.55,2.75c-2.75.55-1.65,4.95-1.65,4.95l4.4,12.1c-2.15,7.53-4.23,14.26-6.23,20.31-4.52,13.67-8.61,23.76-12.03,31.13-6.69,14.38-10.88,18.41-10.88,18.41h-8.25l-9.13,28.62,9.13-34.12c-53.35-33.55-67.65-34.1-67.65-34.1,0,0-14.85-.55-21.45-2.75-6.6-2.2-4.83-6.93-4.83-6.93,4.35-2.42,7.48-5.67,11.16-8.47,5.78-4.4,6.33-18.15,6.33-18.15,5.5.55,7.7-5.5,8.8-7.7,1.1-2.2,0-8.8,0-8.8l-3.3-6.05c7.15-7.7,8.25-19.25,8.25-19.25-6.05-31.9-40.15-35.2-40.15-35.2l-32.46,6.09c.97.41.95,2.28-3.29,8.21-8.25,11.55-6.69,27.5-6.69,27.5,0,0,3.39,6.6,3.94,9.35.55,2.75-2.2,3.85-3.3,7.7s-.55,8.25,0,12.1,4.95,7.15,4.95,7.15l5.5,1.65s4.4,15.4,6.05,17.6c.97,1.3,6.17,4.89,12.3,7.28h-.03c-5.88,8.93-44.72,14.17-44.72,14.17-8.4,6.37-16.34,14.27-21.98,20.32-5.07,5.44-8.28,9.38-8.28,9.38l-16.46,10.76h0c-3.19,5.12-7.31,11.08-12.68,17.99,2.32,5.45.92,13.85-.95,20.69-1.74,6.35-3.9,11.34-3.9,11.34,0,0,21.72-5.04,29.81-5.6.25.05.47.05.68.04l.17-.08,1.07-.52,9.61-4.67.9-.44,10.45-7.7,3.11,1.56,2.39,1.19-.99,9.81c.77,4.21,1.38,5.11,1.38,5.11l-1.8-.88-4.08,40.41c-11,39.6-4.4,41.25-4.4,41.25,4.41,1.67,8.77,3.18,13.07,4.54,0,0-.03,0-.03,0l-17.65,83.16,1.22,5.76-1.26-3.95-6.96,32.78-5.37,25.28s-2.66,14.52-5.9,32.6c-1.6,8.91-3.34,18.69-4.97,28.03l-.18-.58c-3.47,19.86-6.42,37.44-6.42,39.98,0,6.21-5.65,10.16-7.91,13.55-2.26,3.39,0,8.47,0,8.47,0,0,30.49,12.99,35.01,9.85.32-.22.58-.45.86-.67-.19-.45-.29-.73-.29-.73,0,0,.05-.63.09-1.64-.04-.11-.06-.17-.06-.17,0,0,.09-1.14.14-2.8-.01,1.15-.05,2.17-.08,2.97.1.3.37.96.87,1.83-.21.18-.46.36-.68.53.15.34.35.76.65,1.28,3.24-2.84,4.1-5.82,4.1-5.82,0,0-1.13-14.68,2.26-15.81,3.39-1.13,3.95-3.95,3.95-10.73,0-.49.06-1.05.16-1.66,1.26-7.8,10.01-24.32,10.01-24.32l1.26-4.11,2.82-9.23c-.73-4.17-1.37-8.54-1.93-12.96.66,3.71,1.32,7.45,1.97,11.15l43.36-141.95s5.65,166.03,5.65,172.8-2.82,7.34-2.82,12.99,1.13,4.52,3.39,6.21c2.26,1.69-3.39,9.04-3.39,9.04v13.55h43.48c5.08-.56-2.01-15.25-2.01-15.25-2.57-3.39,2.01-5.65,2.01-5.65-4.52-7.91,0-16.94,0-16.94,5.65-18.07,15.68-131.58,15.68-131.58,0,0,1.26-59.86.13-67.2-1.13-7.34,5.24-31.05,5.24-31.05,0,0,5.27-2.75,5.27-7.15s-5.27-11-5.27-11l4.17-36.3-1.65-19.25-.57-9.04h0c-.14-2.31-2.86-22.07-1.4-22.21Z"/>
    <path class="cls-6" d="M696.85,237.24c8.61-.51,9.08-3.84,9.08-3.84l.28-1.03c-.22.13-.43.25-.66.38,0,0-1.64,2.11-8.7,4.49Z"/>
    <path class="cls-6" d="M744.96,190.55l-17.78,15.36s-1.13,4.72-.02,11.12c-.69-.35-5.95,6.18-17.39,13.24,3.92,2.43,12.21,6.08,23.12,2.58,6.74-2.17,11.69-8.65,15.12-15.25,4.42-8.5,6.33-17.2,6.33-17.2l5.26-20.06,2.72-10.36c-5.94,8.3-14.75,20.06-17.35,20.58ZM727.27,217.63s0,0,0,0h0s0,0,0,0Z"/>
    <path class="cls-6" d="M669.87,242.29c-1.47.14,1.25,19.91,1.4,22.21h0l-1.4-22.21h0Z"/>
    <path class="cls-6" d="M496.38,240.21c-.59,1.38-.7,2.84-.95,4.67,1.88-6.84,3.27-15.24.95-20.69,0,0,1.46,12.62,0,16.02Z"/>
    <path class="cls-6" d="M523.26,250.05c-.33.31-.68.51-1.07.52l-.17.08c.85-.07,1.25-.61,1.25-.61Z"/>
    <path class="cls-6" d="M550.11,254.91s-.61-.9-1.38-5.11l-.43,4.23,1.8.88Z"/>
    <path class="cls-6" d="M522.19,250.58c.39-.01.74-.21,1.07-.52l-1.07.52Z"/>
    <path class="cls-6" d="M509.06,206.21l-12.68,17.98c5.36-6.91,9.49-12.87,12.68-17.98Z"/>
    <path class="cls-6" d="M494.67,244.61c-1.91,6.3-3.14,11.62-3.14,11.62,0,0,2.16-5,3.9-11.34.25-1.83.36-3.29.95-4.67,1.46-3.4,0-16.02,0-16.02l12.68-17.98c-3.99,5-8.1,11.31-13.21,18.27,1.7,5.95.99,12.99-1.18,20.13Z"/>
    <path class="cls-3" d="M171.61,187.96c2.86-4.82,4.34-12.19-4.61-20.12,0,0,9.05-15.43-10.02-18.45l-3.83-23.18-2.06,5.65c8.12,28.43,15.31,45.78,20.52,56.09Z"/>
    <path class="cls-2" d="M234.03,267.97v-8.14l-.52,8.22c.18-.02.36-.04.52-.08Z"/>
    <path class="cls-2" d="M226.73,636.95c-.11-.55-.28-1.09-.5-1.63-1.52,1.7-2.63,3.41-3.1,5.1,0,0-.42.56.38,1.16,2.33-1.18,3.6-2.69,3.23-4.63Z"/>
    <path class="cls-3" d="M153.84,114.82c-2.75-.55-11.55-2.75-11.55-2.75h7.67l5.98-9.8-13.65-11.48h-4.3s-21.72,38.33-22.49,38.04c.67.27,19.09,9.64,19.09,9.64h-7.15l3.3,6.05,4.95,1.1,14.85,56.65s6.05,27.5,21.45,32.45c15.4,4.95,25.63-4.38,25.63-4.38h0s1.32,4.93,1.32,4.93c0,0,.91,6.58,24.12,2.65l-16.39-7.18s4.75-8.24-20.53-14.95c0,0-13.96-21.46-19.46-22.14,0,0,2.83-2.17,4.93-5.7-5.21-10.31-12.39-27.66-20.52-56.09l2.06-5.65-.05-.3s.07-.04.2-.11l2.19-6.03s1.1-4.4-1.65-4.95Z"/>
    <g>
      <path class="cls-3" d="M122.54,76.87s-47.7.33-42.05,38.42c.48,3.23.89,5.94,1.23,8.23l-3.74,19.12s-4.71.65-6.9,2.28c-2.2,1.63-5.96,3.91,0,16.6,0,0-16.63,11.72,1.88,26.37l-32.01,32.56-10.67-68.37s7.22-7.81,7.53-12.37c.31-4.56-1.57-5.06-3.14-6.51-1.79-1.66-7.53-3.58-7.53-3.58,0,0-3.14-2.93,0,9.77l-13.81,14-6.28-2.28s-.94,6.51,6.9,7.81c0,0,0,78.13,3.14,81.06,3.14,2.93,5.96,20.18,33.26,8.14,0,0,4.39-1.32,7.53,4.22,0,0,9.33-8.45,10.16-6.18s0,23.77,0,23.77c0,0-.43,8.46-7.33,23.77,0,0-3.77,7.81,9.1,17.91,0,0-21.23,56.66,7.35,186.59,0,0,15.2,76.32,13.98,102.81,0,0,2.43,5.05,6.08,6.94l-.61,13.25s-14.59,2.52-12.16,17.03c0,0-.61,10.09,43.78,0l-4.86-8.2s-8.51-15.77-6.08-20.18c2.43-4.42,6.08-4.42,6.08-4.42,0,0,6.08-9.46-4.26-17.66,0,0,4.86-6.94,4.26-10.72-.61-3.78-5.47-27.12-5.47-27.12,0,0,7.3-58.03,4.86-136.87l21.89,87.04s17.02,83.89,17.63,92.09l4.86,6.31s9.12,34.06,6.69,37.21c0,0-9.12,1.26-6.08,3.78,3.04,2.52,1.82,6.31,12.77,6.31,8.71,0,33.94.39,42.98-4.21-.8-.6-.38-1.16-.38-1.16.47-1.68,1.58-3.4,3.1-5.1-3.61-8.75-21.77-15.99-28.07-15.4-6.69.63-7.3-24.6-7.3-24.6,0,0,4.86-.63,4.26-5.05-.61-4.42-8.98-93.35-8.98-93.35l-3.18-85.78s-9.73-99.03-18.85-99.03c0,0,6.69-1.89,7.9-6.31,1.22-4.42-4.26-15.77-6.08-15.77s-7.3-42.89,0-43.52,11.23,11.35,20.2,10.72c8.98-.63,10.8-3.78,10.8-3.78,0,0,28.01,15.73,36.57,14.59l.52-8.22v-17.09l-10.97-4.8c-23.2,3.93-24.12-2.65-24.12-2.65l-1.32-4.93h0s-10.23,9.33-25.63,4.38c-15.4-4.95-21.45-32.45-21.45-32.45l-14.85-56.65-4.95-1.1-3.3-6.05h7.15s-18.42-9.37-19.09-9.64c.76.29,22.49-38.04,22.49-38.04h4.3l13.65,11.48-5.98,9.8h-7.67s8.8,2.2,11.55,2.75c2.75.55,1.65,4.95,1.65,4.95l-2.19,6.03c.88-.52,4.37-2.87,4.65-7.27.32-5.03,6.47-31.7-22.63-41.67l-6.24,2.1-6.54-2.1Z"/>
      <path class="cls-3" d="M25.89,139.29c-2.63-11.45.66-12.68.66-12.68l7.1,4.84,7.62-7.84-11.57-12.54h-2.89L0,139.43v1.5c1.97,5.18,12.88,10.91,12.88,10.91l13.01-12.54Z"/>
      <path class="cls-3" d="M19.2,112.57s-3.28-1.61-4.88,5.13c0,0-9.35,5.84-12.74,14.59l.81,2.63,20.74-21.07-3.93-1.28Z"/>
    </g>
    <polygon class="cls-7" points="516.95 515.87 528.22 457.98 554.47 557.43 544.46 581.75 516.95 515.87"/>
  </g>
</svg>