<svg width="956" height="613" viewBox="0 0 956 613" fill="none" xmlns="http://www.w3.org/2000/svg">
<g clip-path="url(#clip0_2209_668)">
<path d="M533.309 581.049C533.259 582.008 533.219 582.606 533.219 582.606C533.219 582.606 533.309 582.871 533.509 583.298C533.739 583.128 533.989 582.966 534.189 582.795C533.679 581.97 533.419 581.334 533.319 581.058L533.309 581.049Z" fill="black"/>
<path d="M602.914 601.865C602.914 602.122 602.934 602.359 602.954 602.577C603.064 602.539 603.174 602.511 603.284 602.482C603.284 602.482 603.154 602.254 602.914 601.875V601.865Z" fill="black"/>
<path d="M648.43 583.697H604.938C604.938 583.697 643.348 584.229 648.43 583.697Z" fill="black"/>
<path d="M557.789 584.096C557.789 584.096 557.799 584.134 557.809 584.143C566.101 581.381 573.924 578.201 573.924 578.201C573.924 578.201 566.101 581.362 557.789 584.096Z" fill="black"/>
<path d="M569.513 565.207L565.602 553.74C565.862 555.534 566.012 556.768 566.012 557.3C566.012 560.47 567.652 563.024 569.513 565.207Z" fill="black"/>
<path d="M573.934 578.174L573.914 578.212C573.914 582.901 576.335 585.208 578.355 586.328C576.825 584.467 575.655 583.233 575.655 583.233L573.934 578.174Z" fill="black"/>
<path d="M929.321 0.113281C929.321 0.113281 919.639 4.33733 918.338 9.54858L923.57 16.2501L931.162 13.5923C931.162 13.5923 936.493 15.2344 930.892 24.1951L937.224 33.9247C937.224 33.9247 937.514 33.7918 938.134 33.7064C937.834 33.7633 937.534 33.8298 937.224 33.9247L928.451 25.4861C928.451 25.4861 934.803 15.8894 931.162 13.5923L919.439 22.0309C919.439 22.0309 918.228 24.7172 925.3 33.1558C932.372 41.5944 904.884 112.577 904.884 112.577L895.182 120.247H889.12L860.412 138.662C860.412 138.662 849.499 138.282 847.068 140.969C844.637 143.655 840.596 139.051 840.596 139.051V132.91L849.089 125.62L855.961 112.188C855.961 112.188 864.043 111.809 866.874 105.278C869.704 98.7473 867.274 89.5493 867.274 89.5493L872.935 73.0517C872.935 73.0517 873.746 66.9102 864.043 64.2239L860.812 52.7098C860.812 52.7098 837.365 11.2762 796.934 34.2949C796.934 34.2949 791.682 38.5189 799.365 55.7853C799.365 55.7853 789.252 53.099 789.662 66.9102C789.662 66.9102 781.58 72.169 794.113 87.9546C794.113 87.9546 784.41 99.1364 800.175 109.882L801.795 120.627C801.795 120.627 803.416 126 818.78 134.058L817.57 138.662C817.57 138.662 812.318 139.573 812.718 141.804C813.119 144.035 779.969 148.639 779.969 148.639L768.246 153.622C768.246 153.622 765.835 156.982 762.554 161.33L759.833 171.164L754.572 190.205C754.572 190.205 752.661 198.463 748.24 206.532C744.809 212.806 739.858 218.957 733.116 221.007C722.203 224.339 713.91 220.875 709.989 218.558C708.859 219.223 707.679 219.887 706.428 220.552L706.148 221.53C706.148 221.53 705.678 224.69 697.066 225.175C691.724 226.883 683.282 228.734 670.078 229.978L671.478 251.06C671.609 252.949 711.18 250.823 740.088 225.573C742.349 227.263 744.959 228.877 748.03 230.357C748.03 230.357 771.887 214.629 772.287 211.553C772.287 211.553 758.943 277.164 764.605 295.199C764.605 295.199 757.733 310.159 758.543 313.614C758.543 313.614 748.76 357.155 746.9 389.903C745.039 422.651 740.368 419.547 740.368 419.547C728.245 430.169 744.569 437.25 748.29 438.133C752.021 439.016 747.82 452.732 747.82 452.732C744.089 454.944 737.097 498.751 737.097 498.751C737.097 498.751 732.896 566.896 731.505 578.837C730.105 590.788 722.643 589.012 722.643 589.012C694.665 590.341 691.864 606.716 691.864 606.716C691.864 606.716 731.035 613.797 745.489 612.914C759.944 612.031 750.621 587.693 750.621 587.693C750.621 587.693 775.798 512.467 777.669 488.575C779.529 464.683 785.591 447.863 785.591 447.863C804.706 445.651 799.575 434.593 799.575 434.593C799.575 434.593 794.913 431.935 797.714 429.723C800.515 427.511 811.698 382.376 811.698 382.376L819.16 432.371C819.16 432.371 817.76 436.795 816.359 441.664C814.959 446.534 829.883 447.863 829.883 447.863C829.883 447.863 835.475 461.133 828.023 478.39C820.561 495.647 832.684 580.156 832.684 580.156L828.023 582.814V603.612C862.062 611.129 884.439 606.269 884.439 606.269C890.971 595.211 862.522 587.247 862.522 587.247C862.522 587.247 852.26 581.048 856.931 579.729C861.602 578.41 869.524 443.885 869.524 443.885L882.118 439.016C891.441 429.277 882.588 425.746 880.878 424.853C879.167 423.961 882.118 420.43 882.118 420.43V324.995L879.627 319.29C882.188 317.762 883.949 315.892 884.689 313.614L880.568 302.489V239.726L883.879 183.162C883.879 183.162 906.115 163.598 909.756 154.771C913.397 145.943 913.797 146.712 913.397 142.497C912.997 138.273 924.31 133.29 931.192 109.882C938.064 86.4738 944.126 44.6604 942.105 42.3538C942.105 42.3538 947.356 42.7335 947.356 39.6675C947.356 36.6015 946.956 35.8326 946.956 35.8326L956.039 27.9066V24.1856L932.462 0.113281H929.321Z" fill="#B1A6E7"/>
<path d="M937.166 2.09869L953.121 17.9792C955.641 17.2863 953.121 13.0243 953.121 13.0243L943.698 5.07925V2.09869C940.297 -2.61896 937.156 2.09869 937.156 2.09869H937.166Z" fill="#EAE7F9"/>
<path d="M355.25 229.598L355.72 234.031L356.06 229.219L355.25 229.598Z" fill="#CDC7F0"/>
<path d="M502.356 43.2651C502.356 43.2651 505.336 31.6276 497.984 31.751C502.836 32.2161 502.356 43.2651 502.356 43.2651Z" fill="#B1A6E7"/>
<path d="M490.305 53.9539L493.045 54.438C493.045 54.438 491.225 53.5742 490.305 53.9539Z" fill="#B1A6E7"/>
<path d="M684.75 44.907L687.491 45.3911C687.491 45.3911 685.67 44.5273 684.75 44.907Z" fill="black"/>
<path d="M410.836 286.846C429.261 294.933 494.089 287.444 494.089 287.444C494.089 287.444 436.543 291.478 410.836 286.846Z" fill="#EAE7F9"/>
<path d="M153.191 119.811L153.341 119.422C153.211 119.498 153.141 119.526 153.141 119.526L153.191 119.811Z" fill="#CDC7F0"/>
<path d="M372.496 585.719C368.754 582.33 372.606 609.877 380.938 606.906C380.938 606.906 398.253 610.94 430.042 602.568H403.794C403.794 602.568 411.296 591.936 425.01 588.054C421.939 586.165 418.418 584.988 414.647 585.482C414.647 585.482 407.515 584.409 407.515 576.369C407.515 576.369 376.237 589.108 372.496 585.719Z" fill="#B1A6E7"/>
<path d="M251.268 79.7531C251.268 79.7531 252.369 90.7167 259.521 98.0257L256.22 103.769C256.22 103.769 255.119 110.033 256.22 112.122C257.32 114.21 259.521 119.953 265.022 119.431C265.022 119.431 265.572 132.483 271.354 136.659C275.035 139.326 278.166 142.402 282.517 144.699C282.517 144.699 284.288 149.189 277.686 151.277C271.084 153.366 256.23 153.888 256.23 153.888C256.23 153.888 241.926 154.41 188.561 186.256L189.471 189.493L180.308 191.477C180.308 191.477 177.037 188.496 171.666 178.416C169.565 181.776 166.734 183.826 166.734 183.826C172.236 184.462 186.2 204.842 186.2 204.842C211.487 211.211 206.736 219.033 206.736 219.033L223.13 225.848C226.741 225.269 230.872 224.453 235.644 223.333L234.103 246.627V254.354C233.943 254.392 233.763 254.411 233.583 254.43L233.123 261.444L231.473 279.717L235.644 314.174C235.644 314.174 230.372 320.439 230.372 324.615C230.372 328.792 235.644 331.402 235.644 331.402C235.644 331.402 242.016 353.908 240.885 360.876C239.755 367.843 241.015 424.664 241.015 424.664C241.015 424.664 251.048 532.41 256.7 549.563C256.7 549.563 261.221 558.144 256.7 565.642C256.7 565.642 261.281 567.788 258.71 571.005C258.71 571.005 251.618 584.94 256.7 585.481C256.7 585.481 234.834 594.024 226.301 603.061C226.521 603.573 226.701 604.086 226.801 604.608C227.171 606.45 225.901 607.873 223.57 609.003C225.051 610.057 230.712 611.262 250.988 609.554C282.257 606.915 298.942 607.902 299.982 607.247C301.022 606.592 302.763 606.26 302.063 601.637C301.372 597.024 300.192 585.491 300.192 585.491V572.629C300.192 572.629 294.54 565.661 296.801 564.048C299.062 562.443 300.192 563.516 300.192 558.153C300.192 552.79 297.371 552.258 297.371 545.823C297.371 539.387 303.023 381.797 303.023 381.797L345.545 513.9L362.77 559.681L367.791 580.963C368.611 582.292 370.062 584.114 372.502 585.728C377.024 588.709 407.522 576.378 407.522 576.378C407.522 576.378 409.783 571.556 407.522 568.338C405.262 565.12 399.61 561.371 399.61 555.476C399.61 552.866 396.169 533.587 392.338 512.922L367.321 392.172L367.261 392.494L352.107 324.767H352.077C356.378 323.476 360.739 322.043 365.15 320.448C365.15 320.448 371.752 318.882 360.749 281.293L355.928 236.024L354.858 236.518C354.858 236.518 355.208 236.024 355.718 234.04L355.248 229.607L356.058 229.218L355.718 234.04L412.524 241.378L411.193 227.158C410.283 219.897 408.873 212.037 406.822 209.265L405.242 208.212C399.9 208.212 368.951 184.035 368.951 184.035L367.541 174.79L359.259 183.693C359.259 183.693 362.47 179.944 367.541 174.79C362.35 169.73 355.918 163.968 349.196 159.127C349.196 159.127 310.345 154.153 304.463 145.677H304.433C310.565 143.408 315.756 140 316.737 138.766C318.387 136.678 322.788 122.06 322.788 122.06L328.29 120.494C328.29 120.494 332.691 117.361 333.241 113.707C333.792 110.052 334.342 105.876 333.241 102.221C332.141 98.5668 329.39 97.5226 329.94 94.9122C330.491 92.3019 333.882 86.037 333.882 86.037C333.882 86.037 335.452 70.8968 327.19 59.9333C322.949 54.3044 322.928 52.5293 323.899 52.1402L291.43 46.3594C291.43 46.3594 257.32 49.4918 251.268 79.7721V79.7531Z" fill="#B1A6E7"/>
<path d="M524.201 34.9788C524.201 34.9788 529.052 30.375 524.201 27.1477C519.349 23.9203 509.817 23.9203 508.756 19.3166C507.696 14.7128 504.295 16.0892 502.845 15.1684C501.394 14.2477 500.414 19.3166 500.414 19.3166L524.201 34.9788Z" fill="#EAE7F9"/>
<path d="M573.922 578.201C573.922 578.201 566.1 581.391 557.808 584.143C558.048 584.732 558.178 585.064 558.178 585.064C550.896 585.985 555.747 602.568 555.747 602.568H584.395C587.826 598.989 582.045 590.807 578.354 586.317C576.333 585.197 573.912 582.89 573.912 578.201H573.922Z" fill="#EAE7F9"/>
<path d="M569.509 565.206C567.648 563.023 566.008 560.479 566.008 557.299C566.008 556.767 565.858 555.533 565.597 553.739L555.875 525.225L554.614 529.126C554.614 529.126 545.862 544.807 544.602 552.211C550.653 566.677 556.265 580.413 557.765 584.096C566.078 581.362 573.9 578.201 573.9 578.201C573.9 578.201 573.9 578.182 573.92 578.163L569.499 565.196L569.509 565.206Z" fill="#EAE7F9"/>
<path d="M528.372 434.726C526.282 430.616 524.431 427.617 524.201 428.879C524.181 428.964 524.161 429.012 524.121 429.021C524.121 429.021 524.101 429.002 524.091 429.002C524.021 428.983 523.921 428.87 523.801 428.623C523.681 428.385 523.521 428.034 523.351 427.607C523.321 427.541 523.301 427.484 523.271 427.408C523.071 426.914 522.851 426.307 522.611 425.623C522.601 425.585 522.591 425.557 522.571 425.519C522.461 425.215 522.351 424.883 522.231 424.541C522.211 424.475 522.191 424.418 522.161 424.351C521.771 423.203 521.33 421.883 520.88 420.459C520.85 420.355 520.81 420.251 520.78 420.146C520.68 419.852 520.59 419.539 520.49 419.225C520.42 418.998 520.35 418.779 520.28 418.551C520.23 418.381 520.17 418.2 520.12 418.029C519.51 416.103 518.88 414.062 518.25 411.983C518.059 411.347 517.869 410.72 517.669 410.084C517.649 410.027 517.629 409.961 517.609 409.904C517.509 409.591 517.419 409.278 517.329 408.964C517.249 408.68 517.159 408.404 517.079 408.12C517.049 408.015 517.019 407.911 516.989 407.806C516.849 407.322 516.699 406.848 516.559 406.373C516.539 406.316 516.529 406.269 516.509 406.212C516.179 405.11 515.859 404.038 515.559 403.003C515.549 402.956 515.529 402.918 515.519 402.87C515.119 401.503 514.739 400.212 514.388 399.035C514.238 398.542 514.108 398.067 513.968 397.612C513.518 396.074 513.148 394.792 512.888 393.891C512.788 393.539 512.698 393.255 512.638 393.017C512.598 392.884 512.568 392.78 512.548 392.695C512.498 392.514 512.458 392.391 512.458 392.391C511.278 394.678 507.617 396.501 503.055 397.944C502.405 398.153 501.735 398.352 501.045 398.542C501.575 398.371 502.095 398.181 502.605 398.001C502.765 397.944 502.925 397.877 503.085 397.82C503.435 397.688 503.795 397.555 504.136 397.412C504.316 397.336 504.496 397.26 504.686 397.184C505.006 397.052 505.316 396.909 505.626 396.776C505.816 396.691 505.996 396.605 506.176 396.52C506.476 396.378 506.776 396.226 507.066 396.083C507.246 395.988 507.416 395.903 507.587 395.808C507.877 395.647 508.167 395.485 508.447 395.324C508.607 395.229 508.767 395.134 508.927 395.039C509.217 394.859 509.497 394.678 509.777 394.498C509.917 394.403 510.057 394.318 510.187 394.223C510.487 394.014 510.777 393.796 511.058 393.577C511.158 393.501 511.268 393.426 511.358 393.35C511.738 393.046 512.098 392.742 512.438 392.419C512.548 392.324 512.638 392.21 512.738 392.116C512.928 391.926 513.118 391.745 513.288 391.546C513.408 391.413 513.508 391.28 513.628 391.147C513.778 390.967 513.928 390.796 514.068 390.616C514.178 390.473 514.268 390.331 514.368 390.189C514.498 390.008 514.629 389.818 514.739 389.629C514.829 389.486 514.919 389.334 514.999 389.182C515.109 388.983 515.209 388.793 515.309 388.594C515.379 388.442 515.459 388.29 515.519 388.138C515.609 387.929 515.699 387.711 515.779 387.483C515.829 387.331 515.889 387.189 515.939 387.037C516.019 386.79 516.079 386.534 516.139 386.278C516.169 386.145 516.209 386.022 516.239 385.889C516.319 385.499 516.379 385.091 516.409 384.683C517.869 367.635 509.617 308.669 494.073 287.473C494.073 287.473 429.244 294.962 410.819 286.875C410.819 286.875 392.654 351.973 405.738 389.287C405.738 389.287 411.419 396.235 426.354 399.149C421.922 398.57 417.881 397.517 415.21 395.704L436.296 570.807C436.296 570.807 439.967 584.172 425.753 587.855C425.493 587.922 425.243 588.017 424.983 588.083C411.269 591.965 403.767 602.597 403.767 602.597H438.237L446.979 597.072V602.597H458.783L451.831 583.252L451.511 399.045C453.281 398.665 455.172 398.191 457.172 397.583C457.172 397.583 474.167 398.969 476.108 402.652L494.073 436.748L517.069 489.705C520.31 472.534 522.971 458.761 522.971 458.761L528.342 434.764L528.372 434.726Z" fill="#EAE7F9"/>
<path d="M524.116 429.021C524.116 429.021 524.096 429.002 524.086 429.002C524.086 429.002 524.106 429.03 524.116 429.021Z" fill="#B1A6E7"/>
<path d="M514.373 399.035C514.223 398.542 514.093 398.067 513.953 397.611C514.083 398.067 514.223 398.542 514.373 399.035Z" fill="#B1A6E7"/>
<path d="M512.875 393.891C512.775 393.54 512.685 393.245 512.625 393.018C512.695 393.245 512.775 393.54 512.875 393.891Z" fill="#B1A6E7"/>
<path d="M522.155 424.351C521.765 423.202 521.325 421.883 520.875 420.459C521.335 421.883 521.765 423.202 522.155 424.351Z" fill="#B1A6E7"/>
<path d="M520.767 420.145C520.667 419.851 520.577 419.538 520.477 419.225C520.577 419.528 520.677 419.842 520.767 420.145Z" fill="#B1A6E7"/>
<path d="M517.608 409.912C517.508 409.599 517.418 409.286 517.328 408.973C517.418 409.286 517.518 409.599 517.608 409.912Z" fill="#B1A6E7"/>
<path d="M518.236 411.992C518.046 411.356 517.856 410.73 517.656 410.094C517.846 410.73 518.036 411.356 518.236 411.992Z" fill="#B1A6E7"/>
<path d="M523.27 427.417C523.069 426.924 522.849 426.316 522.609 425.633C522.849 426.316 523.079 426.924 523.27 427.417Z" fill="#B1A6E7"/>
<path d="M515.532 403.011C515.532 403.011 515.502 402.926 515.492 402.879C515.502 402.926 515.522 402.964 515.532 403.011Z" fill="#B1A6E7"/>
<path d="M515.016 389.163C515.126 388.963 515.226 388.774 515.326 388.574C515.226 388.774 515.126 388.973 515.016 389.163Z" fill="#B1A6E7"/>
<path d="M514.375 390.169C514.505 389.989 514.625 389.799 514.745 389.609C514.625 389.799 514.505 389.98 514.375 390.169Z" fill="#B1A6E7"/>
<path d="M515.539 388.12C515.629 387.911 515.719 387.693 515.799 387.465C515.719 387.683 515.639 387.901 515.539 388.12Z" fill="#B1A6E7"/>
<path d="M513.633 391.119C513.783 390.939 513.933 390.768 514.073 390.588C513.933 390.768 513.783 390.949 513.633 391.119Z" fill="#B1A6E7"/>
<path d="M512.742 392.087C512.932 391.897 513.122 391.717 513.292 391.518C513.112 391.707 512.922 391.897 512.742 392.087Z" fill="#B1A6E7"/>
<path d="M516.258 385.86C516.338 385.471 516.398 385.062 516.428 384.654C516.388 385.062 516.328 385.471 516.258 385.86Z" fill="#B1A6E7"/>
<path d="M504.125 397.402C504.305 397.326 504.485 397.25 504.675 397.174C504.495 397.25 504.315 397.326 504.125 397.402Z" fill="#B1A6E7"/>
<path d="M507.055 396.064C507.235 395.969 507.405 395.884 507.575 395.789C507.405 395.884 507.225 395.969 507.055 396.064Z" fill="#B1A6E7"/>
<path d="M509.766 394.478C509.906 394.383 510.046 394.298 510.176 394.203C510.036 394.298 509.896 394.383 509.766 394.478Z" fill="#B1A6E7"/>
<path d="M511.055 393.558C511.155 393.482 511.265 393.406 511.355 393.33C511.255 393.406 511.155 393.482 511.055 393.558Z" fill="#B1A6E7"/>
<path d="M502.351 43.2649L521.676 53.5829L529.819 41.1101L527.798 38.1011L494.709 16.3828H491.758L482.695 29.7194V31.7508L493.798 37.2468L497.98 31.7508C505.332 31.6369 502.351 43.2649 502.351 43.2649Z" fill="#EAE7F9"/>
<path d="M405.258 208.203C405.818 208.203 406.348 208.592 406.838 209.257C408.889 212.028 410.299 219.888 411.209 227.15C412.14 234.582 412.54 241.369 412.54 241.369C411.079 240.904 416.421 262.565 409.139 267.169C401.857 271.773 406.228 282.793 406.228 282.793C406.788 284.445 408.419 285.774 410.849 286.846C436.557 291.479 494.103 287.444 494.103 287.444C494.103 287.444 494.063 287.387 494.003 287.312C493.883 287.15 493.783 287.017 493.673 286.865C493.293 286.353 492.923 285.85 492.592 285.385C492.432 285.166 492.292 284.976 492.142 284.777C491.762 284.255 491.352 283.695 490.932 283.125C490.442 282.461 489.952 281.787 489.492 281.161C488.971 280.449 488.501 279.803 488.111 279.281C488.001 279.129 487.891 278.977 487.801 278.863C487.721 278.759 487.651 278.664 487.591 278.569C487.511 278.455 487.451 278.37 487.391 278.294C487.441 278.37 487.511 278.455 487.591 278.569C487.651 278.655 487.731 278.75 487.801 278.863C487.891 278.987 488.001 279.129 488.111 279.281C488.451 279.756 488.911 280.363 489.492 281.161C489.902 281.721 490.392 282.385 490.932 283.125C491.352 283.695 491.762 284.255 492.142 284.777C492.292 284.976 492.432 285.176 492.592 285.385C493.033 285.983 493.413 286.495 493.673 286.865C493.783 287.017 493.883 287.16 494.003 287.312C494.043 287.359 494.063 287.397 494.103 287.444C499.925 280.534 496.043 269.02 496.043 269.02C491.192 250.596 491.672 243.22 491.672 243.22C491.672 243.22 492.903 238.17 494.813 232.19C496.974 225.413 497.694 218.73 495.993 213.082C501.105 206.476 505.216 200.486 509.207 195.74C521.03 177.752 519.83 170.88 519.83 170.88C519.44 169.655 518.84 168.459 518.11 167.292C517.83 167.358 517.67 167.159 517.68 166.627C515.669 163.675 512.778 160.979 509.847 158.692C513.998 161.625 517.7 164.757 517.68 166.618C517.83 166.836 517.97 167.054 518.11 167.282C520.09 166.798 528.263 152.569 529.533 140.457C530.993 126.636 526.622 75.0363 517.88 59.3741C517.88 59.3741 520.31 60.2949 522.731 55.6911L508.747 47.86L502.345 43.2563C502.345 43.2563 502.835 32.1978 497.974 31.7422C497.974 31.7422 496.914 37.7318 489.432 43.2563C481.949 48.7808 500.885 55.6911 500.885 55.6911C500.885 55.6911 505.256 93.0052 503.315 98.9948C501.375 104.984 503.315 135.853 506.226 134.467C506.226 134.467 503.796 151.05 498.454 151.515C488.261 166.722 475.638 173.984 475.638 173.984C460.583 162.811 460.103 170.87 458.643 169.029C457.182 167.187 458.643 163.96 458.643 163.96C458.643 163.96 463.984 156.584 472.727 158.891C472.727 158.891 475.158 158.426 477.098 155.664C477.098 155.664 479.039 157.049 483.89 154.743C488.741 152.436 489.231 146.912 489.231 146.912C489.231 146.912 491.662 134.477 479.519 117.884C479.519 117.884 485.831 112.36 481.949 102.222C478.068 92.0844 467.865 93.0052 467.865 93.0052C467.865 93.0052 466.075 83.3326 444.399 82.4118C444.399 82.4118 396.495 89.3222 412.04 127.557C412.04 127.557 412.53 134.002 406.698 144.14C406.698 144.14 396.985 165.792 439.707 163.95C439.707 163.95 439.728 163.95 439.768 163.95C439.828 163.95 439.878 163.95 439.938 163.95C439.998 163.95 440.068 163.95 440.158 163.95C440.268 163.95 440.378 163.95 440.488 163.941C440.838 163.922 441.288 163.903 441.828 163.884C441.868 163.884 441.908 163.884 441.948 163.884C442.518 163.855 443.178 163.827 443.899 163.798C443.969 163.798 444.049 163.798 444.119 163.789C444.729 163.76 445.389 163.732 446.059 163.703C446.97 163.665 447.82 163.628 448.61 163.59C449.1 163.571 449.6 163.552 450.09 163.523C450.551 163.504 451.001 163.485 451.421 163.466C452.641 163.409 453.681 163.371 454.572 163.333C454.612 163.333 454.652 163.333 454.692 163.333C455.212 163.314 455.702 163.286 456.142 163.267C456.172 163.267 456.202 163.267 456.222 163.267C456.402 163.267 456.572 163.248 456.732 163.248C457.012 163.238 457.262 163.229 457.473 163.219C457.673 163.219 457.853 163.2 458.003 163.2C458.213 163.2 458.383 163.181 458.493 163.181C458.583 163.181 458.653 163.181 458.683 163.181C458.653 163.181 458.593 163.181 458.493 163.181C458.383 163.181 458.223 163.191 458.003 163.2C457.853 163.2 457.673 163.219 457.473 163.219C457.252 163.219 457.012 163.238 456.732 163.248C456.572 163.248 456.402 163.267 456.222 163.267C456.192 163.267 456.172 163.267 456.142 163.267C455.722 163.286 455.242 163.305 454.692 163.333C454.652 163.333 454.612 163.333 454.572 163.333C453.611 163.371 452.541 163.419 451.421 163.466C451.001 163.485 450.551 163.504 450.09 163.523C449.6 163.542 449.1 163.561 448.61 163.59C447.82 163.628 446.96 163.656 446.059 163.703C445.379 163.732 444.729 163.76 444.119 163.789C444.049 163.789 443.969 163.789 443.899 163.798C443.268 163.827 442.628 163.855 441.948 163.884C441.908 163.884 441.868 163.884 441.828 163.884C441.398 163.903 440.938 163.922 440.488 163.941C440.378 163.941 440.268 163.941 440.158 163.95C440.068 163.95 439.998 163.95 439.938 163.95C439.878 163.95 439.828 163.95 439.768 163.95C439.738 163.95 439.707 163.95 439.707 163.95V169.019C436.307 168.554 430.965 171.326 430.965 171.326C430.965 171.326 427.554 176.328 427.554 175.369C427.554 174.411 407.348 172.493 400.266 175.369C393.194 178.246 368.938 183.998 368.938 183.998C368.938 183.998 399.886 208.175 405.228 208.175L405.258 208.203Z" fill="#EAE7F9"/>
<path d="M440.492 163.94C440.942 163.921 441.402 163.902 441.833 163.883C441.292 163.902 440.842 163.93 440.492 163.94Z" fill="#B1A6E7"/>
<path d="M454.711 163.334C455.251 163.315 455.731 163.286 456.161 163.268C455.721 163.286 455.231 163.305 454.711 163.334Z" fill="#B1A6E7"/>
<path d="M441.953 163.874C442.623 163.846 443.274 163.817 443.904 163.789C443.183 163.817 442.523 163.846 441.953 163.874Z" fill="#B1A6E7"/>
<path d="M489.482 281.141C488.902 280.353 488.452 279.736 488.102 279.262C488.482 279.784 488.962 280.429 489.482 281.141Z" fill="#B1A6E7"/>
<path d="M494.1 287.443C494.06 287.395 494.03 287.358 494 287.311C494.06 287.395 494.1 287.443 494.1 287.443Z" fill="#B1A6E7"/>
<path d="M604.944 583.697C604.944 583.697 603.764 595.23 603.073 599.843C602.953 600.641 602.913 601.296 602.923 601.865C603.163 602.254 603.293 602.473 603.293 602.473C603.183 602.511 603.073 602.539 602.963 602.568C603.203 604.637 604.384 604.95 605.164 605.444C606.204 606.099 622.889 605.112 654.158 607.75C685.427 610.389 681.956 606.099 681.956 606.099C678.825 595.543 648.446 583.688 648.446 583.688C643.365 584.219 604.954 583.688 604.954 583.688L604.944 583.697Z" fill="#CDC7F0"/>
<path d="M497.61 574.584C497.61 582.624 490.478 583.697 490.478 583.697C477.965 582.054 468.242 598.856 468.242 598.856C504.382 609.734 524.188 605.121 524.188 605.121C532.53 608.092 536.381 580.545 532.63 583.934C528.889 587.323 497.61 574.584 497.61 574.584Z" fill="#CDC7F0"/>
<path d="M787.561 105.639L782.059 95.7194L778.208 89.9766L772.156 91.5428L787.01 113.992C792.512 112.426 787.561 105.639 787.561 105.639Z" fill="#CDC7F0"/>
<path d="M670.058 229.987L669.498 221.539C683.122 224.748 691.674 225.488 697.045 225.184C704.107 222.925 705.748 220.922 705.748 220.922C705.978 220.799 706.188 220.685 706.408 220.562L707.448 216.86C707.448 216.86 708.339 217.619 709.959 218.568C721.402 211.857 726.664 205.668 727.354 206.001C726.244 199.926 727.374 195.445 727.374 195.445L745.159 180.865C747.76 180.371 756.572 169.218 762.514 161.33L769.396 136.432L774.347 135.388L777.648 129.645H770.496C770.496 129.645 788.921 120.751 789.592 120.494C788.831 120.77 767.095 84.3858 767.095 84.3858H762.794L749.14 95.2829L755.122 104.585H762.794C762.794 104.585 764.995 106.152 762.794 116.071V104.585C762.794 104.585 753.992 106.674 751.241 107.196C748.49 107.718 749.59 111.894 749.59 111.894L753.992 123.38C751.841 130.528 749.76 136.916 747.76 142.659C743.239 155.635 739.147 165.212 735.726 172.208C729.035 185.858 724.843 189.683 724.843 189.683H716.591L707.458 216.85L716.591 184.463C663.226 152.616 648.922 152.094 648.922 152.094C648.922 152.094 634.068 151.572 627.466 149.484C620.864 147.395 622.635 142.906 622.635 142.906C626.986 140.608 630.117 137.523 633.798 134.866C639.579 130.689 640.129 117.637 640.129 117.637C645.631 118.159 647.832 112.416 648.932 110.328C650.032 108.24 648.932 101.975 648.932 101.975L645.631 96.2322C652.783 88.9231 653.883 77.9596 653.883 77.9596C647.832 47.6793 613.722 44.5469 613.722 44.5469L581.253 50.3277C582.223 50.7168 582.203 52.4919 577.962 58.1208C569.71 69.0843 571.27 84.2245 571.27 84.2245C571.27 84.2245 574.661 90.4894 575.211 93.0997C575.761 95.7101 573.01 96.7542 571.91 100.409C570.81 104.063 571.36 108.24 571.91 111.894C572.46 115.549 576.862 118.681 576.862 118.681L582.363 120.248C582.363 120.248 586.764 134.866 588.415 136.954C589.385 138.188 594.587 141.596 600.718 143.864H600.688C594.807 152.341 555.956 157.315 555.956 157.315C547.553 163.361 539.611 170.86 533.969 176.603C528.898 181.767 525.687 185.507 525.687 185.507L509.222 195.72C506.032 200.58 501.91 206.238 496.539 212.797C498.86 217.97 497.459 225.944 495.589 232.436C493.848 238.464 491.688 243.201 491.688 243.201C491.688 243.201 513.414 238.417 521.506 237.885C521.756 237.932 521.976 237.932 522.186 237.923L522.356 237.847L523.427 237.353L533.039 232.921L533.939 232.503L544.392 225.194L547.503 226.675L549.894 227.804L548.904 237.116C549.674 241.112 550.284 241.967 550.284 241.967L548.484 241.131L544.402 279.49C533.399 317.079 540.001 318.645 540.001 318.645C544.412 320.23 548.774 321.664 553.075 322.955H553.045L535.39 401.892L536.61 407.36L535.35 403.61L528.388 434.726L523.016 458.722C523.016 458.722 520.356 472.505 517.115 489.667C515.514 498.125 513.774 507.408 512.143 516.274L511.963 515.723C508.492 534.575 505.541 551.262 505.541 553.673C505.541 559.568 499.89 563.317 497.629 566.535C495.369 569.753 497.629 574.575 497.629 574.575C497.629 574.575 528.128 586.906 532.649 583.925C532.969 583.716 533.229 583.498 533.509 583.289C533.319 582.862 533.219 582.596 533.219 582.596C533.219 582.596 533.269 581.998 533.309 581.039C533.269 580.935 533.249 580.878 533.249 580.878C533.249 580.878 533.339 579.796 533.389 578.22C533.379 579.312 533.339 580.28 533.309 581.039C533.409 581.324 533.679 581.951 534.18 582.776C533.969 582.947 533.719 583.118 533.499 583.28C533.649 583.602 533.849 584.001 534.15 584.495C537.39 581.799 538.251 578.97 538.251 578.97C538.251 578.97 537.12 565.035 540.511 563.963C543.902 562.89 544.462 560.213 544.462 553.778C544.462 553.313 544.522 552.781 544.622 552.202C545.883 544.798 554.635 529.117 554.635 529.117L555.896 525.215L558.716 516.454C557.986 512.496 557.346 508.348 556.786 504.152C557.446 507.674 558.106 511.224 558.756 514.736L602.129 379.994C602.129 379.994 607.78 537.593 607.78 544.02C607.78 550.446 604.959 550.987 604.959 556.35C604.959 561.713 606.09 560.641 608.35 562.245C610.611 563.849 604.959 570.826 604.959 570.826V583.688H648.452C653.533 583.156 646.441 569.212 646.441 569.212C643.871 565.994 648.452 563.849 648.452 563.849C643.931 556.341 648.452 547.769 648.452 547.769C654.103 530.617 664.136 422.87 664.136 422.87C664.136 422.87 665.397 366.049 664.266 359.082C663.136 352.115 669.508 329.609 669.508 329.609C669.508 329.609 674.779 326.998 674.779 322.822C674.779 318.645 669.508 312.38 669.508 312.38L673.679 277.923L672.028 259.651L671.458 251.07C671.318 248.877 668.597 230.12 670.058 229.987Z" fill="#CDC7F0"/>
<path d="M697.047 225.195C705.659 224.711 706.129 221.55 706.129 221.55L706.41 220.572C706.19 220.696 705.979 220.81 705.749 220.933C705.749 220.933 704.109 222.936 697.047 225.195Z" fill="#422DA9"/>
<path d="M745.169 180.875L727.384 195.455C727.384 195.455 726.253 199.936 727.364 206.011C726.673 205.678 721.412 211.877 709.969 218.578C713.89 220.885 722.182 224.35 733.095 221.027C739.837 218.968 744.789 212.817 748.22 206.552C752.641 198.483 754.551 190.225 754.551 190.225L759.813 171.184L762.534 161.35C756.592 169.228 747.779 180.391 745.179 180.885L745.169 180.875Z" fill="#CDC7F0"/>
<path d="M670.06 229.988C668.589 230.121 671.31 248.887 671.46 251.071L670.06 229.988Z" fill="#422DA9"/>
<path d="M496.521 228.013C495.93 229.323 495.82 230.709 495.57 232.446C497.451 225.953 498.841 217.98 496.521 212.807C496.521 212.807 497.981 224.786 496.521 228.013Z" fill="#422DA9"/>
<path d="M523.404 237.353C523.074 237.648 522.724 237.837 522.334 237.847L522.164 237.923C523.014 237.856 523.414 237.344 523.414 237.344L523.404 237.353Z" fill="#422DA9"/>
<path d="M550.264 241.968C550.264 241.968 549.653 241.113 548.883 237.117L548.453 241.132L550.254 241.968H550.264Z" fill="#422DA9"/>
<path d="M522.336 237.857C522.726 237.847 523.076 237.658 523.406 237.363L522.336 237.857Z" fill="#422DA9"/>
<path d="M509.207 195.74L496.523 212.807C501.885 206.248 506.016 200.591 509.207 195.74Z" fill="#422DA9"/>
<path d="M494.813 232.191C492.902 238.171 491.672 243.221 491.672 243.221C491.672 243.221 493.832 238.475 495.573 232.457C495.823 230.719 495.933 229.334 496.523 228.024C497.984 224.796 496.523 212.817 496.523 212.817L509.207 195.75C505.216 200.496 501.105 206.486 495.993 213.092C497.694 218.74 496.983 225.423 494.813 232.2V232.191Z" fill="#422DA9"/>
<path d="M171.659 178.415C174.519 173.84 176 166.844 167.047 159.317C167.047 159.317 176.1 144.67 157.024 141.804L153.193 119.801L151.133 125.164C159.255 152.15 166.447 168.619 171.659 178.406V178.415Z" fill="#CDC7F0"/>
<path d="M234.098 254.363V246.637L233.578 254.439C233.758 254.42 233.938 254.401 234.098 254.363Z" fill="#B1A6E7"/>
<path d="M226.797 604.61C226.687 604.088 226.517 603.575 226.297 603.062C224.777 604.676 223.666 606.299 223.196 607.904C223.196 607.904 222.776 608.435 223.576 609.005C225.907 607.885 227.177 606.451 226.807 604.61H226.797Z" fill="#B1A6E7"/>
<path d="M153.882 108.99C151.131 108.467 142.329 106.379 142.329 106.379H150.001L155.983 97.0768L142.329 86.1797H138.028C138.028 86.1797 116.301 122.563 115.531 122.288C116.201 122.545 134.627 131.439 134.627 131.439H127.475L130.776 137.182L135.727 138.226L150.581 191.999C150.581 191.999 156.633 218.103 172.037 222.802C187.442 227.5 197.674 218.644 197.674 218.644L198.995 223.324C198.995 223.324 199.905 229.57 223.122 225.839L206.727 219.024C206.727 219.024 211.478 211.202 186.191 204.833C186.191 204.833 172.227 184.462 166.726 183.817C166.726 183.817 169.557 181.757 171.657 178.406C166.446 168.62 159.264 152.151 151.131 125.164L153.192 119.801L153.142 119.516C153.142 119.516 153.212 119.479 153.342 119.412L155.533 113.688C155.533 113.688 156.633 109.512 153.882 108.99Z" fill="#CDC7F0"/>
<path d="M122.573 72.9668C122.573 72.9668 74.86 73.28 80.5115 109.436C80.9917 112.502 81.4018 115.074 81.7419 117.248L78.0008 135.397C78.0008 135.397 73.2895 136.014 71.0989 137.562C68.8983 139.109 65.1372 141.273 71.0989 153.319C71.0989 153.319 54.4642 164.444 72.9794 178.35L40.9604 209.257L30.2874 144.358C30.2874 144.358 37.5094 136.945 37.8195 132.616C38.1296 128.288 36.249 127.813 34.6786 126.437C32.8881 124.861 27.1465 123.038 27.1465 123.038C27.1465 123.038 24.0056 120.257 27.1465 132.312L13.3326 145.601L7.0508 143.437C7.0508 143.437 6.11053 149.617 13.9527 150.851C13.9527 150.851 13.9527 225.014 17.0936 227.795C20.2345 230.576 23.0553 246.95 50.363 235.522C50.363 235.522 54.7543 234.269 57.8952 239.527C57.8952 239.527 67.2278 231.506 68.058 233.661C68.8883 235.816 68.058 256.224 68.058 256.224C68.058 256.224 67.6279 264.255 60.726 278.787C60.726 278.787 56.9549 286.201 69.8285 295.788C69.8285 295.788 48.5925 349.571 77.1806 472.904C77.1806 472.904 92.3849 545.349 91.1646 570.494C91.1646 570.494 93.5952 575.287 97.2463 577.081L96.6361 589.658C96.6361 589.658 82.042 592.05 84.4727 605.824C84.4727 605.824 83.8625 615.401 128.265 605.824L123.404 598.04C123.404 598.04 114.891 583.071 117.322 578.885C119.753 574.689 123.404 574.689 123.404 574.689C123.404 574.689 129.485 565.71 119.142 557.926C119.142 557.926 124.004 551.338 123.404 547.75C122.793 544.162 117.932 522.007 117.932 522.007C117.932 522.007 125.234 466.924 122.793 392.087L144.69 474.707C144.69 474.707 161.714 554.338 162.325 562.121L167.186 568.111C167.186 568.111 176.309 600.442 173.878 603.432C173.878 603.432 164.755 604.628 167.796 607.02C170.837 609.412 169.617 613.009 180.57 613.009C189.282 613.009 214.519 613.38 223.562 609.013C222.762 608.444 223.182 607.912 223.182 607.912C223.652 606.317 224.762 604.685 226.283 603.071C222.672 594.765 204.507 587.893 198.205 588.453C191.513 589.051 190.903 565.102 190.903 565.102C190.903 565.102 195.764 564.504 195.164 560.308C194.554 556.113 186.181 471.698 186.181 471.698L183 390.274C183 390.274 173.268 296.272 164.145 296.272C164.145 296.272 170.837 294.478 172.047 290.282C173.268 286.087 167.786 275.313 165.966 275.313C164.145 275.313 158.664 234.601 165.966 234.003C173.268 233.405 177.199 244.777 186.171 244.179C195.154 243.58 196.974 240.59 196.974 240.59C196.974 240.59 224.992 255.522 233.555 254.44L234.075 246.637V230.415L223.102 225.858C199.895 229.589 198.975 223.343 198.975 223.343L197.655 218.663C197.655 218.663 187.422 227.52 172.017 222.821C156.613 218.122 150.561 192.019 150.561 192.019L135.707 138.245L130.756 137.201L127.455 131.458H134.607C134.607 131.458 116.182 122.564 115.511 122.308C116.272 122.583 138.008 86.199 138.008 86.199H142.309L155.963 97.0961L149.981 106.398H142.309C142.309 106.398 151.112 108.487 153.862 109.009C156.613 109.531 155.513 113.708 155.513 113.708L153.322 119.431C154.202 118.938 157.693 116.707 157.973 112.53C158.294 107.756 164.445 82.4401 135.337 72.9763L129.095 74.9697L122.553 72.9763L122.573 72.9668Z" fill="#CDC7F0"/>
<path d="M25.8973 132.217C23.2666 121.348 26.5575 120.181 26.5575 120.181L33.6595 124.775L41.2817 117.333L29.7084 105.43H26.8176L0 132.35V133.774C1.97056 138.691 12.8836 144.13 12.8836 144.13L25.8973 132.226V132.217Z" fill="#CDC7F0"/>
<path d="M19.2031 106.855C19.2031 106.855 15.9222 105.327 14.3217 111.725C14.3217 111.725 4.96908 117.268 1.57812 125.574L2.38835 128.07L23.1342 108.07L19.2031 106.855Z" fill="#CDC7F0"/>
<path d="M517.094 489.677L528.367 434.727L554.624 529.127L544.612 552.212L517.094 489.677Z" fill="#EAE7F9"/>
</g>
<defs>
<clipPath id="clip0_2209_668">
<rect width="956" height="613" fill="white"/>
</clipPath>
</defs>
</svg>
