<svg width="957" height="614" viewBox="0 0 957 614" fill="none" xmlns="http://www.w3.org/2000/svg">
<g clip-path="url(#clip0_2209_53)">
<path d="M534.176 581.838C534.126 582.797 534.086 583.395 534.086 583.395C534.086 583.395 534.176 583.66 534.376 584.088C534.606 583.917 534.856 583.755 535.056 583.584C534.546 582.759 534.286 582.123 534.186 581.847L534.176 581.838Z" fill="black"/>
<path d="M603.781 602.654C603.781 602.911 603.801 603.148 603.821 603.366C603.931 603.328 604.041 603.3 604.151 603.271C604.151 603.271 604.021 603.043 603.781 602.664V602.654Z" fill="black"/>
<path d="M649.297 584.486H605.805C605.805 584.486 644.216 585.018 649.297 584.486Z" fill="black"/>
<path d="M558.656 584.885C558.656 584.885 558.666 584.923 558.676 584.932C566.969 582.17 574.791 578.99 574.791 578.99C574.791 578.99 566.969 582.151 558.656 584.885Z" fill="black"/>
<path d="M570.38 565.996L566.469 554.529C566.729 556.323 566.879 557.557 566.879 558.089C566.879 561.259 568.519 563.813 570.38 565.996Z" fill="black"/>
<path d="M574.801 578.963L574.781 579.001C574.781 583.69 577.202 585.997 579.223 587.117C577.692 585.256 576.522 584.022 576.522 584.022L574.801 578.963Z" fill="black"/>
<path d="M930.189 0.902344C930.189 0.902344 920.506 5.1264 919.205 10.3376L924.437 17.0392L932.029 14.3813C932.029 14.3813 937.361 16.0235 931.759 24.9842L938.091 34.7137C938.091 34.7137 938.381 34.5808 939.001 34.4954C938.701 34.5524 938.401 34.6188 938.091 34.7137L929.318 26.2751C929.318 26.2751 935.67 16.6785 932.029 14.3813L920.306 22.8199C920.306 22.8199 919.095 25.5063 926.167 33.9449C933.239 42.3835 905.752 113.367 905.752 113.367L896.049 121.036H889.987L861.279 139.451C861.279 139.451 850.366 139.072 847.935 141.758C845.505 144.444 841.463 139.84 841.463 139.84V133.699L849.956 126.409L856.828 112.977C856.828 112.977 864.91 112.598 867.741 106.067C870.572 99.5363 868.141 90.3383 868.141 90.3383L873.803 73.8408C873.803 73.8408 874.613 67.6993 864.91 65.013L861.679 53.4989C861.679 53.4989 838.233 12.0652 797.801 35.0839C797.801 35.0839 792.55 39.308 800.232 56.5744C800.232 56.5744 790.119 53.8881 790.529 67.6993C790.529 67.6993 782.447 72.958 794.98 88.7436C794.98 88.7436 785.278 99.9255 801.042 110.671L802.663 121.416C802.663 121.416 804.283 126.789 819.647 134.847L818.437 139.451C818.437 139.451 813.185 140.362 813.586 142.593C813.986 144.824 780.836 149.428 780.836 149.428L769.113 154.411C769.113 154.411 766.702 157.771 763.421 162.119L760.701 171.953L755.439 190.994C755.439 190.994 753.529 199.252 749.107 207.321C745.676 213.595 740.725 219.746 733.983 221.797C723.07 225.128 714.778 221.664 710.857 219.347C709.726 220.012 708.546 220.676 707.296 221.341L707.015 222.319C707.015 222.319 706.545 225.479 697.933 225.964C692.591 227.672 684.149 229.523 670.945 230.767L672.346 251.849C672.476 253.738 712.047 251.612 740.955 226.362C743.216 228.052 745.826 229.666 748.897 231.146C748.897 231.146 772.754 215.418 773.154 212.342C773.154 212.342 759.81 277.953 765.472 295.988C765.472 295.988 758.6 310.948 759.41 314.403C759.41 314.403 749.628 357.944 747.767 390.692C745.906 423.44 741.235 420.336 741.235 420.336C729.112 430.958 745.436 438.039 749.157 438.922C752.888 439.805 748.687 453.521 748.687 453.521C744.956 455.733 737.964 499.54 737.964 499.54C737.964 499.54 733.763 567.685 732.373 579.626C730.972 591.577 723.51 589.802 723.51 589.802C695.532 591.13 692.731 607.505 692.731 607.505C692.731 607.505 731.903 614.586 746.357 613.703C760.811 612.82 751.488 588.482 751.488 588.482C751.488 588.482 776.665 513.256 778.536 489.364C780.396 465.472 786.458 448.652 786.458 448.652C805.573 446.44 800.442 435.382 800.442 435.382C800.442 435.382 795.781 432.724 798.581 430.512C801.382 428.3 812.565 383.165 812.565 383.165L820.027 433.16C820.027 433.16 818.627 437.584 817.227 442.453C815.826 447.323 830.75 448.652 830.75 448.652C830.75 448.652 836.342 461.922 828.89 479.179C821.428 496.436 833.551 580.945 833.551 580.945L828.89 583.603V604.401C862.929 611.919 885.306 607.058 885.306 607.058C891.838 596 863.39 588.036 863.39 588.036C863.39 588.036 853.127 581.838 857.798 580.518C862.469 579.199 870.392 444.675 870.392 444.675L882.985 439.805C892.308 430.066 883.455 426.535 881.745 425.643C880.034 424.75 882.985 421.219 882.985 421.219V325.784L880.494 320.079C883.055 318.551 884.816 316.681 885.556 314.403L881.435 303.278V240.515L884.746 183.951C884.746 183.951 906.982 164.387 910.623 155.56C914.264 146.732 914.664 147.501 914.264 143.286C913.864 139.062 925.177 134.079 932.059 110.671C938.931 87.2628 944.993 45.4495 942.972 43.1429C942.972 43.1429 948.224 43.5225 948.224 40.4566C948.224 37.3906 947.824 36.6217 947.824 36.6217L956.906 28.6957V24.9747L933.329 0.902344H930.189Z" fill="#EAE7F9"/>
<path d="M938.033 2.88775L953.988 18.7683C956.509 18.0753 953.988 13.8133 953.988 13.8133L944.565 5.86831V2.88775C941.164 -1.8299 938.023 2.88775 938.023 2.88775H938.033Z" fill="#B1A6E7"/>
<path d="M356.117 230.388L356.587 234.82L356.927 230.008L356.117 230.388Z" fill="#CDC7F0"/>
<path d="M503.223 44.0541C503.223 44.0541 506.204 32.4166 498.852 32.54C503.703 33.0052 503.223 44.0541 503.223 44.0541Z" fill="#B1A6E7"/>
<path d="M491.172 54.7429L493.913 55.227C493.913 55.227 492.092 54.3633 491.172 54.7429Z" fill="#B1A6E7"/>
<path d="M685.617 45.6961L688.358 46.1802C688.358 46.1802 686.537 45.3164 685.617 45.6961Z" fill="black"/>
<path d="M411.703 287.635C430.128 295.722 494.957 288.233 494.957 288.233C494.957 288.233 437.41 292.267 411.703 287.635Z" fill="#B1A6E7"/>
<path d="M154.058 120.6L154.208 120.211C154.078 120.287 154.008 120.315 154.008 120.315L154.058 120.6Z" fill="#CDC7F0"/>
<path d="M373.363 586.508C369.622 583.119 373.473 610.666 381.805 607.695C381.805 607.695 399.12 611.729 430.909 603.357H404.662C404.662 603.357 412.164 592.725 425.878 588.843C422.807 586.954 419.286 585.777 415.515 586.271C415.515 586.271 408.383 585.198 408.383 577.158C408.383 577.158 377.104 589.897 373.363 586.508Z" fill="#EAE7F9"/>
<path d="M252.135 80.5422C252.135 80.5422 253.236 91.5057 260.388 98.8148L257.087 104.558C257.087 104.558 255.987 110.822 257.087 112.911C258.187 114.999 260.388 120.742 265.889 120.22C265.889 120.22 266.439 133.272 272.221 137.448C275.902 140.116 279.033 143.191 283.384 145.488C283.384 145.488 285.155 149.978 278.553 152.066C271.951 154.155 257.097 154.677 257.097 154.677C257.097 154.677 242.793 155.199 189.428 187.045L190.338 190.282L181.175 192.266C181.175 192.266 177.904 189.285 172.533 179.205C170.432 182.565 167.602 184.615 167.602 184.615C173.103 185.251 187.067 205.631 187.067 205.631C212.354 212 207.603 219.822 207.603 219.822L223.997 226.637C227.609 226.058 231.74 225.242 236.511 224.122L234.971 247.416V255.143C234.811 255.181 234.63 255.2 234.45 255.219L233.99 262.233L232.34 280.506L236.511 314.963C236.511 314.963 231.24 321.228 231.24 325.404C231.24 329.581 236.511 332.191 236.511 332.191C236.511 332.191 242.883 354.697 241.753 361.665C240.622 368.632 241.883 425.453 241.883 425.453C241.883 425.453 251.915 533.199 257.567 550.352C257.567 550.352 262.088 558.933 257.567 566.431C257.567 566.431 262.148 568.577 259.578 571.795C259.578 571.795 252.486 585.729 257.567 586.27C257.567 586.27 235.701 594.813 227.168 603.85C227.388 604.362 227.569 604.875 227.669 605.397C228.039 607.239 226.768 608.662 224.438 609.792C225.918 610.846 231.58 612.051 251.855 610.343C283.124 607.704 299.809 608.691 300.849 608.036C301.889 607.381 303.63 607.049 302.93 602.426C302.24 597.813 301.059 586.28 301.059 586.28V573.418C301.059 573.418 295.408 566.45 297.668 564.837C299.929 563.233 301.059 564.305 301.059 558.942C301.059 553.579 298.238 553.047 298.238 546.612C298.238 540.176 303.89 382.586 303.89 382.586L346.412 514.689L363.637 560.47L368.658 581.752C369.479 583.081 370.929 584.903 373.37 586.517C377.891 589.498 408.39 577.167 408.39 577.167C408.39 577.167 410.65 572.345 408.39 569.127C406.129 565.909 400.477 562.16 400.477 556.265C400.477 553.655 397.036 534.376 393.205 513.712L368.188 392.961L368.128 393.283L352.974 325.556H352.944C357.245 324.265 361.606 322.832 366.018 321.237C366.018 321.237 372.619 319.671 361.616 282.082L356.795 236.813L355.725 237.307C355.725 237.307 356.075 236.813 356.585 234.829L356.115 230.396L356.925 230.007L356.585 234.829L413.391 242.167L412.061 227.947C411.15 220.686 409.74 212.826 407.689 210.054L406.109 209.001C400.767 209.001 369.819 184.824 369.819 184.824L368.408 175.579L360.126 184.482C360.126 184.482 363.337 180.733 368.408 175.579C363.217 170.519 356.785 164.757 350.063 159.916C350.063 159.916 311.212 154.942 305.33 146.466H305.3C311.432 144.197 316.624 140.789 317.604 139.555C319.254 137.467 323.656 122.849 323.656 122.849L329.157 121.283C329.157 121.283 333.558 118.15 334.109 114.496C334.659 110.841 335.209 106.665 334.109 103.01C333.008 99.3558 330.258 98.3117 330.808 95.7013C331.358 93.0909 334.749 86.826 334.749 86.826C334.749 86.826 336.319 71.6859 328.057 60.7224C323.816 55.0935 323.796 53.3184 324.766 52.9292L292.297 47.1484C292.297 47.1484 258.187 50.2809 252.135 80.5612V80.5422Z" fill="#EAE7F9"/>
<path d="M525.068 35.7678C525.068 35.7678 529.919 31.1641 525.068 27.9367C520.217 24.7094 510.684 24.7094 509.624 20.1056C508.563 15.5019 505.162 16.8783 503.712 15.9575C502.262 15.0368 501.281 20.1056 501.281 20.1056L525.068 35.7678Z" fill="#B1A6E7"/>
<path d="M574.79 578.99C574.79 578.99 566.967 582.18 558.675 584.932C558.915 585.521 559.045 585.853 559.045 585.853C551.763 586.774 556.614 603.357 556.614 603.357H585.262C588.693 599.778 582.912 591.596 579.221 587.106C577.2 585.986 574.78 583.679 574.78 578.99H574.79Z" fill="#B1A6E7"/>
<path d="M570.376 565.995C568.515 563.812 566.875 561.268 566.875 558.088C566.875 557.556 566.725 556.322 566.465 554.528L556.742 526.014L555.482 529.915C555.482 529.915 546.729 545.596 545.469 553C551.52 567.466 557.132 581.202 558.632 584.885C566.945 582.151 574.767 578.99 574.767 578.99C574.767 578.99 574.767 578.971 574.787 578.952L570.366 565.986L570.376 565.995Z" fill="#B1A6E7"/>
<path d="M529.24 435.515C527.149 431.405 525.298 428.406 525.068 429.668C525.048 429.754 525.028 429.801 524.988 429.811C524.988 429.811 524.968 429.792 524.958 429.792C524.888 429.773 524.788 429.659 524.668 429.412C524.548 429.175 524.388 428.823 524.218 428.396C524.188 428.33 524.168 428.273 524.138 428.197C523.938 427.703 523.718 427.096 523.478 426.412C523.468 426.374 523.458 426.346 523.438 426.308C523.328 426.004 523.218 425.672 523.098 425.33C523.078 425.264 523.058 425.207 523.028 425.14C522.638 423.992 522.198 422.672 521.747 421.249C521.717 421.144 521.677 421.04 521.647 420.935C521.547 420.641 521.457 420.328 521.357 420.014C521.287 419.787 521.217 419.568 521.147 419.341C521.097 419.17 521.037 418.989 520.987 418.818C520.377 416.892 519.747 414.851 519.117 412.772C518.927 412.136 518.737 411.509 518.537 410.873C518.517 410.817 518.497 410.75 518.477 410.693C518.377 410.38 518.286 410.067 518.196 409.753C518.116 409.469 518.026 409.193 517.946 408.909C517.916 408.804 517.886 408.7 517.856 408.595C517.716 408.111 517.566 407.637 517.426 407.162C517.406 407.105 517.396 407.058 517.376 407.001C517.046 405.9 516.726 404.827 516.426 403.792C516.416 403.745 516.396 403.707 516.386 403.659C515.986 402.292 515.606 401.002 515.256 399.824C515.106 399.331 514.976 398.856 514.836 398.401C514.385 396.863 514.015 395.581 513.755 394.68C513.655 394.328 513.565 394.044 513.505 393.806C513.465 393.674 513.435 393.569 513.415 393.484C513.365 393.303 513.325 393.18 513.325 393.18C512.145 395.468 508.484 397.29 503.922 398.733C503.272 398.942 502.602 399.141 501.912 399.331C502.442 399.16 502.962 398.97 503.472 398.79C503.632 398.733 503.792 398.666 503.952 398.609C504.303 398.477 504.663 398.344 505.003 398.201C505.183 398.125 505.363 398.049 505.553 397.973C505.873 397.841 506.183 397.698 506.493 397.565C506.683 397.48 506.863 397.394 507.043 397.309C507.343 397.167 507.644 397.015 507.934 396.872C508.114 396.777 508.284 396.692 508.454 396.597C508.744 396.436 509.034 396.274 509.314 396.113C509.474 396.018 509.634 395.923 509.794 395.828C510.084 395.648 510.364 395.468 510.644 395.287C510.784 395.192 510.924 395.107 511.054 395.012C511.355 394.803 511.645 394.585 511.925 394.366C512.025 394.291 512.135 394.215 512.225 394.139C512.605 393.835 512.965 393.531 513.305 393.208C513.415 393.113 513.505 393 513.605 392.905C513.795 392.715 513.985 392.534 514.155 392.335C514.275 392.202 514.375 392.069 514.495 391.936C514.645 391.756 514.795 391.585 514.936 391.405C515.046 391.262 515.136 391.12 515.236 390.978C515.366 390.797 515.496 390.608 515.606 390.418C515.696 390.275 515.786 390.123 515.866 389.972C515.976 389.772 516.076 389.582 516.176 389.383C516.246 389.231 516.326 389.079 516.386 388.927C516.476 388.719 516.566 388.5 516.646 388.272C516.696 388.121 516.756 387.978 516.806 387.826C516.886 387.579 516.946 387.323 517.006 387.067C517.036 386.934 517.076 386.811 517.106 386.678C517.186 386.289 517.246 385.88 517.276 385.472C518.737 368.424 510.484 309.458 494.94 288.262C494.94 288.262 430.112 295.751 411.686 287.664C411.686 287.664 393.521 352.762 406.605 390.076C406.605 390.076 412.287 397.024 427.221 399.938C422.79 399.359 418.748 398.306 416.078 396.493L437.164 571.596C437.164 571.596 440.835 584.961 426.621 588.644C426.361 588.711 426.11 588.806 425.85 588.872C412.137 592.754 404.634 603.386 404.634 603.386H439.104L447.847 597.861V603.386H459.65L452.698 584.041L452.378 399.834C454.148 399.454 456.039 398.98 458.039 398.372C458.039 398.372 475.034 399.758 476.975 403.441L494.94 437.537L517.936 490.494C521.177 473.323 523.838 459.55 523.838 459.55L529.21 435.553L529.24 435.515Z" fill="#B1A6E7"/>
<path d="M524.983 429.81C524.983 429.81 524.963 429.791 524.953 429.791C524.953 429.791 524.973 429.819 524.983 429.81Z" fill="#B1A6E7"/>
<path d="M515.24 399.824C515.09 399.331 514.96 398.856 514.82 398.4C514.95 398.856 515.09 399.331 515.24 399.824Z" fill="#B1A6E7"/>
<path d="M513.742 394.68C513.642 394.329 513.552 394.034 513.492 393.807C513.562 394.034 513.642 394.329 513.742 394.68Z" fill="#B1A6E7"/>
<path d="M523.023 425.14C522.632 423.991 522.192 422.672 521.742 421.248C522.202 422.672 522.632 423.991 523.023 425.14Z" fill="#B1A6E7"/>
<path d="M521.634 420.934C521.534 420.64 521.444 420.327 521.344 420.014C521.444 420.317 521.544 420.631 521.634 420.934Z" fill="#B1A6E7"/>
<path d="M518.475 410.701C518.375 410.388 518.285 410.075 518.195 409.762C518.285 410.075 518.385 410.388 518.475 410.701Z" fill="#B1A6E7"/>
<path d="M519.104 412.781C518.914 412.145 518.723 411.519 518.523 410.883C518.713 411.519 518.904 412.145 519.104 412.781Z" fill="#B1A6E7"/>
<path d="M524.137 428.206C523.937 427.713 523.717 427.105 523.477 426.422C523.717 427.105 523.947 427.713 524.137 428.206Z" fill="#B1A6E7"/>
<path d="M516.399 403.8C516.399 403.8 516.369 403.715 516.359 403.668C516.369 403.715 516.389 403.753 516.399 403.8Z" fill="#B1A6E7"/>
<path d="M515.883 389.952C515.993 389.752 516.093 389.563 516.193 389.363C516.093 389.563 515.993 389.762 515.883 389.952Z" fill="#B1A6E7"/>
<path d="M515.242 390.958C515.372 390.778 515.492 390.588 515.612 390.398C515.492 390.588 515.372 390.769 515.242 390.958Z" fill="#B1A6E7"/>
<path d="M516.406 388.909C516.496 388.7 516.586 388.482 516.666 388.254C516.586 388.472 516.506 388.691 516.406 388.909Z" fill="#B1A6E7"/>
<path d="M514.5 391.909C514.65 391.728 514.8 391.557 514.94 391.377C514.8 391.557 514.65 391.738 514.5 391.909Z" fill="#B1A6E7"/>
<path d="M513.609 392.876C513.799 392.686 513.99 392.506 514.16 392.307C513.98 392.496 513.789 392.686 513.609 392.876Z" fill="#B1A6E7"/>
<path d="M517.125 386.649C517.205 386.26 517.265 385.852 517.295 385.443C517.255 385.852 517.195 386.26 517.125 386.649Z" fill="#B1A6E7"/>
<path d="M504.992 398.191C505.172 398.115 505.352 398.039 505.542 397.963C505.362 398.039 505.182 398.115 504.992 398.191Z" fill="#B1A6E7"/>
<path d="M507.922 396.853C508.102 396.758 508.272 396.673 508.442 396.578C508.272 396.673 508.092 396.758 507.922 396.853Z" fill="#B1A6E7"/>
<path d="M510.633 395.267C510.773 395.173 510.913 395.087 511.043 394.992C510.903 395.087 510.763 395.173 510.633 395.267Z" fill="#B1A6E7"/>
<path d="M511.922 394.347C512.022 394.271 512.132 394.195 512.222 394.119C512.122 394.195 512.022 394.271 511.922 394.347Z" fill="#B1A6E7"/>
<path d="M503.218 44.0539L522.544 54.372L530.686 41.8992L528.665 38.8901L495.576 17.1719H492.625L483.562 30.5085V32.5398L494.666 38.0358L498.847 32.5398C506.199 32.4259 503.218 44.0539 503.218 44.0539Z" fill="#B1A6E7"/>
<path d="M406.125 208.992C406.685 208.992 407.215 209.381 407.705 210.046C409.756 212.818 411.166 220.677 412.077 227.939C413.007 235.371 413.407 242.158 413.407 242.158C411.947 241.693 417.288 263.354 410.006 267.958C402.724 272.562 407.095 283.582 407.095 283.582C407.655 285.234 409.286 286.563 411.717 287.635C437.424 292.268 494.97 288.233 494.97 288.233C494.97 288.233 494.93 288.177 494.87 288.101C494.75 287.939 494.65 287.806 494.54 287.654C494.16 287.142 493.79 286.639 493.46 286.174C493.3 285.955 493.16 285.766 493.009 285.566C492.629 285.044 492.219 284.484 491.799 283.914C491.309 283.25 490.819 282.576 490.359 281.95C489.839 281.238 489.368 280.592 488.978 280.07C488.868 279.918 488.758 279.766 488.668 279.652C488.588 279.548 488.518 279.453 488.458 279.358C488.378 279.244 488.318 279.159 488.258 279.083C488.308 279.159 488.378 279.244 488.458 279.358C488.518 279.444 488.598 279.539 488.668 279.652C488.758 279.776 488.868 279.918 488.978 280.07C489.318 280.545 489.779 281.152 490.359 281.95C490.769 282.51 491.259 283.174 491.799 283.914C492.219 284.484 492.629 285.044 493.009 285.566C493.16 285.766 493.3 285.965 493.46 286.174C493.9 286.772 494.28 287.284 494.54 287.654C494.65 287.806 494.75 287.949 494.87 288.101C494.91 288.148 494.93 288.186 494.97 288.233C500.792 281.323 496.911 269.809 496.911 269.809C492.059 251.385 492.539 244.009 492.539 244.009C492.539 244.009 493.77 238.959 495.68 232.979C497.841 226.202 498.561 219.519 496.861 213.871C501.972 207.265 506.083 201.275 510.074 196.529C521.898 178.541 520.697 171.669 520.697 171.669C520.307 170.444 519.707 169.248 518.977 168.081C518.697 168.147 518.537 167.948 518.547 167.416C516.536 164.464 513.645 161.768 510.715 159.481C514.866 162.414 518.567 165.546 518.547 167.407C518.697 167.625 518.837 167.843 518.977 168.071C520.957 167.587 529.13 153.358 530.4 141.246C531.86 127.425 527.489 75.8254 518.747 60.1632C518.747 60.1632 521.177 61.0839 523.598 56.4802L509.614 48.6491L503.212 44.0454C503.212 44.0454 503.703 32.9869 498.841 32.5312C498.841 32.5312 497.781 38.5209 490.299 44.0454C482.817 49.5698 501.752 56.4802 501.752 56.4802C501.752 56.4802 506.123 93.7942 504.183 99.7838C502.242 105.773 504.183 136.642 507.093 135.256C507.093 135.256 504.663 151.839 499.321 152.304C489.128 167.511 476.505 174.773 476.505 174.773C461.451 163.6 460.97 171.659 459.51 169.818C458.05 167.976 459.51 164.749 459.51 164.749C459.51 164.749 464.852 157.373 473.594 159.68C473.594 159.68 476.025 159.215 477.965 156.453C477.965 156.453 479.906 157.838 484.757 155.532C489.609 153.225 490.099 147.701 490.099 147.701C490.099 147.701 492.529 135.266 480.386 118.673C480.386 118.673 486.698 113.149 482.817 103.011C478.936 92.8735 468.733 93.7942 468.733 93.7942C468.733 93.7942 466.942 84.1216 445.266 83.2009C445.266 83.2009 397.362 90.1112 412.907 128.346C412.907 128.346 413.397 134.791 407.565 144.929C407.565 144.929 397.853 166.581 440.575 164.739C440.575 164.739 440.595 164.739 440.635 164.739C440.695 164.739 440.745 164.739 440.805 164.739C440.865 164.739 440.935 164.739 441.025 164.739C441.135 164.739 441.245 164.739 441.355 164.73C441.705 164.711 442.155 164.692 442.695 164.673C442.735 164.673 442.775 164.673 442.815 164.673C443.385 164.644 444.046 164.616 444.766 164.587C444.836 164.587 444.916 164.587 444.986 164.578C445.596 164.549 446.256 164.521 446.926 164.493C447.837 164.455 448.687 164.417 449.477 164.379C449.967 164.36 450.467 164.341 450.958 164.312C451.418 164.293 451.868 164.274 452.288 164.255C453.508 164.198 454.549 164.16 455.439 164.122C455.479 164.122 455.519 164.122 455.559 164.122C456.079 164.103 456.569 164.075 457.009 164.056C457.039 164.056 457.069 164.056 457.089 164.056C457.269 164.056 457.439 164.037 457.6 164.037C457.88 164.027 458.13 164.018 458.34 164.008C458.54 164.008 458.72 163.989 458.87 163.989C459.08 163.989 459.25 163.97 459.36 163.97C459.45 163.97 459.52 163.97 459.55 163.97C459.52 163.97 459.46 163.97 459.36 163.97C459.25 163.97 459.09 163.98 458.87 163.989C458.72 163.989 458.54 164.008 458.34 164.008C458.12 164.008 457.88 164.027 457.6 164.037C457.439 164.037 457.269 164.056 457.089 164.056C457.059 164.056 457.039 164.056 457.009 164.056C456.589 164.075 456.109 164.094 455.559 164.122C455.519 164.122 455.479 164.122 455.439 164.122C454.479 164.16 453.408 164.208 452.288 164.255C451.868 164.274 451.418 164.293 450.958 164.312C450.467 164.331 449.967 164.35 449.477 164.379C448.687 164.417 447.827 164.445 446.926 164.493C446.246 164.521 445.596 164.549 444.986 164.578C444.916 164.578 444.836 164.578 444.766 164.587C444.136 164.616 443.496 164.644 442.815 164.673C442.775 164.673 442.735 164.673 442.695 164.673C442.265 164.692 441.805 164.711 441.355 164.73C441.245 164.73 441.135 164.73 441.025 164.739C440.935 164.739 440.865 164.739 440.805 164.739C440.745 164.739 440.695 164.739 440.635 164.739C440.605 164.739 440.575 164.739 440.575 164.739V169.808C437.174 169.343 431.832 172.115 431.832 172.115C431.832 172.115 428.421 177.117 428.421 176.158C428.421 175.2 408.216 173.282 401.134 176.158C394.062 179.035 369.805 184.787 369.805 184.787C369.805 184.787 400.753 208.964 406.095 208.964L406.125 208.992Z" fill="#B1A6E7"/>
<path d="M441.359 164.729C441.81 164.71 442.27 164.691 442.7 164.672C442.16 164.691 441.709 164.719 441.359 164.729Z" fill="#B1A6E7"/>
<path d="M455.578 164.123C456.118 164.104 456.598 164.076 457.029 164.057C456.588 164.076 456.098 164.094 455.578 164.123Z" fill="#B1A6E7"/>
<path d="M442.82 164.663C443.491 164.635 444.141 164.606 444.771 164.578C444.051 164.606 443.39 164.635 442.82 164.663Z" fill="#B1A6E7"/>
<path d="M490.349 281.93C489.769 281.142 489.319 280.525 488.969 280.051C489.349 280.573 489.829 281.218 490.349 281.93Z" fill="#B1A6E7"/>
<path d="M494.967 288.232C494.927 288.184 494.897 288.147 494.867 288.1C494.927 288.184 494.967 288.232 494.967 288.232Z" fill="#B1A6E7"/>
<path d="M605.811 584.486C605.811 584.486 604.631 596.019 603.941 600.632C603.821 601.43 603.781 602.085 603.791 602.654C604.031 603.043 604.161 603.262 604.161 603.262C604.051 603.3 603.941 603.328 603.831 603.357C604.071 605.426 605.251 605.739 606.031 606.233C607.071 606.888 623.756 605.901 655.025 608.539C686.294 611.178 682.823 606.888 682.823 606.888C679.692 596.332 649.313 584.477 649.313 584.477C644.232 585.008 605.821 584.477 605.821 584.477L605.811 584.486Z" fill="#CDC7F0"/>
<path d="M498.478 575.373C498.478 583.413 491.346 584.486 491.346 584.486C478.832 582.843 469.109 599.645 469.109 599.645C505.25 610.523 525.055 605.91 525.055 605.91C533.398 608.881 537.249 581.334 533.498 584.723C529.756 588.112 498.478 575.373 498.478 575.373Z" fill="#CDC7F0"/>
<path d="M788.428 106.428L782.926 96.5084L779.075 90.7656L773.023 92.3318L787.878 114.781C793.379 113.215 788.428 106.428 788.428 106.428Z" fill="#CDC7F0"/>
<path d="M670.925 230.777L670.365 222.328C683.989 225.537 692.541 226.277 697.913 225.973C704.975 223.714 706.615 221.711 706.615 221.711C706.845 221.588 707.055 221.474 707.275 221.351L708.316 217.649C708.316 217.649 709.206 218.408 710.826 219.357C722.27 212.646 727.531 206.457 728.221 206.79C727.111 200.715 728.241 196.234 728.241 196.234L746.026 181.654C748.627 181.161 757.44 170.007 763.381 162.119L770.263 137.221L775.215 136.177L778.515 130.434H771.363C771.363 130.434 789.789 121.54 790.459 121.283C789.699 121.559 767.962 85.1749 767.962 85.1749H763.661L750.007 96.072L755.989 105.374H763.661C763.661 105.374 765.862 106.941 763.661 116.86V105.374C763.661 105.374 754.859 107.463 752.108 107.985C749.357 108.507 750.458 112.683 750.458 112.683L754.859 124.169C752.708 131.317 750.628 137.705 748.627 143.448C744.106 156.424 740.015 166.001 736.594 172.997C729.902 186.647 725.711 190.472 725.711 190.472H717.458L708.326 217.639L717.458 185.252C664.093 153.405 649.789 152.883 649.789 152.883C649.789 152.883 634.935 152.361 628.333 150.273C621.731 148.184 623.502 143.695 623.502 143.695C627.853 141.398 630.984 138.313 634.665 135.655C640.446 131.478 640.997 118.426 640.997 118.426C646.498 118.948 648.699 113.206 649.799 111.117C650.899 109.029 649.799 102.764 649.799 102.764L646.498 97.0212C653.65 89.7122 654.751 78.7487 654.751 78.7487C648.699 48.4684 614.589 45.3359 614.589 45.3359L582.12 51.1167C583.09 51.5059 583.07 53.281 578.829 58.9099C570.577 69.8734 572.137 85.0135 572.137 85.0135C572.137 85.0135 575.528 91.2784 576.078 93.8888C576.628 96.4992 573.878 97.5433 572.777 101.198C571.677 104.852 572.227 109.029 572.777 112.683C573.328 116.338 577.729 119.47 577.729 119.47L583.23 121.037C583.23 121.037 587.632 135.655 589.282 137.743C590.252 138.977 595.454 142.385 601.585 144.653H601.556C595.674 153.13 556.823 158.104 556.823 158.104C548.42 164.15 540.478 171.649 534.837 177.392C529.765 182.556 526.554 186.296 526.554 186.296L510.09 196.51C506.899 201.37 502.778 207.027 497.406 213.586C499.727 218.759 498.326 226.733 496.456 233.226C494.715 239.253 492.555 243.99 492.555 243.99C492.555 243.99 514.281 239.206 522.373 238.674C522.623 238.722 522.843 238.722 523.053 238.712L523.223 238.636L524.294 238.143L533.906 233.71L534.807 233.292L545.26 225.983L548.37 227.464L550.761 228.593L549.771 237.905C550.541 241.901 551.151 242.756 551.151 242.756L549.351 241.92L545.27 280.279C534.266 317.868 540.868 319.434 540.868 319.434C545.28 321.019 549.641 322.453 553.942 323.744H553.912L536.257 402.681L537.477 408.149L536.217 404.399L529.255 435.515L523.884 459.511C523.884 459.511 521.223 473.294 517.982 490.456C516.381 498.914 514.641 508.197 513.01 517.063L512.83 516.512C509.359 535.364 506.409 552.051 506.409 554.462C506.409 560.357 500.757 564.106 498.496 567.324C496.236 570.542 498.496 575.364 498.496 575.364C498.496 575.364 528.995 587.695 533.516 584.714C533.836 584.505 534.096 584.287 534.376 584.078C534.186 583.651 534.086 583.385 534.086 583.385C534.086 583.385 534.136 582.787 534.176 581.828C534.136 581.724 534.116 581.667 534.116 581.667C534.116 581.667 534.206 580.585 534.256 579.009C534.246 580.101 534.206 581.069 534.176 581.828C534.276 582.113 534.547 582.74 535.047 583.566C534.837 583.736 534.587 583.907 534.366 584.069C534.517 584.391 534.717 584.79 535.017 585.284C538.258 582.588 539.118 579.759 539.118 579.759C539.118 579.759 537.988 565.824 541.378 564.752C544.769 563.679 545.33 561.002 545.33 554.567C545.33 554.102 545.39 553.57 545.49 552.991C546.75 545.587 555.502 529.906 555.502 529.906L556.763 526.005L559.584 517.243C558.853 513.285 558.213 509.137 557.653 504.941C558.313 508.463 558.973 512.013 559.624 515.525L602.996 380.783C602.996 380.783 608.647 538.382 608.647 544.809C608.647 551.235 605.827 551.776 605.827 557.139C605.827 562.502 606.957 561.43 609.218 563.034C611.478 564.638 605.827 571.615 605.827 571.615V584.477H649.319C654.4 583.945 647.308 570.001 647.308 570.001C644.738 566.783 649.319 564.638 649.319 564.638C644.798 557.13 649.319 548.558 649.319 548.558C654.971 531.406 665.003 423.659 665.003 423.659C665.003 423.659 666.264 366.838 665.133 359.871C664.003 352.904 670.375 330.398 670.375 330.398C670.375 330.398 675.646 327.787 675.646 323.611C675.646 319.434 670.375 313.169 670.375 313.169L674.546 278.712L672.896 260.44L672.325 251.859C672.185 249.666 669.465 230.909 670.925 230.777Z" fill="#CDC7F0"/>
<path d="M697.914 225.984C706.526 225.5 706.997 222.339 706.997 222.339L707.277 221.361C707.057 221.485 706.847 221.599 706.617 221.722C706.617 221.722 704.976 223.725 697.914 225.984Z" fill="#422DA9"/>
<path d="M746.036 181.664L728.251 196.244C728.251 196.244 727.12 200.725 728.231 206.8C727.541 206.467 722.279 212.666 710.836 219.367C714.757 221.674 723.049 225.139 733.962 221.816C740.704 219.757 745.656 213.606 749.087 207.341C753.508 199.272 755.419 191.014 755.419 191.014L760.68 171.973L763.401 162.139C757.459 170.017 748.647 181.18 746.046 181.674L746.036 181.664Z" fill="#CDC7F0"/>
<path d="M670.927 230.777C669.456 230.91 672.177 249.676 672.327 251.86L670.927 230.777Z" fill="#422DA9"/>
<path d="M497.388 228.802C496.798 230.112 496.688 231.498 496.438 233.235C498.318 226.742 499.708 218.769 497.388 213.596C497.388 213.596 498.848 225.575 497.388 228.802Z" fill="#422DA9"/>
<path d="M524.272 238.142C523.941 238.437 523.591 238.626 523.201 238.636L523.031 238.712C523.881 238.645 524.282 238.133 524.282 238.133L524.272 238.142Z" fill="#422DA9"/>
<path d="M551.131 242.757C551.131 242.757 550.521 241.902 549.75 237.906L549.32 241.921L551.121 242.757H551.131Z" fill="#422DA9"/>
<path d="M523.203 238.646C523.593 238.636 523.943 238.447 524.273 238.152L523.203 238.646Z" fill="#422DA9"/>
<path d="M510.074 196.529L497.391 213.596C502.752 207.037 506.883 201.38 510.074 196.529Z" fill="#422DA9"/>
<path d="M495.68 232.98C493.769 238.96 492.539 244.01 492.539 244.01C492.539 244.01 494.7 239.264 496.44 233.246C496.69 231.509 496.8 230.123 497.39 228.813C498.851 225.585 497.39 213.606 497.39 213.606L510.074 196.539C506.083 201.285 501.972 207.275 496.86 213.881C498.561 219.529 497.851 226.212 495.68 232.989V232.98Z" fill="#422DA9"/>
<path d="M172.526 179.204C175.387 174.629 176.867 167.633 167.914 160.106C167.914 160.106 176.967 145.46 157.892 142.593L154.061 120.59L152 125.953C160.122 152.939 167.314 169.408 172.526 179.195V179.204Z" fill="#CDC7F0"/>
<path d="M234.965 255.152V247.426L234.445 255.228C234.625 255.209 234.805 255.19 234.965 255.152Z" fill="#B1A6E7"/>
<path d="M227.664 605.399C227.554 604.877 227.384 604.364 227.164 603.852C225.644 605.465 224.533 607.088 224.063 608.693C224.063 608.693 223.643 609.224 224.443 609.794C226.774 608.674 228.044 607.24 227.674 605.399H227.664Z" fill="#B1A6E7"/>
<path d="M154.749 109.779C151.998 109.257 143.196 107.168 143.196 107.168H150.868L156.85 97.8658L143.196 86.9688H138.895C138.895 86.9688 117.169 123.353 116.398 123.077C117.069 123.334 135.494 132.228 135.494 132.228H128.342L131.643 137.971L136.594 139.015L151.448 192.788C151.448 192.788 157.5 218.892 172.904 223.591C188.309 228.289 198.542 219.433 198.542 219.433L199.862 224.113C199.862 224.113 200.772 230.359 223.989 226.628L207.594 219.813C207.594 219.813 212.346 211.991 187.058 205.622C187.058 205.622 173.094 185.252 167.593 184.606C167.593 184.606 170.424 182.546 172.524 179.195C167.313 169.409 160.131 152.94 151.998 125.953L154.059 120.59L154.009 120.306C154.009 120.306 154.079 120.268 154.209 120.201L156.4 114.477C156.4 114.477 157.5 110.301 154.749 109.779Z" fill="#CDC7F0"/>
<path d="M123.441 73.7559C123.441 73.7559 75.7271 74.0691 81.3787 110.225C81.8589 113.291 82.269 115.863 82.6091 118.037L78.868 136.186C78.868 136.186 74.1567 136.803 71.9661 138.351C69.7655 139.898 66.0044 142.062 71.9661 154.108C71.9661 154.108 55.3314 165.233 73.8466 179.139L41.8276 210.046L31.1546 145.147C31.1546 145.147 38.3766 137.734 38.6867 133.405C38.9968 129.077 37.1162 128.602 35.5458 127.226C33.7553 125.65 28.0137 123.827 28.0137 123.827C28.0137 123.827 24.8728 121.046 28.0137 133.101L14.1998 146.391L7.91799 144.226C7.91799 144.226 6.97772 150.406 14.8199 151.64C14.8199 151.64 14.8199 225.803 17.9608 228.584C21.1017 231.365 23.9225 247.739 51.2302 236.311C51.2302 236.311 55.6215 235.058 58.7623 240.316C58.7623 240.316 68.095 232.295 68.9252 234.45C69.7555 236.605 68.9252 257.013 68.9252 257.013C68.9252 257.013 68.4951 265.044 61.5931 279.576C61.5931 279.576 57.8221 286.99 70.6957 296.577C70.6957 296.577 49.4597 350.36 78.0478 473.693C78.0478 473.693 93.2521 546.138 92.0317 571.283C92.0317 571.283 94.4624 576.076 98.1135 577.87L97.5033 590.448C97.5033 590.448 82.9092 592.84 85.3399 606.613C85.3399 606.613 84.7297 616.19 129.132 606.613L124.271 598.829C124.271 598.829 115.758 583.86 118.189 579.674C120.62 575.478 124.271 575.478 124.271 575.478C124.271 575.478 130.353 566.499 120.01 558.715C120.01 558.715 124.871 552.127 124.271 548.539C123.661 544.951 118.799 522.796 118.799 522.796C118.799 522.796 126.101 467.713 123.661 392.876L145.557 475.496C145.557 475.496 162.582 555.127 163.192 562.91L168.053 568.9C168.053 568.9 177.176 601.231 174.745 604.221C174.745 604.221 165.623 605.417 168.663 607.809C171.704 610.201 170.484 613.798 181.437 613.798C190.149 613.798 215.387 614.169 224.429 609.802C223.629 609.233 224.049 608.701 224.049 608.701C224.519 607.106 225.629 605.474 227.15 603.86C223.539 595.554 205.374 588.682 199.072 589.242C192.38 589.84 191.77 565.891 191.77 565.891C191.77 565.891 196.631 565.293 196.031 561.098C195.421 556.902 187.049 472.487 187.049 472.487L183.868 391.063C183.868 391.063 174.135 297.061 165.012 297.061C165.012 297.061 171.704 295.267 172.915 291.071C174.135 286.876 168.653 276.102 166.833 276.102C165.012 276.102 159.531 235.39 166.833 234.792C174.135 234.194 178.066 245.566 187.039 244.968C196.021 244.37 197.842 241.38 197.842 241.38C197.842 241.38 225.86 256.311 234.422 255.229L234.942 247.426V231.204L223.969 226.648C200.762 230.378 199.842 224.132 199.842 224.132L198.522 219.452C198.522 219.452 188.289 228.309 172.885 223.61C157.48 218.911 151.429 192.808 151.429 192.808L136.574 139.034L131.623 137.99L128.322 132.247H135.474C135.474 132.247 117.049 123.353 116.379 123.097C117.139 123.372 138.875 86.9881 138.875 86.9881H143.176L156.83 97.8852L150.848 107.188H143.176C143.176 107.188 151.979 109.276 154.729 109.798C157.48 110.32 156.38 114.497 156.38 114.497L154.189 120.22C155.07 119.727 158.561 117.496 158.841 113.32C159.161 108.545 165.312 83.2291 136.204 73.7653L129.962 75.7587L123.421 73.7653L123.441 73.7559Z" fill="#CDC7F0"/>
<path d="M26.7645 133.006C24.1338 122.137 27.4247 120.97 27.4247 120.97L34.5267 125.564L42.1488 118.122L30.5756 106.219H27.6848L0.867188 133.139V134.563C2.83774 139.48 13.7508 144.919 13.7508 144.919L26.7645 133.015V133.006Z" fill="#CDC7F0"/>
<path d="M20.0703 107.644C20.0703 107.644 16.7894 106.116 15.1889 112.514C15.1889 112.514 5.83627 118.057 2.44531 126.363L3.25554 128.859L24.0014 108.859L20.0703 107.644Z" fill="#CDC7F0"/>
<path d="M517.961 490.466L529.234 435.516L555.491 529.916L545.479 553.001L517.961 490.466Z" fill="#B1A6E7"/>
</g>
<defs>
<clipPath id="clip0_2209_53">
<rect width="956" height="613" fill="white" transform="translate(0.867188 0.789062)"/>
</clipPath>
</defs>
</svg>
