<svg width="106" height="106" viewBox="0 0 106 106" fill="none" xmlns="http://www.w3.org/2000/svg">
<path d="M106 0H0V106H106V0Z" fill="white"/>
<path d="M91.4572 45.5035C91.7772 44.9373 91.9445 44.2972 91.9426 43.6465C91.9426 42.0515 90.5611 41.5573 89.4411 41.5573C86.9846 41.5573 85.1478 41.4899 84.7745 42.3061C84.0278 43.9759 85.4017 51.5612 85.3569 51.6585L90.8673 50.5952" fill="#ECECEC"/>
<path d="M91.4572 45.5034C91.7772 44.9372 91.9445 44.2973 91.9426 43.6465C91.9426 42.0516 90.5612 41.5573 89.4412 41.5573C86.9846 41.5573 84.2668 41.8164 83.8934 42.6325C83.1468 44.3024 85.4017 51.5612 85.3569 51.6585L90.8673 50.5952" stroke="#4A4A4A" stroke-width="1.5" stroke-linecap="round" stroke-linejoin="round"/>
<path d="M17.6937 62.8156H17.2607C14.5802 62.8156 12.3999 69.2252 12.3999 75.9868C12.3999 82.7484 14.5802 88.2446 17.2607 88.2446H22.1962C24.4362 88.2446 27.1913 83.7518 27.7364 78.3829C27.826 77.432 21.3076 78.3081 21.3076 77.2822C21.3374 70.4533 20.3967 62.8156 17.6937 62.8156Z" fill="#DEDEDE"/>
<path d="M66.2348 62.6133H65.7868C63.0166 62.6133 60.7617 69.1428 60.7617 76.0317C60.7617 82.9206 63.0017 88.5215 65.7868 88.5215H70.8865C73.2459 88.5215 75.1948 84.493 75.7622 79.0568C75.8593 78.0908 70.1772 79.0568 70.1772 78.0609C70.1772 71.1271 69.0124 62.6133 66.2348 62.6133Z" fill="#DEDEDE"/>
<path d="M69.1243 74.7962C69.1243 81.4604 67.2876 86.8592 64.958 86.8592C62.6284 86.8592 60.7915 81.4604 60.7915 74.7962C60.7915 68.1319 62.6358 61.7821 64.958 61.7821C67.2801 61.7821 69.1243 68.1319 69.1243 74.7962Z" fill="#ECECEC"/>
<path d="M61.3364 80.4943C62.083 84.9871 63.8377 88.147 65.8164 88.147M76.4713 78.54C76.0009 84.0511 74.0447 88.177 71.7225 88.177H65.8911C64.226 88.177 62.7774 86.1103 61.9038 82.9354" stroke="#4A4A4A" stroke-width="1.5" stroke-linecap="round" stroke-linejoin="round"/>
<path opacity="0.07" d="M65.3089 82.7558C66.5633 82.7558 67.5489 79.7607 67.5489 76.0167C67.5489 72.2727 66.5334 69.2776 65.3089 69.2776C64.0844 69.2776 63.0315 72.2727 63.0315 76.0167C63.0315 79.7607 64.047 82.7558 65.3089 82.7558Z" fill="#4A4A4A"/>
<path opacity="0.06" d="M60.7617 82.6735H75.3665L75.7622 78.5925L61.1648 76.8179L60.7617 82.6735Z" fill="#4A4A4A"/>
<path d="M68.9002 77.6041C68.6837 81.0486 67.825 83.9464 66.6602 85.5189" stroke="#4A4A4A" stroke-width="1.5" stroke-linecap="round" stroke-linejoin="round"/>
<path d="M84.9386 62.8156H84.5129C81.8324 62.8156 79.6521 69.2252 79.6521 75.9868C79.6521 82.7484 81.8324 88.2446 84.5129 88.2446H89.4409C91.6809 88.2446 94.4809 83.6994 95.026 78.368C95.123 77.417 88.7615 78.9595 88.7615 77.9786C88.7316 71.1421 87.6266 62.8156 84.9386 62.8156Z" fill="#DEDEDE"/>
<path d="M87.6491 74.8637C87.6491 81.6777 85.984 87.2037 83.8634 87.2037C81.7429 87.2037 80.0854 81.6777 80.0854 74.8637C80.0854 68.0497 81.7504 61.55 83.8634 61.55C85.9765 61.55 87.6491 68.0572 87.6491 74.8637Z" fill="#ECECEC"/>
<path d="M84.5129 62.7181C81.8324 62.7181 79.6521 69.1278 79.6521 75.8894C79.6521 82.651 81.8324 88.1471 84.5129 88.1471H90.3519C92.017 88.1471 93.4505 86.0805 94.3316 82.9056" stroke="#4A4A4A" stroke-width="1.5" stroke-linecap="round" stroke-linejoin="round"/>
<path opacity="0.07" d="M83.9754 82.7558C85.2298 82.7558 86.2154 79.7607 86.2154 76.0167C86.2154 72.2727 85.1924 69.2776 83.9754 69.2776C82.7583 69.2776 81.698 72.2727 81.698 76.0167C81.698 79.7607 82.721 82.7558 83.9754 82.7558Z" fill="#4A4A4A"/>
<path opacity="0.06" d="M80.5854 82.9281H93.3833L94.8767 77.3571H80.4436L80.5854 82.9281Z" fill="#4A4A4A"/>
<path d="M87.298 79.9928C87.0694 81.9649 86.3869 83.8567 85.3044 85.5189" stroke="#4A4A4A" stroke-width="1.5" stroke-linecap="round" stroke-linejoin="round"/>
<path d="M12.527 68.6411C10.511 67.4879 11.2203 56.1512 12.527 52.2724C13.0944 50.6026 13.6843 50.2507 16.5739 46.4843C17.4625 43.9758 19.9937 33.1108 24.1377 31.3137C31.9627 27.9666 74.814 28.8952 77.0017 31.6133L86.8352 46.02C86.8352 46.02 91.9425 48.3862 93.6822 49.5244C93.8987 52.0328 97.0198 51.6959 98.4534 59.0865C99.4689 64.328 98.5355 71.5089 97.9083 75.2604C97.7906 75.9664 97.4247 76.6068 96.8768 77.0655C96.329 77.5243 95.6354 77.7712 94.9217 77.7614H20.0385" fill="#FCFCFC"/>
<path opacity="0.05" d="M12.7509 52.6694L31.2683 54.7959C33.9637 55.0805 36.7115 57.1247 43.9616 62.3213C46.0896 63.8189 46.6645 65.8481 68.96 66.3723C76.4235 66.6029 83.891 66.0735 91.248 64.7923C92.4414 64.5631 93.5316 63.9601 94.3616 63.0701C97.3483 59.9402 98.7371 61.1157 98.7371 61.1157L98.4906 72.1754C98.4906 72.1754 98.4907 75.7172 96.512 76.5708C94.5333 77.4245 89.5083 77.8887 89.5083 77.8887L17.0816 77.8213C17.0816 77.8213 11.9221 70.3334 11.9221 61.2281C11.9221 52.1227 12.7509 52.6694 12.7509 52.6694Z" fill="#4A4A4A"/>
<path d="M94.5706 55.8666C92.3754 56.5331 88.9781 56.9299 87.6565 57.6113C86.3273 58.5539 85.1383 59.6809 84.1248 60.9585C82.7211 62.5759 69.3483 63.5268 69.3483 63.5268C69.3483 63.5268 53.4443 63.0251 51.4283 60.5916C50.7749 59.7091 49.9461 58.9723 48.9942 58.4275C46.911 57.2444 42.4011 57.3717 40.0342 56.1812C36.3531 54.8258 36.5472 50.5877 36.5472 50.5877C36.5472 50.5877 45.4699 51.5611 48.2997 51.7483C48.2997 51.7483 82.8182 52.9389 89.7846 50.4379C93.1222 49.5169 93.5179 49.3821 93.5179 49.3821L95.7131 53.463L96.0043 54.0995L94.5706 55.8666Z" fill="#ECECEC"/>
<path d="M33.4335 29.8687L31.1114 49.0902L16.0288 46.649C16.0288 46.649 20.7253 32.6842 24.1376 31.3363C27.5499 29.9885 33.4335 29.8687 33.4335 29.8687Z" fill="white"/>
<path opacity="0.06" d="M19.3513 36.7874L22.9503 48.7681H27.3108L22.9354 32.8188L19.3513 36.7874Z" fill="#4A4A4A"/>
<path opacity="0.06" d="M24.7424 30.7297L30.4469 48.1092L32.3957 34.7582L33.2469 30.3029L24.7424 30.7297Z" fill="#4A4A4A"/>
<path d="M50.398 58.7644C48.3148 57.5888 42.4609 57.4016 40.079 56.2634C36.4054 54.9081 36.5922 50.67 36.5922 50.67C36.5922 50.67 45.5522 51.6359 48.3447 51.8306" fill="white"/>
<path d="M86.3499 51.4563C90.2326 50.6176 93.2268 49.7864 93.2268 49.7864L93.7942 51.5311L96.0865 53.9647L94.5931 55.8292C92.3979 56.4956 89.0006 56.885 87.6865 57.5739C87.0712 57.9459 86.5087 58.3993 86.0139 58.9217" fill="white"/>
<path d="M53.6084 55.3875L54.4074 59.0714" stroke="#DEDEDE" stroke-width="1.5" stroke-linecap="round" stroke-linejoin="round"/>
<path d="M58.5142 54.9756L58.9697 60.5317" stroke="#DEDEDE" stroke-width="1.5" stroke-linecap="round" stroke-linejoin="round"/>
<path d="M63.1509 55.1553L63.5914 60.7638" stroke="#DEDEDE" stroke-width="1.5" stroke-linecap="round" stroke-linejoin="round"/>
<path d="M82.6164 55.6121L82.1162 59.1764" stroke="#DEDEDE" stroke-width="1.5" stroke-linecap="round" stroke-linejoin="round"/>
<path d="M78.241 55.2078L77.5989 60.4493" stroke="#DEDEDE" stroke-width="1.5" stroke-linecap="round" stroke-linejoin="round"/>
<path d="M73.4325 55.0656L73.0293 60.8163" stroke="#DEDEDE" stroke-width="1.5" stroke-linecap="round" stroke-linejoin="round"/>
<path d="M68.3777 54.8783L68.5195 61.0184" stroke="#DEDEDE" stroke-width="1.5" stroke-linecap="round" stroke-linejoin="round"/>
<path opacity="0.06" d="M36.5398 52.4971C36.5398 52.4971 55.2065 56.8101 68.7435 56.5256C90.2923 56.6604 94.0705 52.235 94.0705 52.235L93.7345 50.3406C93.7345 50.3406 77.0689 53.0512 68.4673 52.7742C59.8657 52.4971 36.5921 50.6551 36.5921 50.6551L36.5398 52.4971Z" fill="#4A4A4A"/>
<path d="M45.8657 77.372L49.4945 71.6138C49.9726 70.7546 50.6622 70.0325 51.4973 69.5161C52.3324 68.9997 53.2855 68.7062 54.2657 68.6635H85.103C86.1167 68.6883 87.1041 68.9919 87.9574 69.5413C88.8106 70.0906 89.497 70.8645 89.9414 71.7785L93.0923 77.372" fill="#E6E6E6"/>
<path d="M93.0847 77.372L89.9337 71.7785C89.4887 70.8634 88.8012 70.0888 87.9465 69.5393C87.0918 68.9899 86.1028 68.6869 85.0879 68.6635H54.258C53.2778 68.7062 52.3248 68.9997 51.4896 69.5161C50.6545 70.0325 49.965 70.7546 49.4868 71.6138L47.0825 75.4775L52.8468 72.2353H86.1855" fill="#E6E6E6"/>
<path d="M20.1951 75.3278C20.1951 81.8872 18.5301 87.2111 16.4618 87.2111C14.3936 87.2111 12.7285 81.8872 12.7285 75.3278C12.7285 68.7684 14.3936 62.501 16.4618 62.501C18.5301 62.501 20.1951 68.7534 20.1951 75.3278Z" fill="#ECECEC"/>
<path d="M17.1711 63.407C14.4831 63.407 12.3103 69.6444 12.3103 76.2263C12.3103 82.8082 14.4831 88.1471 17.1711 88.1471H23.0025C24.6676 88.1471 26.1086 86.1404 26.9897 83.0554" stroke="#4A4A4A" stroke-width="1.5" stroke-linecap="round" stroke-linejoin="round"/>
<path d="M27.8038 78.323C27.3633 83.924 25.3921 88.1472 23.0476 88.1472H19.7473" stroke="#4A4A4A" stroke-width="1.5" stroke-linecap="round" stroke-linejoin="round"/>
<path d="M95.1604 77.7463C94.802 83.6019 92.7861 88.147 90.3519 88.147H89.1423" stroke="#4A4A4A" stroke-width="1.5" stroke-linecap="round" stroke-linejoin="round"/>
<path opacity="0.07" d="M16.626 82.7558C17.8804 82.7558 18.866 79.7607 18.866 76.0167C18.866 72.2727 17.843 69.2776 16.626 69.2776C15.4089 69.2776 14.386 72.2727 14.386 76.0167C14.386 79.7607 15.3641 82.7558 16.626 82.7558Z" fill="#4A4A4A"/>
<path opacity="0.06" d="M19.9265 82.6735H26.7734L27.4305 78.0759L20.8001 77.6566L19.9265 82.6735Z" fill="#4A4A4A"/>
<path d="M34.9793 62.6656H34.5462C31.8582 62.6656 30.5515 69.1577 30.5515 75.9192C30.5515 82.6808 32.7393 88.1696 35.4198 88.1696H40.3478C42.5878 88.1696 44.5142 84.2159 45.0593 78.8845C45.1564 77.9335 39.3025 78.8846 39.3025 77.8812C39.3025 71.0896 37.6598 62.6656 34.9793 62.6656Z" fill="#ECECEC"/>
<path d="M40.8705 88.5215H35.7632L39.7878 77.6566C39.7878 78.7124 45.8582 77.709 45.7611 78.7123C45.231 84.3433 43.23 88.5215 40.8705 88.5215Z" fill="#DEDEDE"/>
<path d="M35.3973 63.2947C32.7093 63.2947 30.5291 69.5621 30.5291 76.1665C30.5291 82.7708 32.7093 88.1471 35.3973 88.1471H41.2288M45.8283 80.5169C45.0816 85.0097 43.3269 88.1771 41.2885 88.1771H35.4571" stroke="#4A4A4A" stroke-width="1.5" stroke-linecap="round" stroke-linejoin="round"/>
<path opacity="0.07" d="M34.882 82.7558C36.1364 82.7558 37.122 79.7607 37.122 76.0167C37.122 72.2727 36.1066 69.2776 34.882 69.2776C33.6575 69.2776 32.6047 72.2727 32.6047 76.0167C32.6047 79.7607 33.6202 82.7558 34.882 82.7558Z" fill="#4A4A4A"/>
<path opacity="0.06" d="M38.3093 82.928H44.2826L44.6485 78.8621L38.9439 77.7913L38.3093 82.928Z" fill="#4A4A4A"/>
<path d="M4 88.1621H102.381" stroke="#4A4A4A" stroke-width="1.5" stroke-linecap="round" stroke-linejoin="round"/>
<path d="M94.511 66.8366C94.6158 66.4545 94.8253 66.1094 95.1158 65.8407C95.4058 65.5758 95.7664 65.4014 96.1536 65.339C96.5412 65.2721 96.9398 65.3163 97.3035 65.4663C97.6655 65.628 97.9756 65.8872 98.1995 66.2151C98.425 66.5431 98.5519 66.9291 98.5652 67.3273C98.5784 67.7255 98.4774 68.1191 98.2742 68.4615C98.0728 68.8011 97.7789 69.0759 97.427 69.2537C97.0752 69.4314 96.68 69.5047 96.2881 69.4649" fill="#E6E6E6"/>
<path d="M85.9092 59.8203C86.3943 59.3029 86.9558 58.8634 87.5743 58.5174C88.8884 57.8285 92.6292 57.514 94.8468 55.6945" stroke="#4A4A4A" stroke-width="1.5" stroke-linecap="round" stroke-linejoin="round"/>
<path d="M49.9797 58.8245C50.8974 59.2234 51.7046 59.8402 52.3317 60.6216C54.3104 63.0552 59.3354 63.3697 69.2064 63.3622C78.0768 63.3622 82.7584 63.3622 84.1397 61.7373C84.6997 61.0934 85.312 60.4195 85.8944 59.8354" stroke="#4A4A4A" stroke-width="1.5" stroke-linecap="round" stroke-linejoin="round"/>
<path d="M51.0549 59.4459C48.5386 57.9483 44.0437 58.8993 40.2357 57.3193C39.5081 57.002 38.8589 56.5284 38.3338 55.932C37.8087 55.3355 37.4205 54.6307 37.1967 53.8674C36.7562 52.6244 36.8383 50.7524 38.1525 50.8722C40.6687 51.1118 45.4025 51.5012 47.7993 51.6959C48.1564 51.7291 48.4936 51.8754 48.7621 52.1137C49.0306 52.352 49.2165 52.6699 49.2927 53.0212L49.9871 56.0688" stroke="#4A4A4A" stroke-width="1.5" stroke-linecap="round" stroke-linejoin="round"/>
<path d="M93.1146 49.9362C93.1146 49.9362 90.1952 50.8198 87.888 51.3814C87.4678 51.4907 87.0936 51.7321 86.8202 52.0703C86.5506 52.4105 86.394 52.8268 86.3722 53.2609L86.2527 56.6529" stroke="#4A4A4A" stroke-width="1.5" stroke-linecap="round" stroke-linejoin="round"/>
<path d="M36.4278 29.322L35.3601 46.5966H86.447L76.5313 31.5384L36.4278 29.322Z" fill="white"/>
<path d="M49.1585 77.8288C49.1585 77.8288 79.4059 77.9261 92.0395 77.8812C95.8848 77.8812 97.8785 76.5184 98.5356 72.2053C98.767 70.7077 98.3564 67.9147 98.6401 66.8365C98.7864 66.3087 98.874 65.7663 98.9014 65.2191C98.9615 63.1873 98.8114 61.1546 98.4534 59.1539C97.0497 51.9655 94.287 53.7776 93.7344 49.9587C93.7027 49.7069 93.6076 49.4672 93.4582 49.2623C92.3233 47.8696 88.2315 47.1282 86.447 46.6565H35.7559V32.4294" stroke="#4A4A4A" stroke-width="1.5" stroke-linecap="round" stroke-linejoin="round"/>
<path d="M38.9739 77.7913H45.6939" stroke="#4A4A4A" stroke-width="1.5" stroke-linecap="round" stroke-linejoin="round"/>
<path d="M23.8091 77.8289H29.7824" stroke="#4A4A4A" stroke-width="1.5" stroke-linecap="round" stroke-linejoin="round"/>
<path d="M11.2951 68.731C9.87639 64.5377 11.4443 55.5073 12.527 52.3024C13.0945 50.6251 13.1468 50.4154 16.0289 46.649C16.9174 44.1406 19.9937 33.1708 24.1377 31.3362C31.9628 27.9966 74.814 28.9251 77.0017 31.6357L85.3867 44.1259" stroke="#4A4A4A" stroke-width="1.5" stroke-linecap="round" stroke-linejoin="round"/>
<path d="M29.3418 47.7722L31.2831 47.937L32.2763 32.7664" stroke="#4A4A4A" stroke-width="1.5" stroke-linecap="round" stroke-linejoin="round"/>
<path d="M18.8662 46.8737L21.599 47.1051" stroke="#4A4A4A" stroke-width="1.5" stroke-linecap="round" stroke-linejoin="round"/>
<path d="M26.7434 48.9628C26.1312 48.9628 24.048 49.165 23.0101 48.6408C22.4132 48.3827 21.9044 47.9553 21.5463 47.4113C21.1882 46.8672 20.9963 46.2301 20.9941 45.5782C20.9941 44.0806 22.3829 43.6389 23.4955 43.6389C25.9968 43.6389 27.7888 43.5715 28.1621 44.3877C28.6678 45.5411 29.0895 46.7298 29.4239 47.9444L31.0143 48.0268" fill="#ECECEC"/>
<path d="M26.7434 48.9628C26.1312 48.9628 24.048 49.165 23.0101 48.6408C22.4132 48.3827 21.9044 47.9553 21.5463 47.4113C21.1882 46.8672 20.9963 46.2301 20.9941 45.5782C20.9941 44.0806 22.3829 43.6389 23.4955 43.6389C25.9968 43.6389 27.7888 43.5715 28.1621 44.3877C28.6678 45.5411 29.0895 46.7298 29.4239 47.9444H31.1616" stroke="#4A4A4A" stroke-width="1.5" stroke-linecap="round" stroke-linejoin="round"/>
<path d="M26.7061 33.7174L24.9888 41.2053" stroke="#4A4A4A" stroke-width="1.5" stroke-linecap="round" stroke-linejoin="round"/>
<path d="M96.2806 69.7268C95.8112 69.4889 95.4403 69.0929 95.2328 68.6083C95.0253 68.1237 94.9944 67.5813 95.1456 67.0761C95.2925 66.5706 95.6091 66.1315 96.0417 65.8331C96.4818 65.5396 97.0084 65.405 97.535 65.4512C97.841 65.5218 98.1254 65.6656 98.3638 65.8706" stroke="#4A4A4A" stroke-width="1.5" stroke-linecap="round" stroke-linejoin="round"/>
<path d="M41.4976 66.8365C41.5408 66.5177 41.6757 66.2184 41.8859 65.9753C42.0965 65.7289 42.374 65.5494 42.6848 65.4587C43.1854 65.4032 43.6892 65.5308 44.1034 65.8181C44.4126 66.032 44.6584 66.3256 44.8147 66.6681C44.9711 67.0105 45.0323 67.389 44.9918 67.7634C44.9512 68.1379 44.8105 68.4944 44.5844 68.7952C44.3584 69.096 44.0554 69.3299 43.7077 69.4722C43.5162 69.5172 43.3169 69.5172 43.1254 69.4722" fill="#E6E6E6"/>
<path d="M41.4976 66.8365C41.5408 66.5177 41.6757 66.2184 41.8859 65.9753C42.0965 65.7289 42.374 65.5494 42.6848 65.4587C43.1854 65.4032 43.6892 65.5308 44.1034 65.8181C44.4126 66.032 44.6584 66.3256 44.8147 66.6681C44.9711 67.0105 45.0323 67.389 44.9918 67.7634C44.9512 68.1379 44.8105 68.4944 44.5844 68.7952C44.3584 69.096 44.0554 69.3299 43.7077 69.4722C43.5162 69.5172 43.3169 69.5172 43.1254 69.4722" stroke="#4A4A4A" stroke-width="1.5" stroke-linecap="round" stroke-linejoin="round"/>
<path opacity="0.06" d="M93.0849 77.372L89.934 71.7785C89.4889 70.8634 88.8014 70.0888 87.9467 69.5393C87.092 68.9899 86.1031 68.6869 85.0881 68.6635H54.2582C53.278 68.7062 52.325 68.9997 51.4898 69.5161C50.6547 70.0325 49.9652 70.7546 49.487 71.6138L45.8582 77.372L52.5782 73.1189C53.6973 72.4158 54.9909 72.0422 56.3115 72.0406H83.6993C85.2368 72.0389 86.7322 72.544 87.9553 73.4783L93.0849 77.372Z" fill="#4A4A4A"/>
<path d="M91.5691 74.6689L89.8965 71.7785C89.4541 70.8629 88.7682 70.0876 87.9145 69.538C87.0608 68.9884 86.0723 68.6858 85.0581 68.6635C85.0581 68.6635 74.224 68.9481 70.6549 68.9481C66.5483 68.9481 54.2283 68.6635 54.2283 68.6635C53.2493 68.7074 52.2978 69.0015 51.4641 69.5179C50.6304 70.0342 49.9421 70.7557 49.4645 71.6138L45.7312 77.679" stroke="#4A4A4A" stroke-width="1.5" stroke-linecap="round" stroke-linejoin="round"/>
<path d="M83.8409 52.0254C75.3588 52.7742 61.441 52.5196 52.2495 52.0254" stroke="#4A4A4A" stroke-width="1.5" stroke-linecap="round" stroke-linejoin="round"/>
<path opacity="0.06" d="M44.9695 29.5765L53.2575 46.649H63.763L55.0196 29L44.9695 29.5765Z" fill="#4A4A4A"/>
<path opacity="0.06" d="M59.8582 29.5765L68.1388 46.649L88.0001 47.4859L76.5014 31.5384L59.8582 29.5765Z" fill="#4A4A4A"/>
<path d="M36.2261 65.3763C37.6597 67.1809 38.6379 71.771 38.6379 76.0017C38.6379 80.2324 37.6821 83.8191 36.2784 85.6386" stroke="#4A4A4A" stroke-width="1.5" stroke-linecap="round" stroke-linejoin="round"/>
<path d="M18.3509 85.0621C18.2355 85.2634 18.1057 85.4561 17.9626 85.6387" stroke="#4A4A4A" stroke-width="1.5" stroke-linecap="round" stroke-linejoin="round"/>
<path d="M17.9326 65.3763C19.3662 67.1809 20.3445 71.771 20.3445 76.0017C20.3594 77.9564 20.1336 79.9055 19.6724 81.8048" stroke="#4A4A4A" stroke-width="1.5" stroke-linecap="round" stroke-linejoin="round"/>
<path d="M23.7641 52.0254C23.7641 52.0254 21.6063 57.1696 23.1444 68.3116" stroke="#4A4A4A" stroke-width="1.5" stroke-linecap="round" stroke-linejoin="round"/>
<path d="M18.8511 55.7769L19.1497 55.7993" stroke="#4A4A4A" stroke-width="1.5" stroke-linecap="round" stroke-linejoin="round"/>
<path d="M25.8696 56.6005L26.1683 56.6378" stroke="#4A4A4A" stroke-width="1.5" stroke-linecap="round" stroke-linejoin="round"/>
</svg>
