<svg width="106" height="106" viewBox="0 0 106 106" fill="none" xmlns="http://www.w3.org/2000/svg">
<path d="M106 0H0V106H106V0Z" fill="white"/>
<path fill-rule="evenodd" clip-rule="evenodd" d="M21.4097 88.7067H92.8526L93.3287 27.5537C93.344 27.027 93.068 26.5363 92.6148 26.2855L87.0698 23.3156C86.6718 23.1081 86.2314 23.0002 85.7847 23.0002H22.5213L21.4097 88.7067Z" fill="#ECECEC"/>
<path fill-rule="evenodd" clip-rule="evenodd" d="M21.4097 88.7067H92.8526L93.3287 27.5537C93.344 27.027 93.068 26.5363 92.6148 26.2855L87.0698 23.3156C86.6718 23.1081 86.2314 23.0002 85.7847 23.0002H22.5213L21.4097 88.7067Z" stroke="#4A4A4A" stroke-width="1.5" stroke-linecap="round" stroke-linejoin="round"/>
<path fill-rule="evenodd" clip-rule="evenodd" d="M85.9902 23.0001H17.3746C16.8998 22.995 16.4424 23.1833 16.1036 23.5236C15.7648 23.8639 15.5725 24.3281 15.5691 24.8137L14.5214 86.6698C14.5114 87.1994 14.7099 87.7109 15.0725 88.0892C15.4352 88.4674 15.9314 88.6804 16.4494 88.6804H85.1422" fill="white"/>
<path d="M85.9902 23.0001H17.3746C16.8998 22.995 16.4424 23.1833 16.1036 23.5236C15.7648 23.8639 15.5725 24.3281 15.5691 24.8137L14.5214 86.6698C14.5114 87.1994 14.7099 87.7109 15.0725 88.0892C15.4352 88.4674 15.9314 88.6804 16.4494 88.6804H84.2041" stroke="#4A4A4A" stroke-width="1.5" stroke-linecap="round" stroke-linejoin="round"/>
<path d="M85.3606 88.6804L85.4891 80.9204" stroke="#4A4A4A" stroke-width="1.5" stroke-linecap="round" stroke-linejoin="round"/>
<path d="M85.7075 68.0748L86.4207 25.6876" stroke="#4A4A4A" stroke-width="1.5" stroke-linecap="round" stroke-linejoin="round"/>
<path d="M85.5918 75.0266L85.6175 73.673" stroke="#4A4A4A" stroke-width="1.5" stroke-linecap="round" stroke-linejoin="round"/>
<path fill-rule="evenodd" clip-rule="evenodd" d="M21.4353 80.5853H78.6847L80.2974 29.1569H21.6473L21.4353 80.5853Z" fill="#F9F9F9"/>
<path fill-rule="evenodd" clip-rule="evenodd" d="M49.7453 81.3803L20.7351 81.2883L21.0821 60.7945C34.7208 58.2582 44.393 57.864 50.0987 59.6118" fill="#F7F7F7"/>
<path opacity="0.05" fill-rule="evenodd" clip-rule="evenodd" d="M21.3004 80.224C30.9383 78.8397 36.629 77.5256 38.3724 76.2816C38.3403 76.3407 38.7129 76.2224 38.6808 76.2816C38.2117 77.1949 37.5178 78.739 36.6183 80.881C30.0259 81.2709 25.2112 81.3957 22.1742 81.2556C20.6 81.2687 20.3044 80.9139 21.3004 80.224Z" fill="#4A4A4A"/>
<path opacity="0.05" d="M21.3902 69.4875L20.073 65.4137C23.2675 64.3671 26.5285 63.5461 29.833 62.9563L32.1847 66.5242C28.5317 67.2896 24.927 68.2792 21.3902 69.4875Z" fill="#4A4A4A"/>
<path opacity="0.05" d="M20.9664 77.3L20.4202 73.0488C29.6726 71.807 37.6271 69.6518 44.6628 67.6806L45.4082 67.4769L46.494 71.6164L45.7487 71.8201C38.5845 73.8044 30.4886 76.0253 20.9664 77.3Z" fill="#4A4A4A"/>
<path fill-rule="evenodd" clip-rule="evenodd" d="M50.0985 59.6118C54.3328 60.926 58.5046 59.1601 63.2575 59.5387C68.0104 59.9173 67.7231 64.5858 70.3639 60.5646C70.3639 60.5646 77.4317 59.1059 80.0918 61.9379L79.6163 81.479L49.7451 81.387" fill="#F7F7F7"/>
<path fill-rule="evenodd" clip-rule="evenodd" d="M61.3448 64.7189C62.7104 66.0363 62.7104 67.6258 61.3448 69.4875C60.7038 71.2593 60.4413 72.2492 60.5573 72.4575C63.963 75.1781 65.8906 78.0837 66.34 81.1742C61.3606 81.1729 56.9405 78.0483 53.0798 71.8004L61.3448 64.7189Z" fill="#4A4A4A" fill-opacity="0.05"/>
<path fill-rule="evenodd" clip-rule="evenodd" d="M58.4515 55.5052C57.1664 54.1188 57.1663 50.4721 56.9157 49.0857C56.6651 47.6993 58.8819 41.5294 58.8819 41.5294L64.3627 42.9815L70.274 41.7857L70.3961 45.2484C70.3961 45.2484 71.379 47.3116 72.2914 47.3116C73.2038 47.3116 73.0304 45.2944 74.7524 44.2234C76.4744 43.1524 77.3995 44.2234 77.708 47.0553C78.0164 49.8873 74.3862 50.3407 74.3862 50.3407L73.9749 59.9732C74.0648 61.7079 73.4674 62.8052 72.5164 64.1587C71.2699 65.9394 70.2547 66.2876 67.6782 66.4979C66.2243 66.6414 64.8412 65.8261 64.2341 64.4675C63.3924 63.8565 63.3346 62.3058 63.3667 61.675L63.4502 59.7695C61.7133 58.437 60.0449 57.0136 58.4515 55.5052Z" fill="white"/>
<path fill-rule="evenodd" clip-rule="evenodd" d="M20.8892 52.6535C22.2385 56.0046 24.7765 56.182 26.1965 55.5578L25.7917 49.7559C24.307 49.4292 23.22 48.1265 23.138 46.5757C22.9967 43.8949 24.4938 41.8974 26.8004 44.3942C28.002 47.6073 29.0172 46.1552 31.6194 42.1471C35.3911 45.025 39.7217 42.5742 39.7217 42.5742C41.2838 43.6686 43.2013 44.0975 45.0675 43.77C47.477 42.9618 47.2586 39.9919 45.8386 38.6186C47.4706 34.9522 42.2725 31.5355 32.2555 33.1453C30.0259 31.726 21.975 31.9363 21.0755 39.8933" fill="#E0E0E0"/>
<path fill-rule="evenodd" clip-rule="evenodd" d="M43.5833 44.2563L39.7281 42.5742C39.7281 42.5742 33.6177 43.9737 32.6603 43.1261C31.7029 42.2785 30.4436 41.2338 30.1673 43.5992C29.891 45.9646 26.9032 45.8398 26.9032 45.8398C26.9032 45.8398 26.1965 41.4243 24.6158 43.3101C22.2963 46.0829 25.8109 49.3748 25.8109 49.3748L26.19 57.4041V60.1769C26.1322 61.6291 27.0317 63.0812 27.5779 64.3953C28.5738 65.7094 30.2637 66.5505 32.8916 66.0642C36.8367 65.3415 36.644 62.411 36.644 62.411L37.0199 59.1601" fill="white"/>
<path d="M26.4534 43.4744C26.4984 44.9003 26.6397 45.5113 26.9096 45.8399C27.2678 46.3009 27.8821 46.462 28.4131 46.2341C29.6982 45.6165 29.5632 43.3233 30.7133 42.4494C31.1066 42.1987 31.6051 42.1987 31.9984 42.4494C35.6672 44.8543 39.7088 42.5808 39.7088 42.5808C41.1776 43.5776 42.9778 43.9259 44.7012 43.5467C46.5903 42.9882 47.5733 39.8672 46.1598 38.4939C47.7789 34.8275 40.2035 30.228 31.5486 33.5133C29.5825 32.5343 23.8383 32.9811 21.7822 36.1416" stroke="#4A4A4A" stroke-width="1.5" stroke-linecap="round" stroke-linejoin="round"/>
<path d="M25.6954 60.0389C24.5581 60.1572 22.2386 60.7486 21.1592 62.4109" stroke="#4A4A4A" stroke-width="1.5" stroke-linecap="round" stroke-linejoin="round"/>
<path d="M26.4873 43.2969C25.0224 42.9158 23.5703 44.1971 23.7373 46.3129C23.8872 47.5232 24.717 48.5312 25.8577 48.8886L25.7211 59.7301C26.8327 64.8092 29.4542 66.419 32.3006 65.9328C36.5734 65.21 36.6441 59.7893 36.6441 59.7893V58.646" stroke="#4A4A4A" stroke-width="1.5" stroke-linecap="round" stroke-linejoin="round"/>
<path d="M24.3975 60.268C25.2956 59.9806 25.7487 59.8545 25.7567 59.8898C26.8879 64.843 29.4841 66.4139 32.3005 65.9328C36.5733 65.21 36.644 59.7893 36.644 59.7893V58.646" stroke="#4A4A4A" stroke-width="1.5" stroke-linecap="round" stroke-linejoin="round"/>
<path d="M21.3838 54.2305C22.0585 55.3344 24.0503 55.86 25.2904 55.6432" stroke="#4A4A4A" stroke-width="1.5" stroke-linecap="round" stroke-linejoin="round"/>
<path fill-rule="evenodd" clip-rule="evenodd" d="M31.7158 58.4817C31.7158 58.4817 37.9676 61.767 42.3175 56.7536C45.5301 52.8769 45.1446 48.6914 44.0716 45.1959" fill="white"/>
<path d="M33.2322 58.5146C35.3654 59.0928 39.4069 59.2702 42.2276 56.1557C45.1815 52.9235 44.1048 49.4302 43.8224 46.2274" stroke="#4A4A4A" stroke-width="1.5" stroke-linecap="round" stroke-linejoin="round"/>
<path d="M40.981 47.0488L41.0196 47.627" stroke="#4A4A4A" stroke-width="1.2" stroke-linecap="round" stroke-linejoin="round"/>
<path d="M32.2168 47.6073L32.2618 48.1592" stroke="#4A4A4A" stroke-width="1.2" stroke-linecap="round" stroke-linejoin="round"/>
<path fill-rule="evenodd" clip-rule="evenodd" d="M38.5652 48.1001C38.5652 48.1001 37.8199 49.5982 35.4746 48.5206L38.5652 48.1001Z" fill="white"/>
<path d="M38.4045 48.8885C38.4045 48.8885 37.2865 50.2553 35.3782 49.0923" stroke="#4A4A4A" stroke-width="1.2" stroke-linecap="round" stroke-linejoin="round"/>
<path d="M74.2642 59.947C74.2642 59.947 78.1194 60.7814 79.655 62.7001" stroke="#4A4A4A" stroke-width="1.5" stroke-linecap="round" stroke-linejoin="round"/>
<path fill-rule="evenodd" clip-rule="evenodd" d="M57.5133 44.2562C56.1961 41.9893 56.6909 38.9997 56.6909 38.9997C56.6909 38.9997 57.2499 32.4291 67.6717 32.5079C77.8558 32.5868 78.9867 38.0732 78.9867 38.0732C79.4759 38.2959 79.9428 38.5666 80.381 38.8814C81.1391 39.4137 80.026 46.6422 80.4902 50.932C78.7533 53.0413 76.5073 54.6495 73.9749 55.5971L74.4311 49.9595C75.7139 50.1423 76.9661 49.4609 77.5346 48.2709C78.5112 46.2208 76.6928 42.2522 74.0777 45.1235C72.3108 48.192 70.3639 47.6335 70.2675 45.7412C70.184 44.0131 70.5246 40.9578 69.3616 41.4768C68.1986 41.9959 63.0584 43.9474 59.0104 41.4243" fill="#E0E0E0"/>
<path d="M79.5585 52.1739C78.0456 53.8243 76.1152 55.0138 73.9813 55.6103L74.4375 49.9727C75.7202 50.1554 76.9725 49.4741 77.5409 48.284C78.4919 45.958 75.8896 42.1076 74.0841 44.9987C72.5613 48.284 70.6273 47.8635 70.5309 45.9777C70.4474 44.2497 70.8715 41.6937 69.7085 42.2193C68.5455 42.745 61.407 44.0263 58.2136 40.9709" stroke="#4A4A4A" stroke-width="1.5" stroke-linecap="round" stroke-linejoin="round"/>
<path d="M79.822 37.9319C71.8675 28.4965 56.6845 32.0677 55.862 39.6042C55.7394 40.7479 55.9586 41.8996 56.486 42.9092" stroke="#4A4A4A" stroke-width="1.5" stroke-linecap="round" stroke-linejoin="round"/>
<path d="M74.0071 55.6104L73.8207 57.9627C73.628 63.6135 70.5374 66.2417 67.8645 65.9526C65.2944 65.8738 62.7243 63.7646 63.6367 59.1257L63.2576 57.9496" stroke="#4A4A4A" stroke-width="1.5" stroke-linecap="round" stroke-linejoin="round"/>
<path d="M73.6151 59.9633C72.8524 64.232 70.1992 66.205 67.8646 65.9525C65.586 65.8826 63.3074 64.2168 63.4556 60.6071C63.4683 60.2993 63.4683 59.9675 63.4556 59.6118" stroke="#4A4A4A" stroke-width="1.5" stroke-linecap="round" stroke-linejoin="round"/>
<path fill-rule="evenodd" clip-rule="evenodd" d="M67.3825 59.349C67.3825 59.349 62.2423 61.2479 58.9076 56.977C56.3374 53.6917 55.4636 49.7493 57.6225 46.0238C58.2239 44.9658 58.7562 43.8683 59.216 42.7384" fill="white"/>
<path d="M68.5007 58.6591C68.5007 58.6591 63.5596 60.5317 59.5631 57.0362C56.4661 54.329 55.7079 50.0516 57.2949 46.1486C57.9824 44.4534 58.5801 43.3561 58.9463 42.1011" stroke="#4A4A4A" stroke-width="1.5" stroke-linecap="round" stroke-linejoin="round"/>
<path d="M59.7559 46.3654L59.6145 46.9699" stroke="#4A4A4A" stroke-width="1.2" stroke-linecap="round" stroke-linejoin="round"/>
<path d="M67.6909 47.9095L67.5945 48.4418" stroke="#4A4A4A" stroke-width="1.2" stroke-linecap="round" stroke-linejoin="round"/>
<path fill-rule="evenodd" clip-rule="evenodd" d="M61.6577 48.1658C61.6577 48.1658 62.056 49.5193 64.2278 48.9017L61.6577 48.1658Z" fill="white"/>
<path d="M61.7861 48.468C61.7861 48.468 62.6792 49.5982 64.4719 48.8425" stroke="#4A4A4A" stroke-width="1.2" stroke-linecap="round" stroke-linejoin="round"/>
<path d="M63.0326 80.5787C62.2294 78.1936 60.4625 74.9542 57.404 74.0081C54.821 73.1874 52.0864 72.994 49.4174 73.443H50.9466C48.2776 72.994 45.5431 73.1874 42.96 74.0081C39.9272 74.9345 37.6206 78.1344 36.8174 80.5196" fill="#ECECEC"/>
<path d="M37.626 78.9944C38.5535 76.5956 40.5168 74.7546 42.9599 74.0278C45.543 73.2072 48.2776 73.0136 50.9466 73.4627H49.4174C52.0863 73.0136 54.8209 73.2072 57.404 74.0278C59.7203 74.7169 61.6053 76.4075 62.5852 78.6253" stroke="#4A4A4A" stroke-width="1.5" stroke-linecap="round" stroke-linejoin="round"/>
<path fill-rule="evenodd" clip-rule="evenodd" d="M52.1096 77.7336C52.1096 77.7336 54.4806 75.1053 57.0571 76.8203C58.6133 77.8807 59.8203 79.3967 60.5203 81.17C60.5203 81.17 63.8872 81.3737 62.8977 78.8966C61.9082 76.4195 56.3632 73.6401 56.3632 73.6401L53.4525 74.9936L52.1096 77.7336Z" fill="#4A4A4A" fill-opacity="0.05"/>
<path fill-rule="evenodd" clip-rule="evenodd" d="M41.45 68.4691C38.9763 68.3114 37.537 64.001 40.8075 62.7395L50.4904 59.9995L60.2825 62.6278C63.4952 63.8893 62.0688 68.4888 59.7878 68.3639" fill="white"/>
<path d="M41.4502 68.4297C38.758 68.5742 37.6978 64.0536 40.9876 62.792L50.8954 61.0048L60.0193 62.8315C63.2319 63.9156 62.0047 68.3508 59.6274 68.3048" stroke="#4A4A4A" stroke-width="1.5" stroke-linecap="round" stroke-linejoin="round"/>
<path fill-rule="evenodd" clip-rule="evenodd" d="M53.4525 74.9872C53.2855 76.8204 52.6751 79.3763 50.5611 79.3961C47.4192 79.3961 47.2136 76.2947 47.2136 76.2947L47.3292 75.0463L49.3018 72.4575" fill="white"/>
<path fill-rule="evenodd" clip-rule="evenodd" d="M41.4951 68.4756C41.9848 73.043 45.7661 76.496 50.2592 76.4787C54.8786 76.4576 58.7624 72.9279 59.3252 68.2391" fill="white"/>
<path d="M46.7896 75.3682C46.8988 76.5181 47.432 78.9558 49.7258 79.0084C52.0196 79.0609 52.8035 76.7678 53.0477 75.4799" stroke="#4A4A4A" stroke-width="1.5" stroke-linecap="round" stroke-linejoin="round"/>
<path d="M41.4951 68.4756C41.8484 71.761 43.9367 73.8241 46.8216 75.0463M52.7971 75.3748C56.254 74.3432 58.8883 71.9778 59.3252 68.226" stroke="#4A4A4A" stroke-width="1.5" stroke-linecap="round" stroke-linejoin="round"/>
<path fill-rule="evenodd" clip-rule="evenodd" d="M58.9204 59.0271C60.4881 61.0508 59.9934 64.8749 58.2778 65.2823C56.5623 65.6897 56.2282 62.746 56.2282 62.746C56.2282 62.746 53.2275 63.8696 50.9016 62.5621C48.8391 63.6659 45.0481 62.9694 45.0481 62.9694C45.0481 62.9694 43.7631 65.9197 42.1439 65.0523C41.5014 64.7829 38.8799 55.7023 47.5026 56.9245C49.7707 53.4683 54.8017 55.0584 55.213 56.9245C56.9221 57.4698 57.8795 57.3647 58.9653 58.7708" fill="#E6E6E6"/>
<path fill-rule="evenodd" clip-rule="evenodd" d="M58.5285 65.2823C56.7551 65.6963 56.3953 62.746 56.3953 62.746C56.3953 62.746 53.2598 64.4478 50.4198 62.9103C47.8497 64.4478 44.8555 62.9694 44.8555 62.9694C44.8555 62.9694 43.4998 65.9197 41.8549 65.0523C41.1674 64.7829 39.9273 56.5105 47.6376 57.1676C49.2632 54.0794 53.7609 55.4132 54.5641 57.2661C60.6232 57.6538 60.3019 64.8749 58.5285 65.2823Z" stroke="#4A4A4A" stroke-width="1.5" stroke-linecap="round" stroke-linejoin="round"/>
<path d="M54.3072 66.2153L54.3008 66.7147" stroke="#4A4A4A" stroke-width="1.2" stroke-linecap="round" stroke-linejoin="round"/>
<path d="M46.2047 66.2153L46.1919 66.7147" stroke="#4A4A4A" stroke-width="1.2" stroke-linecap="round" stroke-linejoin="round"/>
<path fill-rule="evenodd" clip-rule="evenodd" d="M51.4477 67.2009C50.6846 67.9275 49.5152 67.9695 48.7041 67.2995L51.4477 67.2009Z" fill="white"/>
<path d="M51.4477 67.2009C50.6846 67.9275 49.5152 67.9695 48.7041 67.2995" stroke="#4A4A4A" stroke-width="1.2" stroke-linecap="round" stroke-linejoin="round"/>
<path d="M30.1544 81.2884H79.3722L80.1818 29.032H21.5381L20.7285 81.2884H26.3571" stroke="#4A4A4A" stroke-width="1.5" stroke-linecap="round" stroke-linejoin="round"/>
<path opacity="0.05" fill-rule="evenodd" clip-rule="evenodd" d="M21.5703 40.2022C21.5703 40.2022 26.7748 33.7629 32.4933 37.068C36.4256 35.3465 41.161 35.8655 42.2598 39.0852C42.9023 41.2863 40.9747 41.9302 38.7002 40.9709C36.0786 42.8041 30.4501 40.4124 30.9898 42.5479C31.8315 43.5992 36.4063 43.9671 38.8736 43.113C42.7288 44.841 44.6564 43.632 45.5881 42.4559C46.5197 41.2797 46.8024 39.6765 46.5262 39.2823C46.2499 38.888 47.4643 33.7629 39.8824 32.8496C32.3006 31.9363 32.1142 34.2426 32.1142 34.2426C32.1142 34.2426 25.599 31.8246 21.4804 36.2729C21.4075 37.583 21.4376 38.897 21.5703 40.2022Z" fill="#4A4A4A"/>
<path opacity="0.05" fill-rule="evenodd" clip-rule="evenodd" d="M30.2443 43.7436C30.2443 43.7436 32.4739 47.2459 38.3016 45.7149C39.1206 46.042 39.9573 46.3206 40.8075 46.5494C40.8075 46.5494 42.009 51.5234 39.6766 54.7167C38.1964 56.6586 36.0738 57.9809 33.7075 58.4356C33.7075 58.4356 32.9943 59.8023 33.9517 60.2557C34.9091 60.7091 35.9821 64.6383 35.9821 64.6383L37.2286 58.8167C37.2286 58.8167 43.7182 57.1807 43.8595 52.2462C43.995 49.6568 43.7393 47.0615 43.1013 44.5518C43.1013 44.5518 39.8887 44.4467 38.8606 43.1129C37.8197 43.9539 33.7718 44.5518 30.9639 43.0406C30.1415 43.3691 30.2443 43.7436 30.2443 43.7436Z" fill="#4A4A4A"/>
<path opacity="0.05" fill-rule="evenodd" clip-rule="evenodd" d="M42.2212 60.3017C42.2212 60.3017 42.3947 62.4832 44.2195 60.3609C46.0957 60.5908 48.2353 61.2348 49.8031 60.0061C52.2511 60.6631 55.0461 60.3017 55.6437 59.8352C57.2629 60.4134 58.3487 60.88 58.3487 58.8168C59.2611 59.7432 59.4025 61.6093 59.4025 61.6093C59.4025 61.6093 59.4025 64.1193 58.9206 64.2901C58.4387 64.461 57.5777 65.3414 57.4363 64.1456C57.2733 63.3232 56.8485 62.5792 56.2284 62.0298L54.1209 63.0088L50.2657 61.9904L47.445 63.2454L44.5087 62.2204L43.3778 64.323L41.6687 64.5792L41.1289 61.2348L42.1249 60.5054" fill="#4A4A4A"/>
<path opacity="0.05" fill-rule="evenodd" clip-rule="evenodd" d="M43.3777 64.323L45.4531 63.8434C45.4531 63.8434 48.3316 64.6844 50.2014 64.1719C51.7315 64.5691 53.3282 64.6184 54.879 64.3164C55.3472 64.9721 56.0061 65.4597 56.7616 65.7094C56.7616 65.7094 56.119 72.2801 51.2615 74.4287C51.2435 75.7181 51.2907 77.0077 51.4029 78.2922L52.81 76.4524C52.81 76.4524 52.765 75.0594 53.0478 74.9872C53.3305 74.9149 58.0209 72.8846 59.2482 68.3245L61.7283 66.557C61.7283 66.557 62.6664 62.7329 61.0858 62.1021C59.5052 61.4714 59.4988 63.1732 59.4988 63.1732L58.4964 64.5661C58.4964 64.5661 57.0186 64.0996 56.8708 63.2126C56.723 62.3255 56.3696 62.3321 56.3696 62.3321C54.935 62.6171 53.4742 62.7405 52.0133 62.7001L50.4455 62.1941L47.9782 62.5884L45.0547 62.2598L43.3777 64.323Z" fill="#4A4A4A"/>
<path opacity="0.05" fill-rule="evenodd" clip-rule="evenodd" d="M69.2331 43.2444C69.2331 43.2444 66.4702 45.4324 61.285 45.255C59.4217 48.8951 59.9999 53.1398 60.771 54.3291C61.542 55.5183 64.4976 57.1216 68.7833 56.8062C70.7495 58.3897 67.2991 58.7774 67.2991 58.7774L66.1232 61.11V65.7751C66.1232 65.7751 63.8166 63.7382 64.0929 59.2899C62.5444 58.4817 58.8691 57.6144 58.1559 54.6116C57.4427 51.6088 56.9865 48.7506 58.021 46.2472C58.5902 44.8786 59.0856 43.4791 59.5052 42.0551C59.5052 42.0551 65.0888 44.2694 69.2331 43.2444Z" fill="#4A4A4A"/>
<path opacity="0.05" fill-rule="evenodd" clip-rule="evenodd" d="M63.0968 33.6578C63.0968 33.6578 58.5991 38.0141 60.5845 39.8408C62.5699 41.6674 65.9046 42.2325 69.6891 41.0629C71.4368 41.2798 70.6722 43.586 70.6722 43.586L68.629 43.021C68.629 43.021 61.3684 43.4546 59.987 42.7122L59.0489 43.4941L58.5413 44.979C58.5413 44.979 55.4314 41.7594 56.6651 38.7961C57.5216 36.9421 58.9823 35.4507 60.7965 34.5777L63.0968 33.6578Z" fill="#4A4A4A"/>
<path d="M101.198 88.7067H5" stroke="#4A4A4A" stroke-width="1.5" stroke-linecap="round" stroke-linejoin="round"/>
</svg>
