<svg width="106" height="106" viewBox="0 0 106 106" fill="none" xmlns="http://www.w3.org/2000/svg">
<path d="M106 0H0V106H106V0Z" fill="white"/>
<path d="M47.3086 70.7072V88.4533H59.5548L59.4956 41.6713H47.3086V69.2494V70.7072Z" fill="#ECECEC"/>
<path d="M19.1423 64.5158V88.4533H47.3086V41.6713L19.1423 41.76V62.2921" fill="#F7F7F7"/>
<path fill-rule="evenodd" clip-rule="evenodd" d="M19.1567 69.9512V88.4178H88.3478V69.9512H24.7201H19.1567Z" fill="#ECECEC"/>
<path d="M35.1184 69.9867H21.521" stroke="#4A4A4A" stroke-width="1.5" stroke-linecap="round" stroke-linejoin="round"/>
<path fill-rule="evenodd" clip-rule="evenodd" d="M36.5515 53.2582H42.2419V48.8377C42.2419 47.2596 40.9681 45.9803 39.3967 45.9803C37.8254 45.9803 36.5515 47.2596 36.5515 48.8377V53.2582Z" fill="#ECECEC"/>
<path opacity="0.428316" d="M41.6845 45.9802L40.2251 53.2591H37.9639L39.4234 45.9802H41.6845Z" fill="white"/>
<path fill-rule="evenodd" clip-rule="evenodd" d="M36.5515 53.2582H42.2419V48.8377C42.2419 47.2596 40.9681 45.9803 39.3967 45.9803C37.8254 45.9803 36.5515 47.2596 36.5515 48.8377V53.2582Z" stroke="#4A4A4A" stroke-width="1.5" stroke-linecap="round" stroke-linejoin="round"/>
<path d="M36.0269 53.2581H42.7669" stroke="#4A4A4A" stroke-width="1.5" stroke-linecap="round" stroke-linejoin="round"/>
<path fill-rule="evenodd" clip-rule="evenodd" d="M35.6748 53.4008H43.0225V54.0368C43.0225 54.4108 42.7481 54.7276 42.3793 54.7794L36.5249 55.6015C36.1165 55.6588 35.7391 55.3728 35.682 54.9627C35.6772 54.9283 35.6748 54.8936 35.6748 54.8589V53.4008Z" fill="#4A4A4A" fill-opacity="0.08"/>
<path fill-rule="evenodd" clip-rule="evenodd" d="M24.2349 53.2582H29.9252V45.9803H24.2349V53.2582Z" fill="white"/>
<path opacity="0.428316" d="M29.3673 56.4446L27.9079 63.7236H25.6467L27.1062 56.4446H29.3673Z" fill="white"/>
<path d="M29.9252 51.6198V45.9803H24.2349V53.2582H29.9252" stroke="#4A4A4A" stroke-width="1.5" stroke-linecap="round" stroke-linejoin="round"/>
<path d="M23.71 53.2582H30.45" stroke="#4A4A4A" stroke-width="1.5" stroke-linecap="round" stroke-linejoin="round"/>
<path fill-rule="evenodd" clip-rule="evenodd" d="M24.2349 65.5692H29.9252V58.2914H24.2349V65.5692Z" fill="white"/>
<path d="M29.9252 63.9308V58.2914H24.2349V65.5692H29.9252" stroke="#4A4A4A" stroke-width="1.5" stroke-linecap="round" stroke-linejoin="round"/>
<path d="M23.71 65.5692H30.45" stroke="#4A4A4A" stroke-width="1.5" stroke-linecap="round" stroke-linejoin="round"/>
<path fill-rule="evenodd" clip-rule="evenodd" d="M24.2349 83.4202H29.9252V76.1425H24.2349V83.4202Z" fill="white"/>
<path fill-rule="evenodd" clip-rule="evenodd" d="M29.9252 76.1425H24.2349V82.298H29.9252V76.1425Z" stroke="#4A4A4A" stroke-width="1.5" stroke-linecap="round" stroke-linejoin="round"/>
<path fill-rule="evenodd" clip-rule="evenodd" d="M36.5515 66.1848H42.2419V61.7643C42.2419 60.1862 40.9681 58.9069 39.3967 58.9069C37.8254 58.9069 36.5515 60.1862 36.5515 61.7643V66.1848Z" fill="#ECECEC"/>
<path opacity="0.428316" d="M41.6845 58.9067L40.2251 66.1857H37.9639L39.4234 58.9067H41.6845Z" fill="white"/>
<path fill-rule="evenodd" clip-rule="evenodd" d="M36.5515 66.1848H42.2419V61.7643C42.2419 60.1862 40.9681 58.9069 39.3967 58.9069C37.8254 58.9069 36.5515 60.1862 36.5515 61.7643V66.1848Z" stroke="#4A4A4A" stroke-width="1.5" stroke-linecap="round" stroke-linejoin="round"/>
<path d="M36.0269 66.1848H42.7669" stroke="#4A4A4A" stroke-width="1.5" stroke-linecap="round" stroke-linejoin="round"/>
<path fill-rule="evenodd" clip-rule="evenodd" d="M35.6748 66.3274H43.0225V66.9634C43.0225 67.3374 42.7481 67.6542 42.3793 67.706L36.5249 68.5281C36.1165 68.5854 35.7391 68.2994 35.682 67.8893C35.6772 67.8549 35.6748 67.8202 35.6748 67.7854V66.3274Z" fill="#4A4A4A" fill-opacity="0.08"/>
<path fill-rule="evenodd" clip-rule="evenodd" d="M51.1941 83.4202H55.7464V76.1425H51.1941V83.4202Z" fill="#DADADA"/>
<path fill-rule="evenodd" clip-rule="evenodd" d="M51.1941 88.3447H55.7464V77.8771C55.7464 77.463 55.4121 77.1273 54.9997 77.1273H51.9408C51.5284 77.1273 51.1941 77.463 51.1941 77.8771V88.3447Z" fill="#ECECEC" stroke="#4A4A4A" stroke-width="1.5" stroke-linecap="round" stroke-linejoin="round"/>
<path fill-rule="evenodd" clip-rule="evenodd" d="M36.6294 83.4204H42.1617V76.1425H36.6294V83.4204Z" fill="#F7F7F7"/>
<path opacity="0.428316" d="M41.6195 76.1423L40.2006 83.4212H38.0022L39.4211 76.1423H41.6195Z" fill="white"/>
<path d="M36.6294 83.4204H41.415C41.8274 83.4204 42.1617 83.0847 42.1617 82.6705V76.8924C42.1617 76.4783 41.8274 76.1425 41.415 76.1425H37.3761C36.9637 76.1425 36.6294 76.4783 36.6294 76.8924V81.9944" stroke="#4A4A4A" stroke-width="1.5" stroke-linecap="round" stroke-linejoin="round"/>
<path fill-rule="evenodd" clip-rule="evenodd" d="M51.1011 53.2582H55.843V48.3614C55.843 47.0464 54.7815 45.9803 53.472 45.9803C52.1626 45.9803 51.1011 47.0464 51.1011 48.3614V53.2582Z" fill="#ECECEC"/>
<path opacity="0.428316" d="M55.3783 45.9802L54.1621 53.2591H52.2778L53.494 45.9802H55.3783Z" fill="white"/>
<path d="M51.1011 50.0997V53.2582H55.843V48.3614C55.843 47.0464 54.7815 45.9803 53.472 45.9803C52.1626 45.9803 51.1011 47.0464 51.1011 48.3614V48.4454" stroke="#4A4A4A" stroke-width="1.5" stroke-linecap="round" stroke-linejoin="round"/>
<path d="M50.6638 53.2581H56.2805" stroke="#4A4A4A" stroke-width="1.5" stroke-linecap="round" stroke-linejoin="round"/>
<path fill-rule="evenodd" clip-rule="evenodd" d="M50.3701 53.4008H56.4932V54.0545C56.4932 54.4208 56.2298 54.7335 55.8701 54.7941L51.2404 55.5742C50.8337 55.6427 50.4487 55.3672 50.3804 54.9588C50.3736 54.9178 50.3701 54.8763 50.3701 54.8347V53.4008Z" fill="#4A4A4A" fill-opacity="0.08"/>
<path fill-rule="evenodd" clip-rule="evenodd" d="M51.1011 66.1848H55.843V61.2881C55.843 59.973 54.7815 58.9069 53.472 58.9069C52.1626 58.9069 51.1011 59.973 51.1011 61.2881V66.1848Z" fill="#ECECEC"/>
<path opacity="0.428316" d="M55.3783 58.9067L54.1621 66.1857H52.2778L53.494 58.9067H55.3783Z" fill="white"/>
<path fill-rule="evenodd" clip-rule="evenodd" d="M51.1011 66.1848H55.843V61.2881C55.843 59.973 54.7815 58.9069 53.472 58.9069C52.1626 58.9069 51.1011 59.973 51.1011 61.2881V66.1848Z" stroke="#4A4A4A" stroke-width="1.5" stroke-linecap="round" stroke-linejoin="round"/>
<path d="M50.6638 66.1848H56.2805" stroke="#4A4A4A" stroke-width="1.5" stroke-linecap="round" stroke-linejoin="round"/>
<path fill-rule="evenodd" clip-rule="evenodd" d="M50.3701 66.3274H56.4932V66.9811C56.4932 67.3474 56.2298 67.6601 55.8701 67.7207L51.2404 68.5008C50.8337 68.5693 50.4487 68.2938 50.3804 67.8854C50.3736 67.8444 50.3701 67.8029 50.3701 67.7613V66.3274Z" fill="#4A4A4A" fill-opacity="0.08"/>
<path d="M59.5548 41.3456L47.9209 41.3814" stroke="#4A4A4A" stroke-width="1.5" stroke-linecap="round" stroke-linejoin="round"/>
<path opacity="0.61556" fill-rule="evenodd" clip-rule="evenodd" d="M47.3086 43.518H19.1423V41.0558H47.3086V43.518Z" fill="#4A4A4A" fill-opacity="0.08"/>
<path d="M19.4485 41.6713V62.4484M19.4485 64.4656V88.2741M19.4667 41.6713H33.2255" stroke="#4A4A4A" stroke-width="1.5" stroke-linecap="round" stroke-linejoin="round"/>
<path fill-rule="evenodd" clip-rule="evenodd" d="M48.0635 42.1119V38.8966H56.5567H59.3268V42.1119H48.0635Z" fill="#DADADA"/>
<path d="M46.9265 38.601H59.267C59.5474 38.601 59.7747 38.8886 59.7747 39.2435V40.9068C59.7747 41.2617 59.5474 41.5494 59.267 41.5494H46.9265" stroke="#4A4A4A" stroke-width="1.5" stroke-linecap="round" stroke-linejoin="round"/>
<path d="M46.8822 41.5495C47.2809 41.5495 47.6041 41.2249 47.6041 40.8245V39.3434C47.6041 38.9293 47.2698 38.5936 46.8575 38.5936H35.7278" stroke="#4A4A4A" stroke-width="1.5" stroke-linecap="round" stroke-linejoin="round"/>
<path opacity="0.61556" fill-rule="evenodd" clip-rule="evenodd" d="M59.5548 43.518H47.3086V41.0558H59.5548V43.518Z" fill="#4A4A4A" fill-opacity="0.08"/>
<path d="M57.1058 71.5256H49.1458" stroke="#4A4A4A" stroke-width="1.5" stroke-linecap="round" stroke-linejoin="round"/>
<path d="M47.3086 41.6713V68.653M59.5548 75.8082V41.9997M47.3086 88.4533H59.5548V78.245L47.3086 88.4533Z" stroke="#4A4A4A" stroke-width="1.5" stroke-linecap="round" stroke-linejoin="round"/>
<path d="M47.0027 68.7556V86.6067" stroke="#4A4A4A" stroke-width="1.5" stroke-linecap="round" stroke-linejoin="round"/>
<path d="M71.9653 64.4993V88.1753H88.348L88.2688 25.761H71.9653V62.5544V64.4993Z" fill="#ECECEC"/>
<path d="M34.7798 43.6728V65.6306H72.0188V25.869L34.7798 25.938V41.9398" fill="#FCFCFC"/>
<path fill-rule="evenodd" clip-rule="evenodd" d="M42.0049 41.3975H49.3458V35.4615C49.3458 33.4257 47.7025 31.7753 45.6753 31.7753C43.6482 31.7753 42.0049 33.4257 42.0049 35.4615V41.3975Z" fill="white"/>
<path fill-rule="evenodd" clip-rule="evenodd" d="M42.0049 41.3975H49.3458V35.4615C49.3458 33.4257 47.7025 31.7753 45.6753 31.7753C43.6482 31.7753 42.0049 33.4257 42.0049 35.4615V41.3975Z" stroke="#4A4A4A" stroke-width="1.5" stroke-linecap="round" stroke-linejoin="round"/>
<path d="M41.3279 41.3975H50.0229" stroke="#4A4A4A" stroke-width="1.5" stroke-linecap="round" stroke-linejoin="round"/>
<path fill-rule="evenodd" clip-rule="evenodd" d="M57.5776 41.3975H64.9186V35.4615C64.9186 33.4257 63.2752 31.7753 61.2481 31.7753C59.221 31.7753 57.5776 33.4257 57.5776 35.4615V41.3975Z" fill="white"/>
<path fill-rule="evenodd" clip-rule="evenodd" d="M57.5776 41.3975H64.9186V35.4615C64.9186 33.4257 63.2752 31.7753 61.2481 31.7753C59.221 31.7753 57.5776 33.4257 57.5776 35.4615V41.3975Z" stroke="#4A4A4A" stroke-width="1.5" stroke-linecap="round" stroke-linejoin="round"/>
<path d="M56.9004 41.3975H65.5955" stroke="#4A4A4A" stroke-width="1.5" stroke-linecap="round" stroke-linejoin="round"/>
<path fill-rule="evenodd" clip-rule="evenodd" d="M42.0049 58.9762H49.3458V53.0402C49.3458 51.0044 47.7025 49.3541 45.6753 49.3541C43.6482 49.3541 42.0049 51.0044 42.0049 53.0402V58.9762Z" fill="white"/>
<path opacity="0.05" d="M47.1332 49.3539L45.2504 58.9775H42.3333L44.2161 49.3539H47.1332Z" fill="#4A4A4A"/>
<path opacity="0.05" d="M47.1332 31.7219L45.2504 41.3455H42.3333L44.2161 31.7219H47.1332Z" fill="#4A4A4A"/>
<path opacity="0.05" d="M63.0266 31.7219L61.1438 41.3455H58.2268L60.1095 31.7219H63.0266Z" fill="#4A4A4A"/>
<path opacity="0.05" d="M49.2667 51.9681V58.9775H46.8132L48.5201 50.8434L49.2667 51.9681Z" fill="#4A4A4A"/>
<path opacity="0.05" d="M49.2667 34.3361V41.3455H46.8132L48.5201 33.2113L49.2667 34.3361Z" fill="#4A4A4A"/>
<path opacity="0.05" d="M65.1604 34.3361V41.3455H62.7068L64.4137 33.2113L65.1604 34.3361Z" fill="#4A4A4A"/>
<path d="M49.3458 56.8101V53.0402C49.3458 51.0044 47.7025 49.3541 45.6753 49.3541C43.6482 49.3541 42.0049 51.0044 42.0049 53.0402V58.9762H49.3458" stroke="#4A4A4A" stroke-width="1.5" stroke-linecap="round" stroke-linejoin="round"/>
<path d="M41.3279 58.9762H50.0229" stroke="#4A4A4A" stroke-width="1.5" stroke-linecap="round" stroke-linejoin="round"/>
<path fill-rule="evenodd" clip-rule="evenodd" d="M57.5776 58.9762H64.9186V53.0402C64.9186 51.0044 63.2752 49.3541 61.2481 49.3541C59.221 49.3541 57.5776 51.0044 57.5776 53.0402V58.9762Z" fill="white"/>
<path fill-rule="evenodd" clip-rule="evenodd" d="M57.5776 58.9762H64.9186V53.0402C64.9186 51.0044 63.2752 49.3541 61.2481 49.3541C59.221 49.3541 57.5776 51.0044 57.5776 53.0402V58.9762Z" stroke="#4A4A4A" stroke-width="1.5" stroke-linecap="round" stroke-linejoin="round"/>
<path d="M56.9004 58.9762H65.5955" stroke="#4A4A4A" stroke-width="1.5" stroke-linecap="round" stroke-linejoin="round"/>
<path fill-rule="evenodd" clip-rule="evenodd" d="M35.1184 65.6305V88.4178H88.3479V65.6305H39.3984H35.1184Z" fill="#ECECEC"/>
<path fill-rule="evenodd" clip-rule="evenodd" d="M42.0049 81.7636H49.3458V72.1414H42.0049V81.7636Z" fill="#ECECEC"/>
<path opacity="0.428316" d="M48.6262 72.1412L46.7435 81.7648H43.8264L45.7092 72.1412H48.6262Z" fill="white"/>
<path fill-rule="evenodd" clip-rule="evenodd" d="M42.0049 81.7636H49.3458V72.1414H42.0049V81.7636Z" fill="white" stroke="#4A4A4A" stroke-width="1.5" stroke-linecap="round" stroke-linejoin="round"/>
<path opacity="0.05" d="M47.3464 72.2144L45.4637 81.838H42.5466L44.4294 72.2144H47.3464Z" fill="#4A4A4A"/>
<path opacity="0.05" d="M49.4801 74.8287V81.8381H47.0266L48.7335 73.7039L49.4801 74.8287Z" fill="#4A4A4A"/>
<path fill-rule="evenodd" clip-rule="evenodd" d="M77.051 88.2741H83.3433V73.4435H77.051V88.2741Z" fill="#F7F7F7" stroke="#4A4A4A" stroke-width="1.5" stroke-linecap="round" stroke-linejoin="round"/>
<path fill-rule="evenodd" clip-rule="evenodd" d="M57.5774 81.7636H64.9183V72.1414H57.5774V81.7636Z" fill="white"/>
<path opacity="0.05" d="M62.2798 72.2144L60.397 81.838H57.48L59.3627 72.2144H62.2798Z" fill="#4A4A4A"/>
<path opacity="0.05" d="M64.4137 74.8287V81.838H61.9602L63.667 73.7039L64.4137 74.8287Z" fill="#4A4A4A"/>
<path d="M57.5774 81.7636H64.9183V72.1414H57.5774V79.8783" stroke="#4A4A4A" stroke-width="1.5" stroke-linecap="round" stroke-linejoin="round"/>
<path fill-rule="evenodd" clip-rule="evenodd" d="M77.051 41.3975H83.3433V34.9349C83.3433 33.1899 81.9347 31.7753 80.1971 31.7753C78.4596 31.7753 77.051 33.1899 77.051 34.9349V41.3975Z" fill="white"/>
<path opacity="0.05" d="M81.6931 31.7219L79.8104 41.3455H76.8933L78.7761 31.7219H81.6931Z" fill="#4A4A4A"/>
<path opacity="0.05" d="M83.8268 34.3361V41.3455H81.3733L83.0801 33.2113L83.8268 34.3361Z" fill="#4A4A4A"/>
<path d="M77.051 37.2217V41.3975H83.3433V34.9349C83.3433 33.1899 81.9347 31.7753 80.1971 31.7753C78.4596 31.7753 77.051 33.1899 77.051 34.9349V35.0344" stroke="#4A4A4A" stroke-width="1.5" stroke-linecap="round" stroke-linejoin="round"/>
<path d="M76.4707 41.3975H83.9236" stroke="#4A4A4A" stroke-width="1.5" stroke-linecap="round" stroke-linejoin="round"/>
<path fill-rule="evenodd" clip-rule="evenodd" d="M77.051 58.9762H83.3432V52.5136C83.3432 50.7687 81.9347 49.3541 80.1971 49.3541C78.4596 49.3541 77.051 50.7687 77.051 52.5136V58.9762Z" fill="white"/>
<path fill-rule="evenodd" clip-rule="evenodd" d="M77.051 58.9762H83.3432V52.5136C83.3432 50.7687 81.9347 49.3541 80.1971 49.3541C78.4596 49.3541 77.051 50.7687 77.051 52.5136V58.9762Z" stroke="#4A4A4A" stroke-width="1.5" stroke-linecap="round" stroke-linejoin="round"/>
<path d="M76.4707 58.9762H83.9236" stroke="#4A4A4A" stroke-width="1.5" stroke-linecap="round" stroke-linejoin="round"/>
<path d="M88.2688 25.5627L72.553 25.6007" stroke="#4A4A4A" stroke-width="1.5" stroke-linecap="round" stroke-linejoin="round"/>
<path opacity="0.61556" fill-rule="evenodd" clip-rule="evenodd" d="M72.0188 28.5499H34.7798V25.2946H72.0188V28.5499Z" fill="#4A4A4A" fill-opacity="0.08"/>
<path d="M35.0645 25.7122V33.7284M35.0645 36.1262V36.5392M35.0645 38.6859V85.8136" stroke="#4A4A4A" stroke-width="1.5" stroke-linecap="round" stroke-linejoin="round"/>
<path fill-rule="evenodd" clip-rule="evenodd" d="M72.0264 26.3415V22.3739H84.4928H88.5587V26.3415H72.0264Z" fill="#DADADA"/>
<path d="M72.0239 22.0092H88.479C88.853 22.0092 89.1561 22.3642 89.1561 22.8021V24.8545C89.1561 25.2925 88.853 25.6475 88.479 25.6475H72.0239" stroke="#4A4A4A" stroke-width="1.5" stroke-linecap="round" stroke-linejoin="round"/>
<path fill-rule="evenodd" clip-rule="evenodd" d="M34.5337 25.6904V22.3739H63.1377H72.2812V25.6904H34.5337Z" fill="#ECECEC"/>
<path d="M66.4283 25.6475H34.9058C34.4935 25.6475 34.1592 25.3118 34.1592 24.8977V22.7499C34.1592 22.3357 34.4935 22 34.9058 22C41.2271 22 47.5484 22 53.8696 22C58.2498 22 63.5974 22 69.9125 22" stroke="#4A4A4A" stroke-width="1.5" stroke-linecap="round" stroke-linejoin="round"/>
<path d="M68.4761 25.6475H71.7867V22H57.0913" stroke="#4A4A4A" stroke-width="1.5" stroke-linecap="round" stroke-linejoin="round"/>
<path opacity="0.61556" fill-rule="evenodd" clip-rule="evenodd" d="M88.7713 28.5499H72.5791V25.527H88.7713V28.5499Z" fill="#4A4A4A" fill-opacity="0.08"/>
<path d="M71.3419 65.6305H38.071" stroke="#4A4A4A" stroke-width="1.5" stroke-linecap="round" stroke-linejoin="round"/>
<path d="M85.5606 65.6305H74.6333" stroke="#4A4A4A" stroke-width="1.5" stroke-linecap="round" stroke-linejoin="round"/>
<path d="M71.9648 88.4178H88.3479V74.7455M88.3479 71.4817V26.2008M71.9648 25.761V61.8985" stroke="#4A4A4A" stroke-width="1.5" stroke-linecap="round" stroke-linejoin="round"/>
<path d="M71.9651 62.3748V86.4646" stroke="#4A4A4A" stroke-width="1.5" stroke-linecap="round" stroke-linejoin="round"/>
<path d="M15.4441 88.4533L96.3067 88.4476" stroke="#4A4A4A" stroke-width="1.5" stroke-linecap="round"/>
<path d="M12.8906 88.4532H10.917" stroke="#4A4A4A" stroke-width="1.5" stroke-linecap="round"/>
<path opacity="0.05" d="M63.0265 49.2374L61.1437 58.82H58.2266L60.1094 49.2374H63.0265Z" fill="#4A4A4A"/>
<path opacity="0.05" d="M80.6267 49.6005L78.8694 58.5605H76.1467L77.904 49.6005H80.6267Z" fill="#4A4A4A"/>
<path opacity="0.05" d="M65.1601 51.8405V58.82H62.7065L64.4134 50.7205L65.1601 51.8405Z" fill="#4A4A4A"/>
<path opacity="0.05" d="M82.8667 52.1263V58.5605H80.6267L82.185 51.0938L82.8667 52.1263Z" fill="#4A4A4A"/>
</svg>
