<svg width="232" height="147" viewBox="0 0 232 147" fill="none" xmlns="http://www.w3.org/2000/svg">
<path d="M64.3515 124.86L79.957 112.553C72.6296 109.77 68.682 105.96 68.7876 101.819C68.9878 93.9789 85.7621 88.0443 106.254 88.5638C126.746 89.0832 139.648 91.5022 139.449 99.3428C139.248 107.183 126.022 117.474 105.529 116.955C99.2319 116.795 93.3206 116.043 88.1533 114.853L68.4645 129.771C67.835 130.248 67.0768 130.47 66.3301 130.451C65.3897 130.427 64.4661 130.022 63.8327 129.267C62.6973 127.91 62.9297 125.938 64.3515 124.86Z" fill="#4A4A4A" fill-opacity="0.04"/>
<path d="M92.5549 85.9179L94.2606 95.8036L94.2864 95.9383C95.696 102.082 104.501 106.815 115.141 106.815C125.787 106.815 134.579 102.082 135.995 95.9383L136.021 95.8036L137.357 85.1118C137.357 85.1118 137.271 88.4678 135.077 91.0227C131.199 95.7254 123.877 98.2675 114.935 98.5523C112.063 98.5523 109.573 98.2137 106.996 97.673C106.709 97.6128 106.425 97.5352 106.147 97.4435L102.699 96.309C97.7087 94.2876 93.1162 91.0022 92.5549 85.9179Z" fill="#00F4FF"/>
<path d="M81.1514 41.5634L91.101 97.9039L91.1351 98.0553C92.7584 105.13 102.89 110.579 115.142 110.579C127.392 110.579 137.52 105.13 139.144 98.0559L139.177 97.9039L149.135 41.5519C148.277 44.3101 146.508 46.8728 144.021 49.1199C137.834 54.7416 127.209 58.4438 115.142 58.4438C103.07 58.4438 92.443 54.7371 86.2575 49.1199C83.7743 46.8728 82.0087 44.314 81.1514 41.5634Z" fill="#F7F7F7"/>
<path d="M138.786 95.5181C136.687 89.1641 126.42 84.108 114.497 84.108C110.448 84.108 106.631 84.7032 103.275 85.7549" stroke="#CCCCCC" stroke-width="1.5" stroke-linecap="round" stroke-linejoin="round"/>
<path d="M99.6382 87.158C94.6744 89.8168 91.55 93.6813 91.55 97.9825C91.55 98.3134 91.5694 98.6412 91.606 98.9663" stroke="#CCCCCC" stroke-width="1.5" stroke-linecap="round" stroke-linejoin="round"/>
<path d="M94.2606 95.6478L94.2864 95.7831C95.696 101.926 104.501 106.659 115.141 106.659C125.787 106.659 134.579 101.926 135.995 95.7831L136.021 95.6478L137.357 84.7174C137.357 84.7174 137.271 87.6706 135.077 90.2256C127.587 99.7092 109.695 99.1429 101.785 95.5901C96.89 93.3917 93.1889 90.5001 92.5549 85.7627L94.2606 95.6478Z" fill="#00F4FF"/>
<path opacity="0.375581" d="M92.5122 85.1116C92.5122 85.2912 92.5193 85.4708 92.5328 85.6497C92.8025 89.8932 96.3619 93.6256 101.729 95.9715L105.773 97.3791C108.571 98.1314 111.673 98.5521 114.935 98.5521C124.118 98.5521 132.004 95.2468 135.474 90.514C136.686 88.8581 137.358 87.0362 137.358 85.1116C137.358 77.6949 127.324 71.6782 114.935 71.6782C102.553 71.6782 92.5122 77.6949 92.5122 85.1116Z" fill="#00F4FF"/>
<path opacity="0.772461" d="M92.5122 85.1116C92.5122 85.2912 92.5193 85.4708 92.5328 85.6497C92.8025 89.8932 98.5124 98.5521 114.935 98.5521C125.281 98.5521 132.004 95.2468 135.474 90.514C136.686 88.8581 137.358 87.0362 137.358 85.1116C137.358 77.6949 127.324 71.6782 114.935 71.6782C102.553 71.6782 92.5122 77.6949 92.5122 85.1116Z" fill="#00F4FF"/>
<path d="M96.677 55.2458C97.0394 55.3831 97.4076 55.5171 97.7789 55.6467" stroke="#494949" stroke-width="1.5" stroke-linecap="round" stroke-linejoin="round"/>
<path d="M103.807 57.0561L98.7561 50.0383Z" fill="#F7F7F7"/>
<path d="M103.807 57.0561L98.7561 50.0383" stroke="#B3B3B3" stroke-width="1.5" stroke-linecap="round"/>
<path d="M84.8411 41.9153L125.075 99.5346C126.734 101.205 131.625 98.7336 130.272 95.7509L105.931 60.0065" fill="#F7F7F7"/>
<path d="M84.8411 41.9153L125.075 99.5346C126.734 101.205 131.625 98.7336 130.272 95.7509L105.931 60.0065" stroke="#B3B3B3" stroke-width="1.5" stroke-linecap="round"/>
<path d="M84.6752 37.7209C84.6752 28.1212 98.3155 20.3415 115.141 20.3415C131.967 20.3415 145.603 28.1218 145.603 37.7209C145.603 47.3161 131.967 55.1002 115.141 55.1002C110.706 55.1002 106.493 54.5596 102.694 53.588L97.1975 51.7648C89.6069 48.607 84.6752 43.4901 84.6752 37.7209ZM80.5564 37.7209C80.5564 44.6021 86.1556 50.6996 94.7728 54.4685L101.011 56.6413C105.325 57.8001 110.106 58.4433 115.141 58.4433C134.241 58.4433 149.726 49.1669 149.726 37.7209C149.726 26.2749 134.241 16.9984 115.141 16.9984C96.0376 16.9984 80.5564 26.2749 80.5564 37.7209Z" fill="#F7F7F7"/>
<path d="M82.9465 30.1327C81.403 32.4824 80.5547 35.0419 80.5547 37.7206C80.5547 44.6024 86.1532 50.7006 94.7711 54.4695" stroke="#494949" stroke-width="1.5" stroke-linecap="round" stroke-linejoin="round"/>
<path d="M101.011 56.64C105.325 57.7982 110.107 58.4427 115.139 58.4427C134.24 58.4427 149.725 49.165 149.725 37.7209C149.725 26.2762 134.24 16.9984 115.139 16.9984C102.299 16.9984 91.0929 21.1913 85.1262 27.4164" stroke="#494949" stroke-width="1.5" stroke-linecap="round" stroke-linejoin="round"/>
<path d="M141.574 28.8369C144.465 31.4227 146.133 34.4644 146.133 37.7209C146.133 43.3682 141.116 48.373 133.393 51.466" stroke="#494949" stroke-width="1.5" stroke-linecap="round" stroke-linejoin="round"/>
<path d="M135.041 24.6825C135.214 24.7627 135.386 24.8428 135.557 24.9249" stroke="#494949" stroke-width="1.5" stroke-linecap="round" stroke-linejoin="round"/>
<path d="M86.9844 30.6011C91.8942 24.7646 102.655 20.7141 115.139 20.7141C121.642 20.7141 127.677 21.8127 132.661 23.6904" stroke="#494949" stroke-width="1.5" stroke-linecap="round" stroke-linejoin="round"/>
<path d="M127.801 53.2477C123.935 54.1981 119.65 54.7266 115.139 54.7266C98.0219 54.7266 84.146 47.113 84.146 37.7205" stroke="#494949" stroke-width="1.5" stroke-linecap="round" stroke-linejoin="round"/>
<path d="M91.1008 97.9036L91.1349 98.0556C92.7582 105.13 102.889 110.579 115.141 110.579C127.392 110.579 137.519 105.13 139.143 98.0556L139.177 97.9036" stroke="#494949" stroke-width="1.5" stroke-linecap="round" stroke-linejoin="round"/>
<path opacity="0.807687" d="M127.649 90.484C128.159 93.7668 120.653 94.9011 119.488 92.899L122.31 96.957C122.661 97.4431 124.076 100.356 125.467 100.655C125.768 100.741 126.278 100.919 126.72 100.894C129.896 100.719 132.742 97.3007 130.506 94.7137L127.649 90.484Z" fill="#00F4FF"/>
<path opacity="0.472447" d="M94.2604 95.6477L94.2861 95.783C95.6957 101.926 104.501 106.659 115.141 106.659C125.787 106.659 134.579 101.926 135.995 95.783L136.021 95.6477L137.357 84.7173C137.357 84.7173 137.271 87.6705 135.077 90.2254C127.587 99.7091 109.695 99.1428 101.785 95.59C96.8897 93.3916 93.2413 90.4806 92.5547 85.7626L94.2604 95.6477Z" fill="#00F4FF"/>
<path d="M139.902 93.8L149.135 41.5516C148.277 44.3099 146.508 46.8732 144.021 49.1203C137.835 54.7413 127.208 58.4436 115.141 58.4436C103.069 58.4436 92.4433 54.7375 86.2571 49.1197C83.7745 46.8732 82.009 44.3137 81.1516 41.5632L91.1013 97.9037L91.1347 98.0557C92.7587 105.13 102.89 110.579 115.141 110.579C127.392 110.579 137.52 105.13 139.143 98.0557L139.177 97.9037" stroke="#494949" stroke-width="1.5" stroke-linecap="round" stroke-linejoin="round"/>
<path d="M91.5698 40.2385L73.0293 14.957C72.1024 13.6924 70.3954 13.2794 68.9897 13.9816L39.3602 28.7713C37.7704 29.5646 37.128 31.4911 37.9236 33.0745C38.7198 34.6579 40.6263 35.0548 41.3729 34.8772L69.4383 20.9301L86.5937 44.323" fill="white"/>
<mask id="mask0_622_2410" style="mask-type:luminance" maskUnits="userSpaceOnUse" x="37" y="13" width="55" height="32">
<path d="M68.9897 13.9812L39.3602 28.7717C37.7704 29.5649 37.128 31.4914 37.9242 33.0742C38.7192 34.6575 40.6257 35.0545 41.3723 34.8775L69.4383 20.9304L86.5931 44.3233L91.5698 40.2382L73.0299 14.9567C72.4062 14.1063 71.4298 13.6414 70.4296 13.6414C69.9423 13.6414 69.4499 13.7517 68.9897 13.9812Z" fill="white"/>
</mask>
<g mask="url(#mask0_622_2410)">
<path d="M37.9319 33.082L68.5197 18.6725C69.8096 18.0646 71.3512 18.4417 72.213 19.5755L99.2556 56.7667L75.0554 59.507L42.4523 44.7935L37.9319 33.082Z" fill="#4A4A4A" fill-opacity="0.04"/>
</g>
<path d="M91.5698 40.2385L73.0293 14.957C72.1024 13.6924 70.3954 13.2794 68.9897 13.9816L39.3602 28.7713C37.7704 29.5646 37.128 31.4911 37.9236 33.0745C38.7198 34.6579 40.6263 35.0548 41.3729 34.8772L69.4383 20.9301L86.5937 44.323" stroke="#494949" stroke-width="1.5" stroke-linecap="round"/>
<path d="M69.4382 20.9302L71.1272 20.0234Z" fill="#F7F7F7"/>
<path d="M69.4382 20.9302L71.1272 20.0234" stroke="#494949" stroke-width="1.5" stroke-linecap="round" stroke-linejoin="round"/>
<path d="M41.0528 29.7969C40.281 29.1305 39.3374 28.8913 38.5798 29.2659C37.4502 29.8238 37.1606 31.5329 37.9317 33.0823C38.7034 34.6317 40.2437 35.4352 41.3727 34.8773C42.3986 34.3706 42.7314 32.9149 42.2062 31.4912" fill="#E6E6E6"/>
<path d="M41.0528 29.7969C40.281 29.1305 39.3374 28.8913 38.5798 29.2659C37.4502 29.8238 37.1606 31.5329 37.9317 33.0823C38.7034 34.6317 40.2437 35.4352 41.3727 34.8773C42.3986 34.3706 42.7314 32.9149 42.2062 31.4912" stroke="#494949" stroke-width="1.5" stroke-linecap="round" stroke-linejoin="round"/>
<path d="M96.8511 47.4403L100.777 52.7946Z" fill="#F7F7F7"/>
<path d="M96.8511 47.4403L100.777 52.7946" stroke="#494949" stroke-width="1.5" stroke-linecap="round"/>
<path d="M78.0007 32.5876L87.0126 44.877C87.0126 44.877 88.7511 46.8099 90.9221 48.333C90.9221 48.333 94.2659 50.523 99.2556 52.1981" fill="#F7F7F7"/>
<path d="M78.0007 32.5876L87.0126 44.877C87.0126 44.877 88.7511 46.8099 90.9221 48.333C90.9221 48.333 94.2659 50.523 99.2556 52.1981" stroke="#494949" stroke-width="1.5" stroke-linecap="round"/>
<path d="M92.7991 41.9153L92.7585 41.8595Z" fill="white"/>
<path d="M92.7991 41.9153L92.7585 41.8595" stroke="#494949" stroke-width="1.5" stroke-linecap="round"/>
<path d="M98.7561 50.0384L94.127 43.7261Z" fill="white"/>
<path d="M98.7561 50.0384L94.127 43.7261" stroke="#494949" stroke-width="1.5" stroke-linecap="round"/>
<path opacity="0.076404" d="M91.5698 51.7316L100.802 108.74C100.802 108.74 112.675 113.849 114.497 111.22L116.078 57.5097C116.078 57.5097 100.326 52.3511 91.5698 51.7316Z" fill="white"/>
<path opacity="0.076404" d="M127.801 56.2122L123.469 110.925C123.469 110.925 131.579 107.955 133.836 106.077C135.633 104.973 139.052 102.028 139.82 97.9233L151.723 36.301C151.723 36.301 144.065 51.1934 127.801 56.2122Z" fill="white"/>
<path d="M147.134 109.42L145.591 114.09L137.57 135.711C137.14 136.869 136.912 138.087 136.888 139.312C136.873 140.121 137.14 142.716 137.343 144.561C137.452 145.542 138.479 146.136 139.382 145.736C150.273 140.904 179.255 126.248 198.067 116.335" fill="#E0E0E0"/>
<mask id="mask1_622_2410" style="mask-type:luminance" maskUnits="userSpaceOnUse" x="136" y="55" width="89" height="71">
<path d="M145.591 94.0169L137.57 115.638C137.14 116.795 136.911 118.013 136.888 119.239C136.873 120.047 137.14 122.643 137.343 124.487C137.452 125.469 138.479 126.063 139.382 125.662C150.273 120.831 205.688 90.736 224.5 80.8233C191.258 65.41 169.784 57.0444 160.077 55.7265C158.466 55.5077 154.151 66.7144 147.134 89.3466L145.591 94.0169Z" fill="white"/>
</mask>
<g mask="url(#mask1_622_2410)">
<path d="M200.5 89.9899C203.497 78.1189 189.358 72.831 158.082 74.1262L121.035 114.996L133.17 142.267L141.928 138.109C177.979 117.901 197.503 101.861 200.5 89.9899Z" fill="#FCFCFC"/>
</g>
<path d="M147.134 109.42L145.591 114.09L137.57 135.711C137.14 136.869 136.912 138.087 136.888 139.312C136.873 140.121 137.14 142.716 137.343 144.561C137.452 145.542 138.479 146.136 139.382 145.736C150.273 140.904 179.255 126.248 198.067 116.335" stroke="#494949" stroke-width="1.5" stroke-linecap="round" stroke-linejoin="round"/>
<mask id="mask2_622_2410" style="mask-type:luminance" maskUnits="userSpaceOnUse" x="136" y="55" width="83" height="60">
<path d="M156.159 55.3159C147.278 58.7359 144.488 71.8114 146.259 75.7639L138.922 98.6389L136.708 106.189L189.916 114.214C205.721 105.873 210.73 101.686 210.73 101.686C215.809 98.6561 219.538 90.5389 218.722 83.8129C218.242 79.8589 215.321 76.4539 212.093 74.8916C210.14 73.9459 207.943 72.9461 205.57 71.9164C204.811 71.5871 204.065 71.1469 203.272 70.8124C202.084 70.3106 200.827 69.9109 199.573 69.4009C195.599 67.7869 191.337 66.1466 187.019 64.5679C184.952 63.8119 183.064 62.6606 180.997 61.9429C178.747 61.1599 176.321 60.8164 174.133 60.1024C167.795 58.0324 163.6 56.2961 158.863 55.1899C158.47 55.0984 158.068 55.0474 157.666 55.0474C157.153 55.0474 156.641 55.1306 156.159 55.3159Z" fill="white"/>
</mask>
<g mask="url(#mask2_622_2410)">
<path d="M165.194 51.4369C162.995 52.5611 159.368 55.5034 155.245 74.2871C172.643 76.8709 215.645 96.8059 215.645 96.8059C223.13 92.6906 238.067 80.6674 233.024 73.7726C233.024 73.7726 183.228 42.2194 165.194 51.4369Z" fill="#ECECEC"/>
</g>
<mask id="mask3_622_2410" style="mask-type:luminance" maskUnits="userSpaceOnUse" x="136" y="55" width="74" height="42">
<path d="M147.159 55.3159C138.958 58.4741 135.951 69.8666 136.933 74.7049C155.69 78.6739 194.644 96.7324 194.644 96.7324C198.961 94.3594 205.753 89.3584 209.766 84.2261C209.752 84.0881 209.738 83.9501 209.722 83.8129C209.242 79.8589 206.321 76.4539 203.093 74.8916C201.14 73.9459 198.943 72.9461 196.57 71.9164C195.811 71.5871 195.065 71.1469 194.272 70.8124C193.084 70.3106 191.827 69.9109 190.573 69.4009C186.599 67.7869 182.337 66.1466 178.019 64.5679C175.952 63.8119 174.064 62.6606 171.997 61.9429C169.747 61.1599 167.321 60.8164 165.133 60.1024C158.795 58.0324 154.6 56.2961 149.863 55.1899C149.47 55.0976 149.068 55.0474 148.666 55.0474C148.153 55.0474 147.641 55.1306 147.159 55.3159Z" fill="white"/>
</mask>
<g mask="url(#mask3_622_2410)">
<path d="M160.324 61.5834C160.324 61.5834 157.322 71.1894 161.538 71.9551C165.755 72.7201 216.302 88.8039 216.302 88.8039L225.233 104.423L141.166 86.7361L160.324 61.5834Z" fill="#494949" fill-opacity="0.04"/>
</g>
<mask id="mask4_622_2410" style="mask-type:luminance" maskUnits="userSpaceOnUse" x="136" y="55" width="83" height="69">
<path d="M146.259 75.7639L138.922 98.6389L136.708 106.189L174.133 123C189.938 114.659 210.73 101.686 210.73 101.686C215.809 98.6561 219.538 90.5389 218.722 83.8129C218.242 79.8589 215.321 76.4539 212.093 74.8916C210.14 73.9459 207.943 72.9461 205.57 71.9164C204.811 71.5871 204.065 71.1469 203.272 70.8124C202.084 70.3106 200.827 69.9109 199.573 69.4009C195.599 67.7869 191.337 66.1466 187.019 64.5679C184.952 63.8119 183.064 62.6606 180.997 61.9429C178.747 61.1599 176.321 60.8164 174.133 60.1024C167.795 58.0324 163.6 56.2961 158.863 55.1899C158.47 55.0984 158.068 55.0474 157.666 55.0474C157.153 55.0474 156.641 55.1306 156.159 55.3159C147.278 58.7359 144.488 71.8114 146.259 75.7639Z" fill="white"/>
</mask>
<g mask="url(#mask4_622_2410)">
<path d="M214.956 83.9007C212.369 96.6125 218.935 98.183 193.672 110.401C168.743 122.459 134.746 141.005 134.746 141.005L135.917 149.574C159.354 136.518 175.56 127.515 184.534 122.565C194.207 117.23 201.623 113.882 207.944 110.401C211.215 108.599 216.144 105.719 222.73 101.759C227.077 99.3687 229.824 93.0162 230.929 86.894C231.96 81.1872 229.184 74.4222 223.518 75.653C221.013 76.1967 215.699 80.2475 214.956 83.9007Z" fill="#DCDCDC"/>
</g>
<path d="M201.916 114.288C217.721 105.947 222.73 101.76 222.73 101.76C227.809 98.7305 231.538 90.6125 230.722 83.8865C230.241 79.9325 227.321 76.5275 224.093 74.9652C222.14 74.0195 219.943 73.0197 217.57 71.99C216.811 71.66 216.065 71.2205 215.272 70.886C214.083 70.3842 212.827 69.9845 211.573 69.4752C207.599 67.8597 203.337 66.2202 199.019 64.6415C196.952 63.8862 195.064 62.7342 192.997 62.0157C190.747 61.2342 188.321 60.89 186.134 60.176C179.795 58.1052 175.6 56.3697 170.863 55.2627C169.968 55.0542 169.017 55.0595 168.159 55.3895C159.278 58.8087 156.488 71.8842 158.259 75.8375L150.922 98.7125L148.708 106.263" stroke="#494949" stroke-width="1.5" stroke-linecap="round" stroke-linejoin="round"/>
<path d="M182.709 81.5993C176.206 79.3171 169.409 77.2853 162.262 75.6691Z" fill="white"/>
<path d="M139.883 138.628C141.97 137.603 144.368 136.339 145.072 135.982C146.908 135.049 150.262 132.619 152.104 131.701C153.992 130.76 158.039 129.486 159.947 128.586C163.717 126.807 167.607 123.913 171.408 122.201C171.558 122.134 175.34 119.674 178.8 119.427C179.089 123.774 184.368 121.948 184.408 118.892C184.757 116.903 185.332 116.177 186.94 115.192C190.03 113.299 194.602 110.775 199.132 108.532C200.821 107.697 199.155 115.081 203.271 114.534C208.025 113.755 207.616 103.126 210.196 101.011C212.284 99.3007 213.992 98.5575 215.097 97.3912C215.807 96.6405 215.982 95.739 215.086 95.316C208.931 92.4097 202.543 89.454 195.85 86.6632" fill="#FCFCFC"/>
<path d="M182.709 81.5993C176.206 79.3171 169.409 77.2853 162.262 75.6691" stroke="#494949" stroke-width="1.5" stroke-linecap="round" stroke-linejoin="round"/>
<path d="M139.883 138.628C141.97 137.603 144.368 136.339 145.072 135.982C146.908 135.049 150.262 132.619 152.104 131.701C153.992 130.76 158.039 129.486 159.947 128.586C163.717 126.807 167.607 123.913 171.408 122.201C171.558 122.134 175.34 119.674 178.8 119.427C179.089 123.774 184.368 121.948 184.408 118.892C184.757 116.903 185.332 116.177 186.94 115.192C190.03 113.299 194.602 110.775 199.132 108.532C200.821 107.697 199.155 115.081 203.271 114.534C208.025 113.755 207.616 103.126 210.196 101.011C212.284 99.3007 213.992 98.5575 215.097 97.3912C215.807 96.6405 215.982 95.739 215.086 95.316C208.931 92.4097 202.543 89.454 195.85 86.6632" stroke="#494949" stroke-width="1.5" stroke-linecap="round" stroke-linejoin="round"/>
<path d="M222.127 76.1286C222.594 75.9073 223.383 75.3073 225.092 75.5143" stroke="#494949" stroke-width="1.5" stroke-linecap="round" stroke-linejoin="round"/>
<path d="M214.766 91.895C214.596 89.7177 214.863 87.3575 215.193 85.8102C215.884 82.568 217.689 79.6317 219.778 77.741" stroke="#494949" stroke-width="1.5" stroke-linecap="round" stroke-linejoin="round"/>
<path opacity="0.04" d="M220.579 83.8486C220.527 84.5558 220.854 85.1558 221.312 85.1903C221.769 85.2241 222.182 84.6788 222.235 83.9723C222.288 83.2651 221.96 82.6643 221.502 82.6306C221.046 82.5961 220.632 83.1413 220.579 83.8486Z" fill="#494949"/>
<path opacity="0.04" d="M221.016 91.5618C220.945 92.5195 221.389 93.3333 222.009 93.3798C222.628 93.4263 223.188 92.6868 223.26 91.729C223.332 90.7713 222.888 89.9575 222.267 89.911C221.649 89.8645 221.088 90.604 221.016 91.5618Z" fill="#494949"/>
<path opacity="0.04" d="M225.648 87.0521C225.627 87.3304 225.757 87.5674 225.937 87.5809C226.117 87.5944 226.28 87.3791 226.301 87.1009C226.322 86.8226 226.193 86.5856 226.012 86.5721C225.832 86.5586 225.669 86.7739 225.648 87.0521Z" fill="#494949"/>
<path d="M159.337 115.322C159.337 115.322 161.742 110.561 166.677 112.637" stroke="#494949" stroke-width="1.5" stroke-linecap="round" stroke-linejoin="round"/>
<path opacity="0.04" d="M191.855 96.3954C191.322 102.914 180.578 107.356 167.856 106.316C157.893 104.682 152.008 100.183 152.54 93.6639C153.074 87.1449 157.066 81.6677 169.787 82.7079C182.508 83.7482 192.389 89.8764 191.855 96.3954Z" fill="#494949"/>
<path d="M162.464 97.9821L162.415 99.0404C162.774 101.98 169.519 103.747 173.21 103.596C173.825 103.571 174.401 103.301 174.8 102.835L178.307 98.7449C181.298 100.419 187.415 100.729 190.149 97.9536C192.116 95.6661 192.476 90.1199 192.227 88.4466C191.933 86.4846 191.092 86.1059 189.288 85.4174C186.255 84.2586 181.139 84.3314 175.334 83.7704C167.818 83.0436 161.276 81.9906 160.759 84.7769C160.759 84.7769 160.748 89.4246 160.727 90.6876C160.701 92.1636 161.516 93.0576 162.983 93.4986C164.153 93.8504 165.209 94.5764 166.341 94.5359" fill="#E0E0E0"/>
<path d="M162.464 97.9821L162.415 99.0404C162.774 101.98 169.519 103.747 173.21 103.596C173.825 103.571 174.401 103.301 174.8 102.835L178.307 98.7449C181.298 100.419 187.415 100.729 190.149 97.9536C192.116 95.6661 192.476 90.1199 192.227 88.4466C191.933 86.4846 191.092 86.1059 189.288 85.4174C186.255 84.2586 181.139 84.3314 175.334 83.7704C167.818 83.0436 161.276 81.9906 160.759 84.7769C160.759 84.7769 160.748 89.4246 160.727 90.6876C160.701 92.1636 161.516 93.0576 162.983 93.4986C164.153 93.8504 165.209 94.5764 166.341 94.5359" fill="#E0E0E0"/>
<path d="M162.464 97.9821L162.415 99.0404C162.774 101.98 169.519 103.747 173.21 103.596C173.825 103.571 174.401 103.301 174.8 102.835L178.307 98.7449C181.298 100.419 187.415 100.729 190.149 97.9536C192.116 95.6661 192.476 90.1199 192.227 88.4466C191.933 86.4846 191.092 86.1059 189.288 85.4174C186.255 84.2586 181.139 84.3314 175.334 83.7704C167.818 83.0436 161.276 81.9906 160.759 84.7769C160.759 84.7769 160.748 89.4246 160.727 90.6876C160.701 92.1636 161.516 93.0576 162.983 93.4986C164.153 93.8504 165.209 94.5764 166.341 94.5359" stroke="#494949" stroke-width="1.5" stroke-linecap="round" stroke-linejoin="round"/>
<path d="M162.464 97.9821L162.415 99.0404C162.774 101.98 169.519 103.747 173.21 103.596C173.825 103.571 174.401 103.301 174.8 102.835L178.307 98.7449C181.298 100.419 187.415 100.729 190.149 97.9536C192.116 95.6661 192.476 90.1199 192.227 88.4466C191.933 86.4846 191.092 86.1059 189.288 85.4174C186.255 84.2586 181.139 84.3314 175.334 83.7704C167.818 83.0436 161.276 81.9906 160.759 84.7769C160.759 84.7769 160.748 89.4246 160.727 90.6876C160.701 92.1636 161.516 93.0576 162.983 93.4986C164.153 93.8504 165.209 94.5764 166.341 94.5359" stroke="#494949" stroke-width="1.5" stroke-linecap="round" stroke-linejoin="round"/>
<path d="M167.691 89.4875C165.373 93.8428 162.721 94.5215 163.073 95.6938C163.589 97.412 171.571 100.349 173.375 98.75C173.76 98.4088 174.75 96.8525 176.865 94.1068L177.173 93.8143C177.546 93.4603 178.088 93.3883 178.542 93.6215C180.527 94.643 183.419 95.2078 185.36 95.066C188.737 94.8193 190.979 93.374 192.033 90.1558C193.377 85.421 187.633 78.3988 176.23 77.7313C168.336 77.2685 163.205 79.727 161.046 83.186C159.89 85.577 161.616 87.4505 165.397 88.7188" fill="#F7F7F7"/>
<path d="M167.691 89.4875C165.373 93.8428 162.721 94.5215 163.073 95.6938C163.589 97.412 171.571 100.349 173.375 98.75C173.76 98.4088 174.75 96.8525 176.865 94.1068L177.173 93.8143C177.546 93.4603 178.088 93.3883 178.542 93.6215C180.527 94.643 183.419 95.2078 185.36 95.066C188.737 94.8193 190.979 93.374 192.033 90.1558C193.377 85.421 187.633 78.3988 176.23 77.7313C168.336 77.2685 163.205 79.727 161.046 83.186C159.89 85.577 161.616 87.4505 165.397 88.7188" stroke="#494949" stroke-width="1.5" stroke-linecap="round" stroke-linejoin="round"/>
<path d="M168.375 142.717L167.688 142.423C167.118 142.178 166.448 142.18 165.893 142.425L165.183 142.741C164.364 143.104 163.99 143.908 164.294 144.65C164.48 145.109 164.903 145.478 165.446 145.657L166.506 146.006C167.228 146.244 168.042 146.106 168.575 145.655L168.901 145.379C169.207 145.122 169.395 144.784 169.434 144.421L169.444 144.326C169.517 143.665 169.092 143.025 168.375 142.717Z" fill="#4A4A4A" fill-opacity="0.04"/>
<path d="M170.383 142.392L169.815 142.105C169.346 141.867 168.788 141.875 168.325 142.127L167.731 142.448C167.046 142.82 166.727 143.627 166.972 144.366C167.123 144.822 167.47 145.187 167.919 145.359L168.797 145.698C169.394 145.928 170.072 145.782 170.52 145.326L170.794 145.048C171.05 144.787 171.21 144.448 171.246 144.085L171.257 143.989C171.324 143.327 170.977 142.692 170.383 142.392Z" fill="#E6E6E6"/>
<path d="M170.383 142.392L169.815 142.105C169.346 141.867 168.788 141.875 168.325 142.127L167.731 142.448C167.046 142.82 166.727 143.627 166.972 144.366C167.123 144.822 167.47 145.187 167.919 145.359L168.797 145.698C169.394 145.928 170.072 145.782 170.52 145.326L170.794 145.048C171.05 144.787 171.21 144.448 171.246 144.085L171.257 143.989C171.324 143.327 170.977 142.692 170.383 142.392Z" stroke="#494949" stroke-width="1.5" stroke-linecap="round" stroke-linejoin="round"/>
<path d="M183.867 141.297L182.848 140.86C182.004 140.499 181.01 140.5 180.187 140.864L179.134 141.332C177.921 141.87 177.365 143.063 177.816 144.163C178.094 144.843 178.72 145.39 179.523 145.655L181.097 146.174C182.168 146.527 183.373 146.321 184.165 145.653L184.649 145.245C185.101 144.863 185.38 144.362 185.438 143.824L185.454 143.683C185.564 142.702 184.932 141.753 183.867 141.297Z" fill="#4A4A4A" fill-opacity="0.04"/>
<path d="M186.846 140.815L186.004 140.389C185.306 140.036 184.48 140.047 183.793 140.421L182.912 140.899C181.898 141.448 181.425 142.647 181.787 143.742C182.011 144.418 182.527 144.959 183.191 145.215L184.494 145.717C185.38 146.059 186.384 145.842 187.049 145.164L187.456 144.752C187.835 144.366 188.072 143.862 188.127 143.324L188.141 143.183C188.241 142.201 187.727 141.26 186.846 140.815Z" fill="#E6E6E6"/>
<path d="M186.846 140.815L186.004 140.389C185.306 140.036 184.48 140.047 183.793 140.421L182.912 140.899C181.898 141.448 181.425 142.647 181.787 143.742C182.011 144.418 182.527 144.959 183.191 145.215L184.494 145.717C185.38 146.059 186.384 145.842 187.049 145.164L187.456 144.752C187.835 144.366 188.072 143.862 188.127 143.324L188.141 143.183C188.241 142.201 187.727 141.26 186.846 140.815Z" stroke="#494949" stroke-width="1.5" stroke-linecap="round" stroke-linejoin="round"/>
</svg>
