<svg width="285" height="193" viewBox="0 0 285 193" fill="none" xmlns="http://www.w3.org/2000/svg">
<path d="M152.468 112.874C152.468 127.825 296.905 141.82 283.341 153.795C256.788 177.237 208.115 192.942 152.468 192.942C68.3948 192.942 0.239746 157.095 0.239746 112.874C0.239746 68.6532 68.3948 32.8054 152.468 32.8054C164.582 43.4772 152.468 68.6532 152.468 112.874Z" fill="#494949" fill-opacity="0.04"/>
<path d="M171.098 84.6586C171.098 84.6586 174.644 40.0681 178.548 25.7454C179.711 23.0641 181.175 10.1176 180.064 3.33912C179.275 2.12862 175.005 1.39737 174.427 1.39287C173.171 1.38237 167.698 0.750122 165.65 0.750122C161.106 0.750122 156.783 1.48212 152.389 1.68612C116.106 3.36987 81.4271 12.9999 61.6256 23.9349C57.9168 25.9831 53.6283 28.6134 50.3088 30.8754C46.8303 33.2446 44.3403 36.1261 41.3118 38.7091C33.8276 45.0916 27.7481 52.0914 23.2338 59.5471C22.4741 60.8034 21.0671 63.9699 20.3966 65.2509C19.2723 67.3981 18.2193 69.6894 17.3531 71.9011C14.6013 78.9241 13.9136 84.2461 13.9136 91.7679C13.9136 101.587 16.3593 111.131 20.9898 120.122C21.9303 121.947 22.5078 123.845 23.6261 125.622C24.8921 127.634 26.7236 129.518 28.2116 131.462C31.3533 135.567 34.9833 139.513 39.0723 143.267C42.4466 146.366 45.2523 148.292 49.2356 151.113C52.8183 153.65 56.2413 156.838 60.2906 159.122C63.3108 160.825 67.7381 162.725 71.0058 164.275C82.5558 169.752 95.6201 172.292 109.974 175.54C111.586 175.904 113.075 176.576 114.719 176.909C116.776 177.326 118.997 177.396 121.104 177.763C124.398 178.336 126.372 179.15 129.783 179.596C132.168 179.907 135.96 179.883 138.399 180.13C146.659 180.966 151.899 181.388 160.749 181.441C161.322 181.444 165.484 182.228 166.059 182.228C167.017 182.228 172.457 181.394 173.409 181.384C182.947 181.289 187.413 180.806 196.255 179.802C199.111 179.478 202.106 179.916 204.884 179.504C208.963 178.897 212.779 177.389 216.683 176.599C241.517 171.572 262.713 164.858 279.181 153.745C288.791 144.995 280.174 131.66 271.735 126.654C268.833 124.933 265.296 124.664 262.153 125.894L258.6 127.284" fill="#ECECEC"/>
<mask id="mask0_622_1981" style="mask-type:luminance" maskUnits="userSpaceOnUse" x="13" y="0" width="271" height="183">
<path d="M152.389 1.686C116.106 3.3705 81.4268 12.999 61.6253 23.9347C57.9166 25.983 53.6281 28.6132 50.3086 30.8752C46.8301 33.2452 44.3408 36.126 41.3116 38.709C33.8273 45.0915 27.7478 52.0913 23.2336 59.547C22.4738 60.8025 21.0668 63.9697 20.3963 65.2507C19.2721 67.3972 18.2198 69.6893 17.3528 71.901C14.6011 78.9248 13.9141 84.246 13.9141 91.7677C13.9141 101.587 16.3591 111.131 20.9896 120.121C21.9301 121.947 22.5076 123.845 23.6266 125.622C24.8918 127.634 26.7233 129.518 28.2106 131.462C31.3531 135.567 34.9831 139.513 39.0713 143.267C42.4463 146.365 45.2528 148.293 49.2353 151.113C52.8181 153.65 56.2411 156.838 60.2903 159.122C63.3106 160.825 67.7386 162.725 71.0063 164.275C82.5556 169.753 95.6198 172.291 109.974 175.54C111.586 175.904 113.075 176.576 114.719 176.909C116.776 177.326 118.997 177.396 121.104 177.763C124.398 178.336 126.371 179.15 129.782 179.596C132.167 179.907 135.959 179.883 138.399 180.13C146.659 180.966 151.899 181.388 160.749 181.441C161.321 181.445 165.485 182.228 166.059 182.228C167.018 182.228 172.457 181.394 173.409 181.385C182.947 181.289 187.413 180.806 196.255 179.802C197.604 179.649 198.985 179.666 200.358 179.684C201.892 179.703 203.418 179.722 204.884 179.503C208.963 178.897 212.779 177.389 216.683 176.599C241.517 171.572 262.713 164.858 279.181 153.745C288.791 144.995 280.174 131.659 271.735 126.655C268.833 124.933 265.295 124.664 262.153 125.894L258.599 127.284L171.098 84.6585C171.098 84.6585 174.644 40.0688 178.547 25.7453C179.711 23.064 181.175 10.1175 180.064 3.339C179.275 2.12925 175.005 1.39725 174.428 1.39275C173.171 1.38225 167.698 0.75 165.65 0.75C161.105 0.75 156.784 1.482 152.389 1.686Z" fill="white"/>
</mask>
<g mask="url(#mask0_622_1981)">
<path d="M285.682 139.129C285.682 139.129 250.795 172.125 158.724 173.493C66.6532 174.86 23.0662 115.236 23.0662 115.236L1.17969 70.7517C1.17969 70.7517 1.93494 110.592 10.7602 127.885C37.1774 179.655 152.389 198.681 152.389 198.681L296.999 158.992L285.682 139.129Z" fill="#494949" fill-opacity="0.04"/>
</g>
<mask id="mask1_622_1981" style="mask-type:luminance" maskUnits="userSpaceOnUse" x="13" y="0" width="271" height="183">
<path d="M152.389 1.686C116.106 3.3705 81.4268 12.999 61.6253 23.9347C57.9166 25.983 53.6281 28.6132 50.3086 30.8752C46.8301 33.2452 44.3408 36.126 41.3116 38.709C33.8273 45.0915 27.7478 52.0913 23.2336 59.547C22.4738 60.8025 21.0668 63.9697 20.3963 65.2507C19.2721 67.3972 18.2198 69.6893 17.3528 71.901C14.6011 78.9248 13.9141 84.246 13.9141 91.7677C13.9141 101.587 16.3591 111.131 20.9896 120.121C21.9301 121.947 22.5076 123.845 23.6266 125.622C24.8918 127.634 26.7233 129.518 28.2106 131.462C31.3531 135.567 34.9831 139.513 39.0713 143.267C42.4463 146.365 45.2528 148.293 49.2353 151.113C52.8181 153.65 56.2411 156.838 60.2903 159.122C63.3106 160.825 67.7386 162.725 71.0063 164.275C82.5556 169.753 95.6198 172.291 109.974 175.54C111.586 175.904 113.075 176.576 114.719 176.909C116.776 177.326 118.997 177.396 121.104 177.763C124.398 178.336 126.371 179.15 129.782 179.596C132.167 179.907 135.959 179.883 138.399 180.13C146.659 180.966 151.899 181.388 160.749 181.441C161.321 181.445 165.485 182.228 166.059 182.228C167.018 182.228 172.457 181.394 173.409 181.385C182.947 181.289 187.413 180.806 196.255 179.802C197.604 179.649 198.985 179.666 200.358 179.684C201.892 179.703 203.418 179.722 204.884 179.503C208.963 178.897 212.779 177.389 216.683 176.599C241.517 171.572 262.713 164.858 279.181 153.745C288.791 144.995 280.174 131.659 271.735 126.655C268.833 124.933 265.295 124.664 262.153 125.894L258.599 127.284L171.098 84.6585C171.098 84.6585 174.644 40.0688 178.547 25.7453C179.711 23.064 181.175 10.1175 180.064 3.339C179.275 2.12925 175.005 1.39725 174.428 1.39275C173.171 1.38225 167.698 0.75 165.65 0.75C161.105 0.75 156.784 1.482 152.389 1.686Z" fill="white"/>
</mask>
<g mask="url(#mask1_622_1981)">
<path d="M180.917 14.9604C155.842 13.9494 125.53 16.4882 94.2144 27.7877C14.9664 56.3807 45.3362 105.752 54.5087 111.159C63.6804 116.566 175.54 55.9644 175.54 55.9644" fill="#494949" fill-opacity="0.04"/>
</g>
<path d="M171.098 84.6586C171.098 84.6586 174.644 40.0681 178.548 25.7454C179.711 23.0641 181.175 10.1176 180.064 3.33912C179.275 2.12862 175.005 1.39737 174.427 1.39287C173.171 1.38237 167.698 0.750122 165.65 0.750122C161.106 0.750122 156.783 1.48212 152.389 1.68612C116.106 3.36987 81.4271 12.9999 61.6256 23.9349C57.9168 25.9831 53.6283 28.6134 50.3088 30.8754C46.8303 33.2446 44.3403 36.1261 41.3118 38.7091C33.8276 45.0916 27.7481 52.0914 23.2338 59.5471C22.4741 60.8034 21.0671 63.9699 20.3966 65.2509C19.2723 67.3981 18.2193 69.6894 17.3531 71.9011C14.6013 78.9241 13.9136 84.2461 13.9136 91.7679C13.9136 101.587 16.3593 111.131 20.9898 120.122C21.9303 121.947 22.5078 123.845 23.6261 125.622C24.8921 127.634 26.7236 129.518 28.2116 131.462C31.3533 135.567 34.9833 139.513 39.0723 143.267C42.4466 146.366 45.2523 148.292 49.2356 151.113C52.8183 153.65 56.2413 156.838 60.2906 159.122C63.3108 160.825 67.7381 162.725 71.0058 164.275C82.5558 169.752 95.6201 172.292 109.974 175.54C111.586 175.904 113.075 176.576 114.719 176.909C116.776 177.326 118.997 177.396 121.104 177.763C124.398 178.336 126.372 179.15 129.783 179.596C132.168 179.907 135.96 179.883 138.399 180.13C146.659 180.966 151.899 181.388 160.749 181.441C161.322 181.444 165.484 182.228 166.059 182.228C167.017 182.228 172.457 181.394 173.409 181.384C182.947 181.289 187.413 180.806 196.255 179.802C199.111 179.478 202.106 179.916 204.884 179.504C208.963 178.897 212.779 177.389 216.683 176.599C241.517 171.572 262.713 164.858 279.181 153.745C288.791 144.995 280.174 131.66 271.735 126.654C268.833 124.933 265.296 124.664 262.153 125.894L258.6 127.284" stroke="#494949" stroke-width="1.5" stroke-linecap="round" stroke-linejoin="round"/>
<path d="M169.561 83.7628C166.513 82.5838 162.361 81.2293 160.168 80.1298C158.958 79.523 156.772 77.8183 155.539 77.2655C154.435 76.7705 152.002 76.4563 150.922 75.9005C150.271 75.5645 144.901 73.406 143.358 72.5465C142.77 72.2188 141.106 70.9138 139.844 70.0858C138.875 69.4498 136.903 69.305 136.413 69.1558C134.083 68.447 131.428 66.1618 129.177 65.2063C127.917 64.6708 120.244 61.1773 118.933 60.5195C115.516 58.8058 108.274 56.4133 104.812 54.8068C102.019 53.5108 96.4273 50.4185 93.8833 49.061" fill="white"/>
<path d="M178.548 25.7455C178.337 25.7327 176.553 25.4582 176.189 25.3862C175.681 25.2857 175.165 25.1717 175.037 25.1672C173.825 25.1215 172.637 24.853 171.465 24.5207C170.55 24.262 169.71 24.3595 168.9 24.5687C167.825 24.8462 166.727 25.0232 165.62 25.0315C158.895 25.0817 152.303 25.4117 145.887 26.0005C145.021 26.08 144.149 26.0252 143.294 25.855C140.483 25.297 139.016 25.846 136.889 26.722C136.205 27.004 135.484 27.1982 134.756 27.3025C103.583 31.7545 77.4968 42.4202 61.9516 56.518C60.6361 57.7105 58.8616 60.1982 57.7006 61.438C56.0326 63.2192 55.0628 63.778 53.7293 65.6485C50.9686 69.523 48.9473 73.5782 47.7511 77.7707C47.3948 79.021 46.7296 80.6642 46.5226 81.9385C46.2443 83.6462 46.4836 84.9932 46.4836 86.7377C46.4836 97.1342 51.5221 106.931 60.4208 115.526C61.2361 116.312 62.0251 117.59 62.9041 118.357C63.9616 119.279 65.1233 119.686 66.2708 120.578C83.3011 133.805 110.029 143.493 141.296 147.007C149.71 147.952 155.276 147.282 164.246 147.282C170.864 147.282 180.535 148.179 186.863 147.658C194.276 147.047 201.785 145.384 208.681 144.118C217.574 142.487 225.66 141.046 233.447 138.452C242.811 135.332 251.276 131.569 258.599 127.284L250.234 122.167C244.046 119.337 235.375 115.328 231.54 113.351C229.601 112.352 225.9 109.972 223.928 109.05C221.932 108.116 217.713 106.868 215.708 105.958C213.265 104.849 208.693 101.894 206.217 100.871C205.275 100.483 203.252 100.142 202.328 99.709C201.29 99.2222 199.503 97.669 198.474 97.162C194.855 95.3792 187.075 93.2597 183.398 91.6142C180.308 90.232 180.108 89.0387 174.822 86.2195" fill="#FCFCFC"/>
<mask id="mask2_622_1981" style="mask-type:luminance" maskUnits="userSpaceOnUse" x="0" y="0" width="77" height="36">
<path d="M11.5613 6.126C14.3168 7.404 19.464 9.18 23.1743 10.716L0.633789 0.380249C3.17704 1.73775 8.76829 4.83 11.5613 6.126ZM27.558 12.726C26.6828 12.3202 25.998 11.997 25.6823 11.8387C24.984 11.4885 24.1268 11.1105 23.1743 10.716L27.558 12.726ZM32.0768 14.7982L27.558 12.726C28.842 13.3222 30.5363 14.0985 32.0768 14.7982ZM37.0155 17.0632C36.6443 16.8585 36.2805 16.6755 35.9273 16.5247C35.415 16.3072 33.8475 15.603 32.0768 14.7982L37.0155 17.0632ZM43.1625 20.475C43.4985 20.577 44.5313 20.6775 45.459 20.9347L37.0155 17.0632C39.0045 18.1605 41.199 19.8772 43.1625 20.475ZM46.839 21.5677C46.7558 21.5115 46.674 21.4567 46.5938 21.4042C46.2893 21.2047 45.885 21.0532 45.459 20.9347L46.839 21.5677ZM50.1083 23.8657C51.651 24.7245 57.0218 26.8837 57.6728 27.2197C58.5645 27.6787 60.384 27.9727 61.611 28.3417L46.839 21.5677C48.063 22.3942 49.557 23.5582 50.1083 23.8657ZM63.1313 29.0385C62.823 28.8525 62.5373 28.6957 62.2898 28.5847C62.0985 28.4985 61.8683 28.4182 61.611 28.3417L63.1313 29.0385ZM66.918 31.4482C69.111 32.5477 73.2615 33.903 76.311 35.082L63.1313 29.0385C64.3598 29.7772 65.9505 30.963 66.918 31.4482Z" fill="white"/>
</mask>
<g mask="url(#mask2_622_1981)">
<path d="M233.258 41.5161C233.258 41.5161 132.367 13.2291 71.977 58.4879C11.5878 103.747 116.598 152.188 116.598 152.188L32.1753 98.7471L57.2703 39.8144L163.35 14.7089L243.758 23.4329L233.258 41.5161Z" fill="#494949"/>
</g>
<path d="M169.561 83.7628C166.513 82.5838 162.361 81.2293 160.168 80.1298C158.958 79.523 156.772 77.8183 155.539 77.2655C154.435 76.7705 152.002 76.4563 150.922 75.9005C150.271 75.5645 144.901 73.406 143.358 72.5465C142.77 72.2188 141.106 70.9138 139.844 70.0858C138.875 69.4498 136.903 69.305 136.413 69.1558C134.083 68.447 131.428 66.1618 129.177 65.2063C127.917 64.6708 120.244 61.1773 118.933 60.5195C115.516 58.8058 108.274 56.4133 104.812 54.8068C102.019 53.5108 96.4273 50.4185 93.8833 49.061" stroke="#494949" stroke-width="1.5" stroke-linecap="round" stroke-linejoin="round"/>
<path d="M178.548 25.7456C178.337 25.7329 176.553 25.4584 176.189 25.3864C175.681 25.2859 175.165 25.1719 175.037 25.1674C173.825 25.1216 172.637 24.8531 171.465 24.5209C170.55 24.2621 169.71 24.3596 168.9 24.5689C167.825 24.8464 166.727 25.0234 165.62 25.0316C158.895 25.0819 152.303 25.4119 145.887 26.0006C145.021 26.0801 144.149 26.0254 143.294 25.8551C140.483 25.2971 139.016 25.8461 136.889 26.7221C136.205 27.0041 135.484 27.1984 134.756 27.3026C103.583 31.7546 77.4968 42.4204 61.9516 56.5181C60.6361 57.7106 58.8616 60.1984 57.7006 61.4381C56.0326 63.2194 55.0628 63.7781 53.7293 65.6486C50.9686 69.5231 48.9473 73.5784 47.7511 77.7709C47.3948 79.0211 46.7296 80.6644 46.5226 81.9386C46.2443 83.6464 46.4836 84.9934 46.4836 86.7379C46.4836 97.1344 51.5221 106.931 60.4208 115.526C61.2361 116.313 62.0251 117.591 62.9041 118.357C63.9616 119.28 65.1233 119.686 66.2708 120.578C83.3011 133.806 110.029 143.493 141.296 147.007C149.71 147.952 155.276 147.282 164.246 147.282C170.864 147.282 180.535 148.179 186.863 147.658C194.276 147.047 201.785 145.384 208.681 144.118C217.574 142.487 225.66 141.046 233.447 138.452C242.811 135.333 251.276 131.569 258.599 127.284L250.234 122.167C244.046 119.337 235.375 115.328 231.54 113.352C229.601 112.353 225.9 109.972 223.928 109.05C221.932 108.117 217.713 106.868 215.708 105.958C213.265 104.849 208.693 101.895 206.217 100.872C205.275 100.483 203.252 100.142 202.328 99.7091C201.29 99.2224 199.503 97.6691 198.474 97.1621C194.855 95.3794 187.075 93.2599 183.398 91.6144C180.308 90.2321 180.108 89.0389 174.822 86.2196" stroke="#494949" stroke-width="1.5" stroke-linecap="round" stroke-linejoin="round"/>
<path d="M144.52 104.309L149.689 101.265L155.562 96.5412L163.19 92.1214L172.639 85.1082" fill="white"/>
<path d="M144.52 104.309L149.689 101.265L155.562 96.5412L163.19 92.1214L172.639 85.1082" stroke="#494949" stroke-width="1.5" stroke-linecap="round" stroke-linejoin="round"/>
<path d="M99.4277 134.561L109.968 127.422L125.609 116.309" fill="white"/>
<path d="M99.4277 134.561L109.968 127.422L125.609 116.309" stroke="#494949" stroke-width="1.5" stroke-linecap="round" stroke-linejoin="round"/>
<path d="M74.7473 161.192C74.7683 161.752 74.8163 162.292 74.8936 162.807" stroke="#494949" stroke-width="1.5" stroke-linecap="round" stroke-linejoin="round"/>
<path d="M88.8618 137.615C81.0768 140.37 75.8823 150.16 74.9036 157.985" stroke="#494949" stroke-width="1.5" stroke-linecap="round" stroke-linejoin="round"/>
<path d="M154.458 59.5032C154.458 59.5032 150.385 55.9662 145.202 59.642C143.74 58.2852 139.458 56.7702 137.739 61.5935" fill="white"/>
<path d="M154.458 59.5032C154.458 59.5032 150.385 55.9662 145.202 59.642C143.74 58.2852 139.458 56.7702 137.739 61.5935" stroke="#494949" stroke-width="1.5" stroke-linecap="round" stroke-linejoin="round"/>
<path d="M165.59 125.614C165.59 131.893 155.476 136.984 143 136.984C130.523 136.984 120.41 131.893 120.41 125.614C120.41 119.334 130.523 114.243 143 114.243C155.476 114.243 165.59 119.334 165.59 125.614Z" fill="#494949" fill-opacity="0.04"/>
<path d="M129.459 119.433C129.054 125.885 135.628 130.791 147.471 130.791C159.314 130.791 165.92 125.885 165.515 119.433C165.466 118.661 165.515 113.4 165.515 113.4C163.607 109.164 155.996 112.736 147.487 112.736C139.59 112.736 131.908 109.964 129.459 113.4C129.459 113.4 129.532 118.273 129.459 119.433Z" fill="#E0E0E0"/>
<path d="M129.459 119.433C129.054 125.885 135.628 130.791 147.471 130.791C159.314 130.791 165.92 125.885 165.515 119.433C165.466 118.661 165.515 113.4 165.515 113.4C163.607 109.164 155.996 112.736 147.487 112.736C139.59 112.736 131.908 109.964 129.459 113.4C129.459 113.4 129.532 118.273 129.459 119.433Z" stroke="#494949" stroke-width="1.5" stroke-linecap="round" stroke-linejoin="round"/>
<path d="M145.772 124.712C146.325 124.742 146.892 124.758 147.471 124.758C159.314 124.758 165.92 119.851 165.515 113.4C165.236 108.959 159.681 108.373 153.741 107.872L153.805 106.162C151.859 106.05 149.683 106.703 147.487 106.703C145.58 106.703 143.045 106.317 141.32 106.396L141.56 108.107C135.051 108.517 129.754 108.694 129.459 113.4C129.156 118.219 132.749 121.492 139.525 123.624" fill="#F7F7F7"/>
<path d="M145.772 124.712C146.325 124.742 146.892 124.758 147.471 124.758C159.314 124.758 165.92 119.851 165.515 113.4C165.236 108.959 159.681 108.373 153.741 107.872L153.805 106.162C151.859 106.05 149.683 106.703 147.487 106.703C145.58 106.703 143.045 106.317 141.32 106.396L141.56 108.107C135.051 108.517 129.754 108.694 129.459 113.4C129.156 118.219 132.749 121.492 139.525 123.624" stroke="#494949" stroke-width="1.5" stroke-linecap="round" stroke-linejoin="round"/>
<path d="M142.314 124.31C142.46 124.337 142.607 124.362 142.755 124.387Z" fill="white"/>
<path d="M142.314 124.31C142.46 124.337 142.607 124.362 142.755 124.387" stroke="#494949" stroke-width="1.5" stroke-linecap="round" stroke-linejoin="round"/>
<path d="M153.834 109.325C153.834 109.325 153.981 102.97 153.693 101.939C152.856 98.935 141.498 99.31 141.008 101.805C140.776 102.987 141.56 108.107 141.56 108.107L141.657 109.325" fill="#F7F7F7"/>
<path d="M153.834 109.325C153.834 109.325 153.981 102.97 153.693 101.939C152.856 98.935 141.498 99.31 141.008 101.805C140.776 102.987 141.56 108.107 141.56 108.107L141.657 109.325" stroke="#494949" stroke-width="1.5" stroke-linecap="round" stroke-linejoin="round"/>
<path d="M219.993 135.878C219.993 135.878 215.657 127.264 205.587 132.188C201.623 126.761 196.654 129.698 196.654 129.698" fill="white"/>
<path d="M219.993 135.878C219.993 135.878 215.657 127.264 205.587 132.188C201.623 126.761 196.654 129.698 196.654 129.698" stroke="#494949" stroke-width="1.5" stroke-linecap="round" stroke-linejoin="round"/>
<path d="M73.1988 90.4842C73.1988 90.4842 69.13 84.5097 64.3323 89.6209Z" fill="white"/>
<path d="M73.1988 90.4842C73.1988 90.4842 69.13 84.5097 64.3323 89.6209" stroke="#494949" stroke-width="1.5" stroke-linecap="round" stroke-linejoin="round"/>
<path d="M82.6616 39.8323C84.4414 34.2058 82.7486 21.4513 70.1936 19.9738" stroke="#494949" stroke-width="1.5" stroke-linecap="round" stroke-linejoin="round"/>
<path d="M52.7047 174.254L51.0885 173.675C49.7497 173.196 48.2122 173.292 46.9755 173.933L45.3907 174.755C43.5652 175.702 42.819 177.598 43.6192 179.257C44.1142 180.282 45.1342 181.069 46.4017 181.402L48.8835 182.056C50.5717 182.5 52.416 182.069 53.5785 180.96L54.2865 180.283C54.9495 179.651 55.3327 178.85 55.374 178.012L55.3845 177.793C55.4595 176.266 54.3937 174.859 52.7047 174.254Z" fill="#494949" fill-opacity="0.04"/>
<path d="M57.2656 173.228L55.9231 172.649C54.8116 172.169 53.5351 172.265 52.5076 172.907L51.1921 173.729C49.6756 174.675 49.0561 176.572 49.7206 178.231C50.1316 179.255 50.9791 180.042 52.0314 180.376L54.0924 181.029C55.4941 181.473 57.0256 181.043 57.9909 179.933L58.5789 179.257C59.1294 178.625 59.4474 177.824 59.4819 176.986L59.4909 176.766C59.5531 175.24 58.6681 173.833 57.2656 173.228Z" fill="#E6E6E6"/>
<path d="M57.2656 173.228L55.9231 172.649C54.8116 172.169 53.5351 172.265 52.5076 172.907L51.1921 173.729C49.6756 174.675 49.0561 176.572 49.7206 178.231C50.1316 179.255 50.9791 180.042 52.0314 180.376L54.0924 181.029C55.4941 181.473 57.0256 181.043 57.9909 179.933L58.5789 179.257C59.1294 178.625 59.4474 177.824 59.4819 176.986L59.4909 176.766C59.5531 175.24 58.6681 173.833 57.2656 173.228Z" stroke="#494949" stroke-width="1.5" stroke-linecap="round" stroke-linejoin="round"/>
<path d="M175.928 43.3134C175.828 46.4904 176.04 52.8256 175.54 55.9644C175.398 56.8546 174.862 58.5886 174.765 59.4849C174.652 60.5304 174.822 62.6416 174.771 63.6924C174.507 69.0669 172.639 85.1086 172.639 85.1086" fill="#ECECEC"/>
<path d="M175.928 43.3134C175.828 46.4904 176.04 52.8256 175.54 55.9644C175.398 56.8546 174.862 58.5886 174.765 59.4849C174.652 60.5304 174.822 62.6416 174.771 63.6924C174.507 69.0669 172.639 85.1086 172.639 85.1086" stroke="#494949" stroke-width="1.5" stroke-linecap="round" stroke-linejoin="round"/>
<path d="M177.35 37.7779C177.868 34.7996 178.548 25.7456 178.548 25.7456Z" fill="#ECECEC"/>
<path d="M177.35 37.7779C177.868 34.7996 178.548 25.7456 178.548 25.7456" stroke="#494949" stroke-width="1.5" stroke-linecap="round" stroke-linejoin="round"/>
<path d="M103.319 103.498C103.319 106.918 98.0349 109.691 91.5159 109.691C84.9969 109.691 79.7124 106.918 79.7124 103.498C79.7124 100.077 84.9969 97.3041 91.5159 97.3041C98.0349 97.3041 103.319 100.077 103.319 103.498Z" fill="#494949" fill-opacity="0.04"/>
<path d="M152.353 36.439C152.353 39.8597 147.068 42.6325 140.549 42.6325C134.03 42.6325 128.746 39.8597 128.746 36.439C128.746 33.0182 134.03 30.2455 140.549 30.2455C147.068 30.2455 152.353 33.0182 152.353 36.439Z" fill="#494949" fill-opacity="0.04"/>
<path d="M92.9452 95.9527C89.9535 97.0409 88.2082 93.1844 87.8767 94.6064C87.741 95.1914 88.197 101.074 88.3492 101.626C88.6755 102.811 89.5575 103.856 90.5235 104.502C93.0315 106.177 99.5265 107.379 106.365 104.791C110.006 103.414 111.07 101.28 110.818 99.4147C110.749 98.9077 110.551 93.8114 110.314 93.3644C109.939 92.6602 109.419 96.6652 108.787 96.2422C106.279 94.5667 99.8137 93.4537 92.9452 95.9527Z" fill="#E0E0E0"/>
<path d="M92.9452 95.9527C89.9535 97.0409 88.2082 93.1844 87.8767 94.6064C87.741 95.1914 88.197 101.074 88.3492 101.626C88.6755 102.811 89.5575 103.856 90.5235 104.502C93.0315 106.177 99.5265 107.379 106.365 104.791C110.006 103.414 111.07 101.28 110.818 99.4147C110.749 98.9077 110.551 93.8114 110.314 93.3644C109.939 92.6602 109.419 96.6652 108.787 96.2422C106.279 94.5667 99.8137 93.4537 92.9452 95.9527Z" stroke="#494949" stroke-width="1.5" stroke-linecap="round" stroke-linejoin="round"/>
<path d="M94.4478 100.502C97.564 101.036 101.704 100.899 105.978 99.2821C112.17 96.9391 110.908 92.4083 108.399 90.7328C105.891 89.0566 99.427 87.9443 92.5578 90.4426C85.6893 92.9416 87.628 97.3163 90.136 98.9918C90.5133 99.2438 90.9805 99.4853 91.5258 99.7043" fill="#F7F7F7"/>
<path d="M94.4478 100.502C97.564 101.036 101.704 100.899 105.978 99.2821C112.17 96.9391 110.908 92.4083 108.399 90.7328C105.891 89.0566 99.427 87.9443 92.5578 90.4426C85.6893 92.9416 87.628 97.3163 90.136 98.9918C90.5133 99.2438 90.9805 99.4853 91.5258 99.7043" stroke="#494949" stroke-width="1.5" stroke-linecap="round" stroke-linejoin="round"/>
<path d="M96.9991 93.369C94.7386 94.191 95.3768 95.631 96.2018 96.1823C97.0276 96.7335 99.1643 97.1288 101.415 96.2775C103.453 95.5065 103.037 94.0155 102.212 93.4643C101.387 92.913 99.2596 92.547 96.9991 93.369Z" fill="#E0E0E0"/>
<path d="M96.9991 93.369C94.7386 94.191 95.3768 95.631 96.2018 96.1823C97.0276 96.7335 99.1643 97.1288 101.415 96.2775C103.453 95.5065 103.037 94.0155 102.212 93.4643C101.387 92.913 99.2596 92.547 96.9991 93.369Z" stroke="#494949" stroke-width="1.5" stroke-linecap="round" stroke-linejoin="round"/>
<path d="M97.8025 110.099C98.5667 107.429 102.149 104.06 106.65 104.372C109.616 99.8702 113.954 98.4752 120.543 102.021" fill="#FCFCFC"/>
<path d="M97.8025 110.099C98.5667 107.429 102.149 104.06 106.65 104.372C109.616 99.8702 113.954 98.4752 120.543 102.021" stroke="#494949" stroke-width="1.5" stroke-linecap="round" stroke-linejoin="round"/>
<path d="M204.082 107.49C204.082 111.425 198.003 114.615 190.504 114.615C183.005 114.615 176.926 111.425 176.926 107.49C176.926 103.556 183.005 100.365 190.504 100.365C198.003 100.365 204.082 103.556 204.082 107.49Z" fill="#494949" fill-opacity="0.04"/>
<path d="M192.702 112.094C199.348 112.103 204.74 109.171 204.745 105.542C204.746 104.988 205.236 100.479 205 99.9645C203.691 97.1115 198.351 98.964 192.721 98.9558C186.958 98.9468 182.136 96.4358 180.954 99.387C180.772 99.8393 180.678 105.025 180.678 105.507C180.673 108.376 184.039 110.82 188.734 111.722" fill="#E0E0E0"/>
<path d="M192.702 112.094C199.348 112.103 204.74 109.171 204.745 105.542C204.746 104.988 205.236 100.479 205 99.9645C203.691 97.1115 198.351 98.964 192.721 98.9558C186.958 98.9468 182.136 96.4358 180.954 99.387C180.772 99.8393 180.678 105.025 180.678 105.507C180.673 108.376 184.039 110.82 188.734 111.722" stroke="#494949" stroke-width="1.5" stroke-linecap="round" stroke-linejoin="round"/>
<path d="M192.956 106.516C199.602 106.525 204.995 103.593 205 99.9642C205.005 96.3365 199.622 93.3875 192.976 93.3777C186.33 93.368 180.938 96.3005 180.932 99.929C180.928 102.798 184.294 105.242 188.989 106.144" fill="#F7F7F7"/>
<path d="M192.956 106.516C199.602 106.525 204.995 103.593 205 99.9642C205.005 96.3365 199.622 93.3875 192.976 93.3777C186.33 93.368 180.938 96.3005 180.932 99.929C180.928 102.798 184.294 105.242 188.989 106.144" stroke="#494949" stroke-width="1.5" stroke-linecap="round" stroke-linejoin="round"/>
<path d="M192.97 97.7078C190.704 97.704 188.866 98.7038 188.865 99.9405C188.863 101.177 190.698 102.182 192.963 102.185C195.228 102.189 197.066 101.189 197.068 99.9525" fill="#E0E0E0"/>
<path d="M192.97 97.7078C190.704 97.704 188.866 98.7038 188.865 99.9405C188.863 101.177 190.698 102.182 192.963 102.185C195.228 102.189 197.066 101.189 197.068 99.9525" stroke="#494949" stroke-width="1.5" stroke-linecap="round" stroke-linejoin="round"/>
<path d="M195.7 98.2803C195.606 98.2345 195.509 98.191 195.408 98.1498Z" fill="#E0E0E0"/>
<path d="M195.7 98.2803C195.606 98.2345 195.509 98.191 195.408 98.1498" stroke="#494949" stroke-width="1.5" stroke-linecap="round" stroke-linejoin="round"/>
<path d="M139.093 30.4078C136.168 30.9831 135.124 27.2083 134.619 28.4766C134.413 28.9948 134.012 34.3378 134.072 34.8448C134.202 35.9293 134.842 36.9711 135.614 37.6768C137.617 39.5098 143.335 41.5858 150.243 40.4443C154.066 39.8121 155.578 38.0436 155.734 36.2796C155.776 35.7966 156.715 30.9291 156.572 30.4618C156.347 29.7231 154.927 33.4843 154.381 32.9878C152.218 31.0221 146.058 29.0376 139.093 30.4078Z" fill="#E0E0E0"/>
<path d="M139.093 30.4078C136.168 30.9831 135.124 27.2083 134.619 28.4766C134.413 28.9948 134.012 34.3378 134.072 34.8448C134.202 35.9293 134.842 36.9711 135.614 37.6768C137.617 39.5098 143.335 41.5858 150.243 40.4443C154.066 39.8121 155.578 38.0436 155.734 36.2796C155.776 35.7966 156.715 30.9291 156.572 30.4618C156.347 29.7231 154.927 33.4843 154.381 32.9878C152.218 31.0221 146.058 29.0376 139.093 30.4078Z" stroke="#494949" stroke-width="1.5" stroke-linecap="round" stroke-linejoin="round"/>
<path d="M139.77 34.75C142.577 35.6965 146.511 36.2087 150.956 35.395C157.659 34.1687 157.403 29.6192 155.197 27.6182C152.994 25.6195 146.712 23.6672 139.607 25.1995C132.856 26.6545 134.015 30.9085 136.051 32.7685C136.357 33.0482 136.747 33.3317 137.212 33.6062" fill="#ECECEC"/>
<path d="M139.77 34.75C142.577 35.6965 146.511 36.2087 150.956 35.395C157.659 34.1687 157.403 29.6192 155.197 27.6182C152.994 25.6195 146.712 23.6672 139.607 25.1995C132.856 26.6545 134.015 30.9085 136.051 32.7685C136.357 33.0482 136.747 33.3317 137.212 33.6062" stroke="#494949" stroke-width="1.5" stroke-linecap="round" stroke-linejoin="round"/>
<path d="M143.353 28.5664C141.06 29.0261 141.424 30.4526 142.112 31.0796C142.8 31.7066 144.766 32.3816 147.088 31.9211C149.226 31.4981 149.11 30.0281 148.403 29.3861C147.697 28.7441 145.686 28.0991 143.353 28.5664Z" fill="#E0E0E0"/>
<path d="M143.353 28.5664C141.06 29.0261 141.424 30.4526 142.112 31.0796C142.8 31.7066 144.766 32.3816 147.088 31.9211C149.226 31.4981 149.11 30.0281 148.403 29.3861C147.697 28.7441 145.686 28.0991 143.353 28.5664Z" stroke="#494949" stroke-width="1.5" stroke-linecap="round" stroke-linejoin="round"/>
<path d="M66.3271 181.201C66.1896 181.201 66.1638 181.708 66.3271 181.875C66.4903 182.041 66.9867 182.073 66.9867 181.875C66.9867 181.677 66.4645 181.201 66.3271 181.201Z" stroke="#4A4A4A" stroke-linecap="round" stroke-linejoin="round"/>
</svg>
